<svg xmlns="http://www.w3.org/2000/svg" viewBox="0 0 1028.81 308.74"><defs><style>.cls-1{fill:#f9ed32;}.cls-2{fill:#1e1c55;}</style></defs><title>Full Logo</title><g id="Layer_2" data-name="Layer 2"><g id="Layer_1-2" data-name="Layer 1"><polygon class="cls-1" points="595.77 1.15 643.31 31.81 633.16 128.67 595.77 1.15"/><path class="cls-1" d="M596.63,2.3l46.15,29.77-9.86,94L596.63,2.3M594.91,0l38.48,131.25,10.45-99.69L594.91,0Z"/><polygon class="cls-1" points="649.65 65.52 652.08 37.47 709.59 74.51 649.65 65.52"/><path class="cls-1" d="M652.5,38.34l54.86,35.33L650.19,65.1l2.31-26.76m-.85-1.74-2.54,29.34,62.71,9.41L651.65,36.6Z"/><polygon class="cls-2" points="0 308 34.73 308 34.73 197.16 145.56 197.16 145.56 162.43 0 162.43 0 308"/><polygon class="cls-2" points="208.93 162.43 174.2 162.43 174.2 308 305.83 308 305.83 273.27 208.93 273.27 208.93 162.43"/><polygon class="cls-2" points="355.33 209.84 311.45 162.43 264.25 162.43 338.07 241.87 338.07 308 372.8 308 372.8 241.87 446.41 162.43 399.21 162.43 355.33 209.84"/><path class="cls-2" d="M581.89,175.64A45.55,45.55,0,0,0,567.54,166,44.09,44.09,0,0,0,550,162.43H494.65A44.13,44.13,0,0,0,477.08,166a45.24,45.24,0,0,0-24,24,44.08,44.08,0,0,0-3.53,17.57v55.31a44.13,44.13,0,0,0,3.53,17.58,45.27,45.27,0,0,0,24,24A44,44,0,0,0,494.65,308H550a43.92,43.92,0,0,0,17.57-3.54,45.27,45.27,0,0,0,24-24,44.13,44.13,0,0,0,3.53-17.58V224.82h-95l34.73,34.73h25.58v3.32a10.3,10.3,0,0,1-10.4,10.4H494.65a10.28,10.28,0,0,1-10.39-10.4V207.56a10.3,10.3,0,0,1,10.39-10.4H550a10.31,10.31,0,0,1,10.4,10.4v3.33h34.72v-3.33A44.08,44.08,0,0,0,591.56,190,45.55,45.55,0,0,0,581.89,175.64Z"/><rect class="cls-2" x="632.58" y="163.18" width="34.73" height="145.56"/><path class="cls-2" d="M838.68,247.61a44.79,44.79,0,0,0,12.17-9.88A48.14,48.14,0,0,0,859,224.31a42.42,42.42,0,0,0,3-16,43.91,43.91,0,0,0-3.53-17.57,45.18,45.18,0,0,0-24-24,43.92,43.92,0,0,0-17.57-3.54H716.67l26.27,34.72h73.91a10.37,10.37,0,0,1,7.38,17.68,9.87,9.87,0,0,1-7.38,3.12H754.47l67.58,90h43.46l-42-55.93A44.84,44.84,0,0,0,838.68,247.61Z"/><polygon class="cls-2" points="704.38 308.74 739.11 308.74 739.11 215.53 704.38 169.62 704.38 308.74"/><polygon class="cls-2" points="931.91 274.02 931.91 163.18 897.18 163.18 897.18 308.74 1028.81 308.74 1028.81 274.02 931.91 274.02"/><polygon class="cls-2" points="50.79 217.75 145.56 217.75 145.56 252.47 85.73 252.47 50.79 217.75"/></g></g></svg>