<svg xmlns="http://www.w3.org/2000/svg" viewBox="0 0 145.56 145.56"><defs><style>.cls-1{fill:#1e1c55;}</style></defs><title>G</title><g id="Layer_2" data-name="Layer 2"><g id="Layer_1-2" data-name="Layer 1"><path class="cls-1" d="M132.36,13.2A45.52,45.52,0,0,0,118,3.54,43.92,43.92,0,0,0,100.44,0H45.12A44,44,0,0,0,27.55,3.54a45.12,45.12,0,0,0-24,24A43.92,43.92,0,0,0,0,45.12v55.32A43.92,43.92,0,0,0,3.54,118a45.18,45.18,0,0,0,24,24,44,44,0,0,0,17.57,3.53h55.32A43.91,43.91,0,0,0,118,142a45.24,45.24,0,0,0,24-24,43.91,43.91,0,0,0,3.53-17.57v-38h-95L85.26,97.11h25.58v3.33a10.31,10.31,0,0,1-10.4,10.4H45.12a10.3,10.3,0,0,1-10.39-10.4V45.12A10.28,10.28,0,0,1,45.12,34.73h55.32a10.3,10.3,0,0,1,10.4,10.39v3.33h34.72V45.12A43.91,43.91,0,0,0,142,27.55,45.66,45.66,0,0,0,132.36,13.2Z"/></g></g></svg>