<svg xmlns="http://www.w3.org/2000/svg" viewBox="0 0 148.84 145.56"><defs><style>.cls-1{fill:#1e1c55;}</style></defs><title>R Right</title><g id="Layer_2" data-name="Layer 2"><g id="Layer_1-2" data-name="Layer 1"><path class="cls-1" d="M122,84.43a44.79,44.79,0,0,0,12.17-9.88,48.09,48.09,0,0,0,8.11-13.41,42.66,42.66,0,0,0,3-16,44.08,44.08,0,0,0-3.53-17.57,45.18,45.18,0,0,0-24-24A43.92,43.92,0,0,0,100.18,0H0L26.27,34.73h73.91a10.37,10.37,0,0,1,7.38,17.67,9.87,9.87,0,0,1-7.38,3.12H37.79l67.59,90h43.46l-42-55.93A44.84,44.84,0,0,0,122,84.43Z"/></g></g></svg>