<svg xmlns="http://www.w3.org/2000/svg" viewBox="0 0 161.13 145.56"><defs><style>.cls-1{fill:#1e1c55;}</style></defs><title>R</title><g id="Layer_2" data-name="Layer 2"><g id="Layer_1-2" data-name="Layer 1"><path class="cls-1" d="M134.3,84.43a44.79,44.79,0,0,0,12.17-9.88,48.09,48.09,0,0,0,8.11-13.41,42.47,42.47,0,0,0,3-16,44.08,44.08,0,0,0-3.53-17.57,45.18,45.18,0,0,0-24-24A43.92,43.92,0,0,0,112.47,0H12.29L38.56,34.73h73.91a10.36,10.36,0,0,1,7.38,17.67,9.87,9.87,0,0,1-7.38,3.12H50.08l67.59,90h43.46l-42-55.93A44.84,44.84,0,0,0,134.3,84.43Z"/><polygon class="cls-1" points="0 145.56 34.73 145.56 34.73 52.35 0 6.45 0 145.56"/></g></g></svg>