<svg id="e57023d8-bda2-47d0-bc18-c7ea7477ee22" data-name="Layer 1" xmlns="http://www.w3.org/2000/svg" viewBox="0 0 117.21 402.97"><title>Untitled-1</title><path d="M41.5,55.5s-1-5-3-7-4-14-4-14,1-9,1-10-2-8,0-12,7-13,17-13,19,9,19,13,0,13-1,14,2-1,3,0-1,11-4,12-2,14-1,14,21,3,21,3,9,2,13,22,14,62,14,62l-12,2s-5,32-14,48c-1,9-2,11-2,11v20l-3,37a59.45,59.45,0,0,1,3,19c3,10,6,28,4,36a54.53,54.53,0,0,1,4,10s-2,14-4,14,1,2-4,9-5,11-5,11l2,1s1,13,2,17a5.57,5.57,0,0,1-2,6s2,18-11,19c-12,4-18,1-18-1s6-21,7-21,3-14,3-14l3-5s1-9,2-9-2,1-2-5c0-2-6-2-6-2l4,16s-2,5-10,6-20,3-24,5-15,3-23-1c0,0,0-4,3-6s18-11,19-12,9-6,9-9-2-9-1-9-1-1-2-2-7-15-3-19c0-5-1-6-1-6s-7-10-9-27c-1-6-3,1-4-9s-4-31-2-34-2-7-2-7-15,0-13-22,4-28,4-37-2-30,1-35l-9-4,10-34s-1-22,13-29,16-7,16-7Z" transform="translate(0.1 1)" style="fill:none;stroke:#000;stroke-miterlimit:10"/></svg>