<svg xmlns="http://www.w3.org/2000/svg" xmlns:xlink="http://www.w3.org/1999/xlink" viewBox="0 0 667.11 353.82"><defs><style>.cls-1{fill:none;}.cls-2{fill:#a4ce3b;}.cls-3{clip-path:url(#clip-path);}.cls-4{fill:#f27823;}.cls-5{fill:#f19476;}.cls-6{fill:#f9c915;}</style><clipPath id="clip-path" transform="translate(0 -44.6)"><rect class="cls-1" x="23.22" width="611.42" height="338.56"/></clipPath></defs><title>Asset 9</title><g id="Layer_2" data-name="Layer 2"><g id="Layer_1-2" data-name="Layer 1"><path class="cls-2" d="M431.47,160.15c1.13.44,2.34.65,2.77,1.13a.49.49,0,0,1,.08.42c0,.08-.1.12-.22.14a2.24,2.24,0,0,1-1-.16c-.72-.23-1.3-.72-1-.19l1.35,1.58a4.27,4.27,0,0,1-2.27-2.15.49.49,0,0,1-.06.13l-.12,0h0l-.13,0-.28.07-1.11.27c-.75.19-1.5.32-2.25.49s-1.51.32-2.27.45c-3,.59-6.1,1-9.21,1.35.17.72.25,1.38-.38,1.64-2.64.54-6.3-.32-10-1-.57,0-1.14.12-1.69.13a2.76,2.76,0,0,0-.83,1.43c-.85-.17-1.65-.34-2.41-.55s-1.46-.47-2.13-.7a91.22,91.22,0,0,1-14.56-1l-3.66-.65c-.58-.07-1.32-.28-2-.44l-2.11-.52c-1.42-.36-2.81-.66-4.28-1.08l-4.42-1.21c-11.89-3.32-24.33-7.16-37.19-11.27-5.84-1-11.69-2-16.91-3.78-7.51-3.06-16.05-9-23-12.81-2.11,6.69-20.73.86-20.53,8.84-4.59-2.55-11.48-6.31-12.73-4.75a17.45,17.45,0,0,1-8.32,5.83c-3.84,1.28-9,1.56-15.74.25a15.93,15.93,0,0,1-1.94-.77c-.64-.28-1.28-.6-1.92-1-1.28-.71-2.55-1.51-3.73-2.27-.63-.4-1.07-.66-1.56-1s-.92-.53-1.33-.74a3.17,3.17,0,0,0-2-.5c-.88.16-1,.64-.74,1.28a14.33,14.33,0,0,0,1.08,2.14c.88,1.5,1.68,3,.26,3.38l12.1,6.35,12.94,6.73c8.73,4.52,17.55,8.94,26.45,13.38,17.81,8.85,35.81,17.62,54.33,27a86.72,86.72,0,0,1,8.4,3c1.89.76,4,1.63,6.29,2.6l7.57,3.17c2.62,1.14,5.77,2.37,8.88,3.66l1.18.49,1.35.51,2.81,1.05,2.85,1.06,2.92.95a145.59,145.59,0,0,0,24.95,5.64c4.31.62,8.68,1,13,1.22s8.68.24,12.94,0,8.46-.53,12.53-1c2-.26,4-.56,6-.86l2.93-.53,2-.38c.71-.15,1.41-.32,2.11-.49l4.15-1,2-.48,2-.59a54.32,54.32,0,0,0,7.35-2.9,42.6,42.6,0,0,0,11.64-8.26c6.28-6.33,9.51-13.31,11.66-18.48l1.2-3.78c.48-1.38,1-2.77,1.47-4.18.29-1,.58-1.95.88-2.94.61-2,1.09-4,1.56-5.94s.87-4,1.25-5.91.67-3.9.95-5.83a97.63,97.63,0,0,0,.86-21c-.92-5.59-2.24-11.23-3.64-16.79a74.85,74.85,0,0,1-4.09,6.44c.76-5.4,1.37-10.83.29-13-2.09-11.79-6-5.37-11-1.44-2.32,2.93-5.12-1.49-7.62,3.13.4-3.44.58-5.17.92-8.63-1-.26-.9,2.41-1,4.83s-.36,4.57-1.86,3.23c1-3.25.13-7,.43-10.47-1.35.51-1.8,3.46-2.25,6.19s-.93,5.24-2.2,4.86c-.42-1.87,4.32-9.33,1.09-10.21-.64-.17-1,3.23-1.16,4.92-.1-5.27-.91-9.37-2.21-11s-2.94-.72-5,3.84c.32-3.24,1.85-7.72,1.48-11.09l-.06,0c-.15,1.68-.89,4.53-1,6.11.16-1.94.25-3.83.36-5.73-.47.29-.93.62-1.39,1a20.46,20.46,0,0,0-.91,4.29c.11-1.27.18-2.52.24-3.77a29.58,29.58,0,0,0-3.15,3.1c-2.26,4.38-5.64,8.5-5.89,10.91-1.51,9.75-3.27,19.61-5.24,29.12-1,4.78-2,9.41-3.14,13.9l-.84,3.3-.88,3.17c-.27,1.08-.59,2-.89,3l-.44,1.47,0,.18s0,0,0,0v0Z" transform="translate(0 -44.6)"/><g class="cls-3"><path class="cls-4" d="M504.65,201.23c-.39,1.15.86,2.76-1.75,2.6-8-1.09-13.13-6.77-21.17-7.86l-1.1,1.73c-5.75-2.51-11.67-5.33-17.78-8L454,187.41c-3-.75-6.06-1.51-9.23-2.24-6.31-1.45-12.93-2.82-19.92-3.83.22.78.26,1.45-1.15,1.45-5.79-.57-13.93-2.53-23.07-3.07-1.34.06-2.66.17-3.95.25a2.33,2.33,0,0,0-1.37,1.53c-3.82-.07-6.94-.15-9.66-.28-7.33,1-13.18,1.95-17.8,2.1-1.17.05-2.22,0-3.26,0a23.72,23.72,0,0,1-4.09-.59l-6.56-1.47c-1.28-.27-2.74-.55-4.26-.8s-3.33-.47-5-.61a56.06,56.06,0,0,0-6.35,0,54.3,54.3,0,0,0-5.94.7,67.42,67.42,0,0,0-10.25,2.7c-3.07,1.06-5.86,2.2-8.38,3.29l-7,3-7.46,3-7.7,3-15.84,6a215.67,215.67,0,0,1-22.61,10.06c-11.23,3.49-26.09,5.75-37.28,8.21,3.32,6.31-23,16.16-16,21.65-7.44,1.65-18.62,4.14-18.72,6.18-.16,3.06-1.26,6.59-4.65,10.38s-9.1,7.85-18.32,12a43.59,43.59,0,0,1-6.17,1.71c-2.2.47-4.4.87-6.49,1.24l-3,.54c-.86.18-1.66.36-2.38.54a7.87,7.87,0,0,0-3,1.2c-.91.78-.68,1.22.13,1.5a19.55,19.55,0,0,0,3.23.66c2.43.37,4.86.74,3.27,2.18l20.64-4.82,21.06-5c14.05-3.38,28.05-6.89,42.09-10.45l85.5-21.91c1.31-.56,3.15-1.24,5.45-2l8.61-3c2.88-1.05,5.54-2,7.55-2.51,1-.28,1.81-.46,2.35-.57a8.73,8.73,0,0,0,.86-.21,1.57,1.57,0,0,1,.24,0,6.09,6.09,0,0,1,.72.11c.67.14,1.69.41,3.06.83l5.26,1.63,1.68.49,1.85.49c1.27.32,2.59.61,3.9.9a90.68,90.68,0,0,0,15,1.73c4.7.18,9.06.07,13-.08s7.6-.36,10.82-.45a86.37,86.37,0,0,1,8.75.13,119.62,119.62,0,0,1,18.13,2.79c6.3,1.42,12.77,3.2,19.24,5l18.39,5.29c11.37,3.31,20.75,6.14,26.84,8.13l3.08.79c18.26,5.59,40.71,11.44,57,13.33,7.57.46,15.36.62,23.1.84-3-2.05-5.84-4-8.22-5.88,7.3,2.23,14.61,4.47,17.77,4.07,16.45,1.61,8.54-4.25,3.81-10.49-3.76-3.21,3-4.59-3.25-8.54l12.17,3.73c1.1-1.73-15.35-3.33-11.07-5.45,4.5,2.06,10.11,2.41,15,3.9-1-3-16.67-5.79-15.21-8.09,2.81.17,12.78,7.34,14.61,4.47.37-.57-4.5-2.06-6.93-2.81,15.34,3.33,24.49,2.7,11.71-4.64,4.75,1.46,11.12,4.71,16.29,5.72a.25.25,0,0,0,0-.07c-2.49-.82-6.65-2.7-9-3.41l8.54,2.62c-.32-.57-.71-1.15-1.12-1.74a42.34,42.34,0,0,0-6.32-2.6l5.68,1.74a38.81,38.81,0,0,0-4-4.32c-6.2-4-11.85-8.77-15.5-9.89C563.65,219.38,534.19,209.86,504.65,201.23Z" transform="translate(0 -44.6)"/><path class="cls-5" d="M133.49,195.36c-.37-1.15-1.52-2-.54-3,3.31-2.39,7.57.52,10.89-1.78-.11-.64-.22-1.3-.33-2,3.14-.1,6.44,0,9.76,0,5.54-2,11.06-3.91,16.55-6-.33-.66-.56-1.28-.06-1.67,2.24-1.09,5.68-1.25,9.13-1.8l1.42-.67a2.9,2.9,0,0,0,.22-1.63,32.3,32.3,0,0,1,4.33-.46L210.42,165l27.4-12.4a74.06,74.06,0,0,1,11.47-7.08c5.8-2.08,13.71-2.66,19.6-4-1.32-3.24,1.34-6.6,3.68-9.89s4.34-6.64,2-9.6a44.84,44.84,0,0,0,6-1.78c1.81-.75,3.12-1.62,3-2.6a20.73,20.73,0,0,1,.48-9.55,19.05,19.05,0,0,1,2.28-5.09,33.18,33.18,0,0,1,4.14-5A8.33,8.33,0,0,1,293,96.86c.46-.14,1-.25,1.42-.37l1.27-.32c1.65-.41,3.11-.74,3.32-1.49a1,1,0,0,0-.55-1.38,16,16,0,0,0-1.84-.82c-1.33-.52-2.58-1.06-2.3-2.24-2.23.9-5.28,1.82-8,2.83-1.53.47-3,1-4.55,1.46l-2.27.75-2.38.72-4.75,1.5L267.47,99c-3.23,1-6.64,1.94-10,2.93-13.5,3.87-27.61,7.52-42.35,10.51-2.36,1.26-8.35,3.14-16.41,5.28s-18.12,4.5-29,7.17-21.9,5.7-31.33,8.45-17.3,5.18-21.93,6.42l-1.62.65c-10,3-21.66,8.14-28.7,14-1.55,1.51-3.05,3.16-4.53,4.83s-2.94,3.36-4.37,5.08a53.23,53.23,0,0,1,6,1c-3.81,1.47-7.55,3.08-8.46,4.85-6.56,6.37-.59,7.38,4.31,10.27,3,.9,1.47,5.07,5.63,5.48-2.41,1-3.61,1.49-6,2.52.28,1,2-.14,3.58-1s3.12-1.45,3,.38c-2.6.34-4.61,2.64-7,3.66,1,1,3.1.27,5.07-.4s3.83-1.21,4.19,0c-.5.57-2.52.5-4.3.71s-3.3.71-2.82,2.28c.19.64,2.55-.38,3.73-.88-6.74,4.29-9.16,9-1.23,9.08-2.26.95-6,1.29-8.13,2.84l0,0c1.22-.48,3.53-.87,4.63-1.36l-4.06,1.81c.42.3.86.59,1.31.87a11.17,11.17,0,0,0,3.35-.8l-2.68,1.2A26.57,26.57,0,0,0,81,208.56c4,.33,8.32,1.75,10,1C105.22,204.65,119.43,200,133.49,195.36Z" transform="translate(0 -44.6)"/><path class="cls-6" d="M395.94,261.34c1.24-1.59,1.59-3.86,3.49-3.6a6,6,0,0,1,3.11,2.26,20.35,20.35,0,0,1,2,3.49c1.26,2.52,2.5,5,5.31,6l2.33-2.32c2.58,3.76,5,8.06,7.71,12.19q2.64,1.88,5.29,3.71c1.78,1.24,3.56,2.48,5.36,3.69,3.59,2.44,7.23,4.77,10.91,7.12.59-1.06,1.2-2,2.14-1.76,3.34,1.63,6.45,5.69,10.21,9.27l2.12,1A5.11,5.11,0,0,0,458.2,301a45.43,45.43,0,0,1,4.39,4.69c23.7,11.48,48.49,22.74,74.94,35.57,6.53,1.63,13.05,3.26,18.36,6,7.34,4.63,14.31,13.37,20.46,19.09,6.48-9.6,25.72-.73,30.12-12.27,4.08,3.79,10.24,9.42,12.66,7.2,7.27-6.67,17.79-12.54,32.73-7.84,5.25,2.55,9.38,11.19,12.18,10.93,4.4-.46-1.34-10,3.07-10.44C652.05,339.41,636,326.12,619.61,313S586.46,286.84,570,272.66c-7.31-2.86-30.26-20.15-54.13-38.93-5.94-4.7-12-9.46-17.84-14.15s-11.5-9.24-16.82-13.47l-14.28-11.64c-2.08-1.73-4-3.33-5.66-4.78s-3.3-2.82-4.58-4l-2.12-1.41a137,137,0,0,0-20.81-14.14c-7.72-4.23-16.06-7.54-23.6-8.95a137,137,0,0,0-22.38,0,50.78,50.78,0,0,1,3.12,4.32q1.41,2.11,2.52,4.13a63.56,63.56,0,0,0-8.75-3.64,21.33,21.33,0,0,0-3.74-.83,6.46,6.46,0,0,0-2.9.27,24,24,0,0,0-4.7.51,8.73,8.73,0,0,0-3,1.24,4.31,4.31,0,0,0-1.92,4,18.92,18.92,0,0,0,1.29,5.36c.67,2,1.45,4.17,2,6.4,1.12,2.16.12,4.12-.61,6.18a9.21,9.21,0,0,0-.69,3.17,6.2,6.2,0,0,0,1.17,3.49c-1.62-.73-2.87-1.12-4.11-1.59s-2.48-.95-4.18-1.45c-.3.77.22,1.22,1.11,1.53a29.37,29.37,0,0,0,3.34.89c2.4.55,4.4,1.46,2.37,3.55-2.73-2.28-6.86-1.46-10.06-2.41a3.44,3.44,0,0,0,1.66,2.71,14.86,14.86,0,0,0,1.63,1c.59.33,1.2.63,1.81.93a12,12,0,0,1,3.07,1.86,2,2,0,0,1,.52,2.49c-.5.09-1.15-.43-1.9-1.13s-1.63-1.59-2.52-2.36a10.45,10.45,0,0,0-1.34-1,3.33,3.33,0,0,0-1.29-.45c-.82-.08-1.52.34-2,1.62-.38,1,2.62,1.93,4.11,2.55-.61-.08-1.21-.15-1.8-.2s-1.15,0-1.7,0a19.38,19.38,0,0,0-3,.33,7.79,7.79,0,0,0-4.1,2.13c-1.76,1.94-1.32,4.83,1.67,8.52a24.92,24.92,0,0,1-4.15-2.1,8.51,8.51,0,0,0-4.44-1.19s0,.06,0,.09a16.7,16.7,0,0,1,2.41,1.1,18,18,0,0,0,2.3,1,22.75,22.75,0,0,0-2.25-.51l-2.27-.48c.15.79.33,1.58.51,2.37a8.39,8.39,0,0,0,3.13,1.77c-1-.27-1.9-.41-2.86-.63.49,1.86,1,3.67,1.6,5.35a34.48,34.48,0,0,1,1.78,3.27l.77,1.62c.24.55.47,1.09.7,1.6.89,2.07,1.59,3.51,2.38,3.88s1.53.83,2.3,1.22,1.55.91,2.33,1.34l1.17.65,1.19.75c.8.5,1.58.95,2.39,1.46q4.84,3.1,10,6.76C380.71,249.52,388,255.17,395.94,261.34Z" transform="translate(0 -44.6)"/><path class="cls-6" d="M157.43,348.68c-.14-2-1.29-3.95.13-5,2.3-1.14,4.53-.13,6.77,1s4.41,2.17,6.81,1.16c.08-1.08.17-2.18.25-3.27q2.87.94,5.86,2.18l6,2.41c7.47-.44,15.34-.91,23.37-1.57-.14-1.2-.18-2.3.64-2.69,3.39-.69,8,.74,12.88,1.43l2.2-.42a5.44,5.44,0,0,0,1-2.49,42.77,42.77,0,0,1,6,1.22c12.53-2.3,25.67-4.75,39.3-7.6s27.89-6.14,42.38-10.29l4.49-2.36c1.48-.78,2.92-1.55,4.38-2.25a55.13,55.13,0,0,1,8.5-3.47c8.27-1.65,18.74,0,26.39.36a11.42,11.42,0,0,1,2.2-7.76,43.59,43.59,0,0,1,6-6.55,37.51,37.51,0,0,0,5.76-6.45,9.07,9.07,0,0,0,1.23-7.75l2.25.2,2.42.26a46.73,46.73,0,0,0,4.76.26c3,.08,5.41-.31,5.87-1.9a35.8,35.8,0,0,1,2.89-7.19,24.66,24.66,0,0,1,5.25-6.62,24.15,24.15,0,0,1,8.68-5,37.77,37.77,0,0,1,6-1.47,40.76,40.76,0,0,1,7.33-.33,20.78,20.78,0,0,1,3.12.71,28.47,28.47,0,0,1,3.24,1.34c2.16,1,4.3,2.22,6.27,3.38,3.9,2.52,7.11,4.74,8.89,4.53a1.83,1.83,0,0,0,1.36-2.05c0-.12,0-.25,0-.37a3,3,0,0,0-.16-.44c-.13-.3-.28-.62-.45-.95-.35-.65-.77-1.34-1.2-2-1.71-2.77-3.61-5.6-.7-5.93a126.28,126.28,0,0,0-22.33-9.55c-1.88-.64-3.69-1.08-5.55-1.6s-3.71-1-5.55-1.43l-5.41-1.1c-1.8-.34-3.65-.73-5.37-.94a206.47,206.47,0,0,0-39-1.87c-11.84.44-22.64,1.47-32.55,2.24l-7.23.52c-2.29.13-4.67.3-6.9.36-4.46.17-9,.22-13.71.11-3.21,1.21-11.08,2.09-21.94,2.33-5.4.14-11.62.08-18.28-.06s-13.87-.42-21.31-.73c-14.87-.61-30.65-1.3-44.8-1.45s-26.41.16-33.62.18l-2.59.35c-15.64.58-35.38,4.86-47.7,13a136.58,136.58,0,0,0-15.4,14.69,57.45,57.45,0,0,1,9.34,2.71c-1.5.43-3,.87-4.42,1.33s-2.77,1-4,1.59c-2.42,1.11-4.27,2.3-5,3.78-5.15,4.93-5.18,7.94-3.14,10.34s6.2,4.3,9.83,7c2.18.92,2.74,3.05,3.53,5.09s1.8,4,4.69,4.73c-1.65.51-2.85,1-4.06,1.47l-4.06,1.55c.52,1.55,2.76.12,4.89-1s4.2-1.74,4.08,1.15c-1.78,0-3.27.9-4.73,1.88a32.7,32.7,0,0,1-4.4,2.79,3.39,3.39,0,0,0,3,1A19.89,19.89,0,0,0,96,324.5c2.55-.74,5-1.18,5.56.92-.32.39-1.14.44-2.18.39s-2.27-.12-3.45-.11c-2.34,0-4.39.48-3.47,3.1.34,1,3.34-.14,4.84-.71a30.83,30.83,0,0,0-2.84,2.11,17.08,17.08,0,0,0-2.13,2.26,8.27,8.27,0,0,0-2,4.25,3.86,3.86,0,0,0,1.51,3.4,11.62,11.62,0,0,0,5.38,2.09,10.74,10.74,0,0,1-2.25.63c-.83.15-1.73.28-2.58.5a9.93,9.93,0,0,0-4.55,2l.06.06c1.4-.57,4.17-.84,5.37-1.45l-4.5,2.22c.62.53,1.26,1,1.91,1.52a9.07,9.07,0,0,0,3.86-.7l-2.9,1.42a54.7,54.7,0,0,0,4.84,3.1c.61.16,1.21.33,1.83.54s1.25.46,1.86.71l3.45,1.43c2.09.84,3.86,1.57,4.74,1.24C123.33,351.62,139.67,349.84,157.43,348.68Z" transform="translate(0 -44.6)"/><path class="cls-4" d="M172.8,155.32c1.18-1.11,1.35-3.24,3.4-2.23,5.88,3.71,6,11.41,11.92,15.08l2.17-1.53c3,4.47,5.93,9.33,9.15,14.08q11.59,10.26,24,19.72c.44-.89.94-1.62,1.93-1.19,3.66,2.36,7.53,7,12.07,11.31l2.39,1.45a3.29,3.29,0,0,0,2.09-.89c2.07,1.9,3.83,3.71,5.45,5.42a459.54,459.54,0,0,0,42.32,22.06,387.8,387.8,0,0,0,46.86,18l5.58.83,3.11.51c1.08.2,1.95.27,2.89.39l2.74.36c.88.11,1.75.22,2.62.35,1.73.27,3.43.58,5.06.94,9.44,2.74,20.34,8.83,29.05,12.54,2-9.12,25.07-5,24.15-15.38,5.79,2.45,14.49,6.14,15.89,3.89a23.59,23.59,0,0,1,9.73-9,27.24,27.24,0,0,1,8.38-2.48,30.09,30.09,0,0,1,5.56-.26c1.07.05,2.13.11,3.29.25.59.07,1.2.16,1.88.28.32.06.79.18,1.23.3l1.37.38a22,22,0,0,1,2.11.88c.3.16-.05,0-.18-.08l-.51-.27-1.08-.53c-1.47-.7-3.07-1.33-4.71-1.94-.81-.3-1.64-.58-2.48-.86l-.62-.21c0-.06-.15.08-.22.13l-.25.22a2,2,0,0,1-.24.2l-.16,0-1.25-.35-.62-.17c-.13-.32-.2-.83-.45-.74l-1.26-.26-2.45-.49c-.8-.15-1.59-.28-2.34-.4l-1.08-.17.17,0,.26.07.54.14,1.1.31,1.09.32,1.54.48c1.74.54,2.85.77,3.6.57,2.06-.71.62-2.58-1.7-4.64-.58-.52-1.21-1-1.91-1.57-.36-.27-.74-.54-1.15-.81a4.69,4.69,0,0,1-1-.74c-.93-.88-1-1.57.93-1.8l-1.1-.27-.55-.12-.26-.06.19,0c.7.11,1.45.25,2.18.4,1.47.3,2.95.65,4.44,1l1.11.28c.23-.09.27.44.37.76l0,.13s.05,0,.07,0l.14,0,.27.09,1.09.34.54.17a.74.74,0,0,0,.14,0l.23-.22.45-.42c.09-.11.1,0,.16,0l.13.05.27.1.54.2,1.08.41,2.14.84c1.43.57,2.84,1.15,4.21,1.77.68.31,1.36.63,2,1s-.12-.09-.37-.22l-1-.53c-.67-.34-1.35-.67-2-1l-1.76-.82-2.58-1.17-4.78-2-4.35-1.81c-2.84-1.17-5.66-2.3-8.46-3.41-11.21-4.43-22.35-8.55-33.48-12.63l-16.64-6.07-8.2-3L377,210l-3.9-1.5-1.84-.72-1.74-.69-1.24-.5-.46-.18-.11-.05h0c.07-.16-.14.27-.36.7l-1.19,2.36-1.19,2.37c-2.92,5.93,3.24-6.65,2.65-5.47h0l-.44-.22c-2.34-1.14-4.7-2.26-7-3.44s-4.68-2.46-7-3.75-4.64-2.65-6.95-4c-3.65-1.07-11.83-5-22.13-11.41A349.81,349.81,0,0,1,288.84,158c-12.38-10.05-24.75-21.22-35.23-31.19s-18.91-18.62-23.55-23.9l-1.89-1.72C222.94,95.6,217,89.58,210.92,84.06c-3-2.75-6.1-5.39-9.11-7.78a.79.79,0,0,0-.39-.1l-.34,0-.75-.06a9.29,9.29,0,0,1-1.55-.26,13.1,13.1,0,0,1-1.95-.26,4.19,4.19,0,0,1-.53-.14c-.23-.17-.5-.48-.75-.71-.52-.5-1-1-1.56-1.57-2.1-2.14-4.25-4.44-6.35-6.78-.62,3-1.26,5.85-2,8.36-1.76-5.57-3.35-11.34-5.6-13-3.71-5.49-6.08-6.25-8.22-4.8s-3.9,5.15-6.16,8.5c-1.55,4.33-7.07.75-8,7.18C156.55,68.5,156,66.45,155,62.3c-1.32.12-.11,3.2.88,6s1.71,5.37-.78,4.6c-.28-4.22-3.12-8.17-4.13-12.4-1.52,1.19-.84,4.92-.15,8.33s1.35,6.56-.41,6.77c-.74-1-.52-4.26-.61-7.2S149.23,62.79,147,63c-.9.07.17,4.34.73,6.44-2.56-6.21-5.19-11.07-7.44-12.83-1.12-.86-2.16-.87-3,.27s-1.49,3.42-1.79,6.88a61.93,61.93,0,0,1-1-8.13c-.13-1.52-.28-3.27-.48-5.16-.24-2.38-.39-4-.47-5.65l-.08,0c-.08.81-.12,1.81-.13,2.87s.07,2.74.11,3.69a41.66,41.66,0,0,0,.5,5.25c-.29-1.52-.57-3-.85-4.89l-.2-1.46-.19-1.73c-.08-1-.13-1.94-.13-2.9a16.67,16.67,0,0,0-1.7,2.17,22.32,22.32,0,0,0-.09,2.56V51.6l0,1.12a27.56,27.56,0,0,0,.43,3.87L131,55l-.29-1.69-.29-1.91-.07-.5-.07-.6-.13-1.21c-.28.64-.55,1.32-.8,2s-.51,1.18-.75,1.81-.47,1.17-.7,1.77-.42,1.16-.64,1.76c-.56,4.11-1.41,7.71-2,10.87s-.93,5.79-.48,7.48c1.51,6.93,3.14,13.59,5.16,20.59l.79,2.66c.32,1,.47,1.56,1.06,3.26,1,2.91,2.1,5.81,3.35,8.62a47.27,47.27,0,0,0,4.43,8.08c1.87,2.44,3.83,4.84,5.85,7.18L147,127c.6.66.73.83,1,1.17l1.61,1.86,3.23,3.71q3.24,3.69,6.54,7.32Q166,148.3,172.8,155.32Z" transform="translate(0 -44.6)"/><path class="cls-5" d="M345.82,160.72c.63-1,0-2.78,2.19-2.21a18,18,0,0,1,4.45,2.37c1.33,1,2.6,2,3.86,3a37.87,37.87,0,0,0,3.93,3,18.23,18.23,0,0,0,4.72,2.18l1.29-1.55c2.34,1.56,4.88,3.13,7.39,4.76,2.27,1.48,4.54,3,7,4.42a190.71,190.71,0,0,0,32,9.18c-.13-.76-.12-1.43,1.09-1.42,5,.67,11.27,2.43,16.73,3.53l2.44.07a2.37,2.37,0,0,0,1.09-1.37,39.69,39.69,0,0,1,5.81,1.59c9,.34,19.13,2.08,30.29,4.37,5.59,1.13,11.44,2.39,17.59,3.57,3.07.6,6.23,1.17,9.45,1.7l4.9.76c1.64.23,3.27.41,4.9.62l1.09-.05c.44,0,1,.11,1.49.17,1.18.22,2.45.47,3.87.85,2.77.69,5.82,1.64,8.89,2.6a118.73,118.73,0,0,1,19,4.75c8.6,3.64,18.53,10.38,26.5,14.85,2-6.75,23.27.58,22.56-7.7,5.3,2.94,13.28,7.25,14.57,5.69a17,17,0,0,1,8.91-5.57,28.07,28.07,0,0,1,7.43-.85,57.69,57.69,0,0,1,9.83,1,19.66,19.66,0,0,1,2.08.71c.7.28,1.44.64,2.1.94s1.34.67,2,1l1.72.91,1.29.69.46.24.17.09.08.05h0l-.08.42c-.11.62-.22,1.22-.32,1.81a13.39,13.39,0,0,1-.33,1.44c-.11.42-.21.83-.31,1.24q-.29,1.22-.48,2.34a46,46,0,0,0-.7,7.24c2.06-29.87.57-8.28,1-15h0l0,0,.08,0,.14-.08a1.16,1.16,0,0,0,.21-.16.6.6,0,0,0,.2-.35,1,1,0,0,0-.35-.78l-.22-.2h0c.24-3.62-2.17,31.47-1.15,16.61h0v-.2c0-.14,0-.28,0-.42s0-.56,0-.86c.06-1.18.17-2.5.36-3.9s.46-2.87.81-4.37c.1-.37.19-.75.29-1.12a11.25,11.25,0,0,0,.29-1.27q.27-1.56.57-3.12c.19-.9.38-1.79.56-2.68l0-.2c0-.13,0-.26.07-.38s-.09-.56-.11-.83a1.26,1.26,0,0,1,.52-1.37l-2.08-.91-.63-.27-.73-.33-1.5-.69-3.22-1.5-3.39-1.64c-4.61-2.26-9.41-4.69-14.25-7.15L586.83,186c-10-5.1-20.11-10.22-30.53-15.41-5.22-2.59-10.49-5.2-16.08-7.85-1.42-.67-2.8-1.33-4.3-2l-2.22-1-2.37-1-1.2-.52-1.31-.54-1.34-.55-.67-.27-.34-.14-.41-.15c-1.09-.4-2.16-.8-3.36-1.22-1.36-.42-2.73-.81-4.1-1.2l-2.57-.68a51.55,51.55,0,0,1-8.57-1.44c-3.95-.93-9-2.39-15-4.31s-13.17-4.31-21.26-6.73c-2-.61-4.14-1.19-6.25-1.79s-4.35-1.18-6.65-1.7c-4.47-1.1-9.53-2.09-14-2.81l-12.06-1.86c-3.58-.59-6.4-1.18-9.56-2a163.08,163.08,0,0,1-18.89-6.42l-4.63-1.88-2.28-1-1.13-.47-.56-.23-.48-.22c-2.54-1.14-4.93-2.17-7.18-3.33l-3.21-1.6L381.37,114l-2.57-1.42-2.21-1.34-2.06-1L355.45,99.07c-6.45-3.74-12.79-7.23-18.22-9.77l-4-1.46-4-1.49c-2.75-1-5.4-2-8.1-3.11,1.18,2.51,2.18,5,3.13,7.14-1.1-.91-2.15-1.87-3.16-2.78s-2-1.75-2.94-2.5c-1.87-1.49-3.41-2.64-4.64-2.92-2.73-1.48-4.47-2.26-5.75-2.38a2,2,0,0,0-2.35,1.29c-.75,1.81-.22,5.4,0,8.75.58,2-.54,2.7-1.48,3.61s-1.71,2-.33,4.73c-2.93-2.91-4.47-4.29-7.27-7.37-.43.26-.05.92.71,1.76.39.42.86.89,1.37,1.38L300,95.37c2.18,1.91,4,3.73,1.89,3.93A23.22,23.22,0,0,0,297.35,95a57.21,57.21,0,0,1-4.81-4.32c-.45,1.42,1.91,4.29,4.2,6.81s4.43,4.82,3.32,5.57c-1.05-.57-2.63-3.27-4.28-5.58s-3.25-4.42-4.72-3.58c-.58.32,2.34,3.53,3.86,5-2.55-2.11-4.86-4-6.89-5.37a17,17,0,0,0-4.81-2.77c-2.36-.65-2.88,1.33.14,7.37-1.47-1.69-3-4-4.58-6.24A49.72,49.72,0,0,0,274,85.32s0,0,0,.06c.7,1,1.57,2.42,2.44,3.83a29.77,29.77,0,0,0,2.45,3.62c-.88-1-1.71-2.16-2.56-3.26l-2.51-3.35a17.12,17.12,0,0,0-.18,2,32,32,0,0,0,3.4,5.5c-1.17-1.42-2.29-3-3.43-4.47a32.92,32.92,0,0,0,.64,5.73c.69,1.59,1.33,3.2,2,4.79s1.22,3.2,1.83,4.53a24.57,24.57,0,0,0,3.63,6.37,246.92,246.92,0,0,0,30.59,27.76A279.83,279.83,0,0,0,345.82,160.72Z" transform="translate(0 -44.6)"/><path class="cls-2" d="M94.32,285.23c-.23-1.19-1.59-2.13,0-3.05,2.54-1.13,5.1-1,7.66-.89s5.14.25,7.66-1c0-.65-.06-1.32-.09-2,4.31-.2,8.87-.15,13.45-.47,8-2.44,15.83-4.94,23.51-8-.41-.62-.69-1.23,0-1.71,3.12-1.47,7.86-2.11,12.61-3.34l2-1a2.51,2.51,0,0,0,.29-1.71c2.13-.6,4.06-1,5.86-1.37,21.71-11,43-23.38,65.43-37.37A108.31,108.31,0,0,1,246,213a108.51,108.51,0,0,1,11.71-5.16c4.13-1.59,8.33-3,11.84-4.53-3.93-5.79,11.24-16.79,4.85-21.49,4.6-2,11.37-5.19,10.84-7.11a17.7,17.7,0,0,1,0-10.06c1.12-3.81,3.75-7.9,8.62-12.57,4.09-3.13,12.15-4.64,13.17-6.53,1.58-3-7.79-.52-6.21-3.51q-6.39,3-12.63,6.09c-4.17,2.06-8.37,4-12.5,6.11l-6.19,3.12-6.22,3-12.39,6.15-12.5,5.95c-2.1,1-4.17,2-6.28,3l-6.35,2.85-6.38,2.84c-2.13,1-4.27,1.9-6.44,2.77q-6.49,2.67-13.09,5.27a31.28,31.28,0,0,1-2.83,1.71c-1.2.63-2.65,1.35-4.3,2.13-3.32,1.58-7.48,3.43-12.23,5.47s-10.17,4-15.9,6.25c-1.43.54-2.88,1.11-4.36,1.64l-4.5,1.57-9.21,3.17c-12.43,4.16-25.28,8-36.44,10.89-5.55,1.54-10.72,2.7-15.16,3.7S86.73,227.51,84,228l-2,.52c-6,1.1-12.59,2.67-18.9,4.37a104.15,104.15,0,0,0-17.2,5.92c-4.4,2.41-8.83,5.18-13.29,7.89,2.4.74,4.65,1.51,6.64,2.31-4.91.68-9.8,1.4-11.49,2.92-10,4.48-3.58,7,1.24,11.07,3.25,1.58-.21,5.36,4.72,6.65-3.33.5-5,.63-8.37,1-.05,1,2.49.37,4.8-.07s4.4-.77,3.5,1c-3.32-.18-6.74,1.48-10.1,1.9.78,1.22,3.72,1,6.45.88s5.23-.37,5.19,1c-1.71,1-10-2.07-10.11,1.26,0,.66,3.34.26,5,.06-10.17,2.53-15.5,6.46-5.46,8.57-3.33.39-8.19-.28-11.62.68l0,.05c1.76-.15,4.86.07,6.48-.13l-6,.71a15.42,15.42,0,0,0,1.22,1.2,20.48,20.48,0,0,0,4.63.09l-4,.47a25.83,25.83,0,0,0,3.8,2.52c5,1.39,10,3.76,12.61,3.45l3.93-.3,3.93-.4,7.85-.83,7.85-.89c2.62-.32,5.22-.73,7.82-1.1,5.21-.79,10.43-1.55,15.61-2.48S89.18,286.31,94.32,285.23Z" transform="translate(0 -44.6)"/><path class="cls-2" d="M508.52,318.31c-.67,1-.46,2.57-2.09,2.21-2.39-.82-4-2.63-5.5-4.44s-3.19-3.64-5.69-4.47l-1.32,1.49c-1.53-1.38-3.05-2.84-4.63-4.32s-3.26-3-5-4.45a207.36,207.36,0,0,0-22-9.49c-.12.73-.31,1.37-1.12,1.28-3.13-.89-6.87-3.32-10.94-5.33l-2-.49a2.51,2.51,0,0,0-1.28,1.11c-1.84-.87-3.42-1.75-4.86-2.59-10.85-2.53-21.47-4.65-32.5-6.92s-22.3-4.53-34-7a89.59,89.59,0,0,1-15.3-1.6c-6.83-2-14.69-6.72-21-9.59-1.69,6.79-18.55,3.41-18.15,11.16-4.19-1.92-10.49-4.8-11.57-3.14-3.26,5-9.14,9.88-21.8,8.41-4.74-1.08-10.57-6.2-12.59-5.76-3.18.71,4.13,6.22.95,6.92,32,15.71,64.65,26.6,97.7,40.49,3.11.47,10.23,2.73,19.44,6s20.66,7.55,31.71,12a304.23,304.23,0,0,1,30.46,14.08,205.46,205.46,0,0,1,20.09,12.45l1.64.91a182.35,182.35,0,0,0,15.76,9.56,86.93,86.93,0,0,0,16.7,7c2.52.48,5.09.87,7.69,1.22s5.24.62,7.9.86a59.31,59.31,0,0,1-4-5.87c4.25,2.45,8.72,4.73,11,4.42,5.48.84,7.11-.2,7.22-2.14s-1.3-4.82-2.07-7.75c-1.61-3,3-4.31.16-8,2.65,1.44,4,2,6.73,3.38.55-.83-1.66-1.54-3.61-2.31s-3.59-1.7-2-2.68a8.31,8.31,0,0,0,1.88,1.19,21,21,0,0,0,2.15.77,38.72,38.72,0,0,1,4.34,1.44c0-1.39-2.19-2.67-4.24-3.86s-3.9-2.4-3.13-3.46c.85.07,2.3,1.81,3.83,3.07s3.1,2.26,4,.86c.35-.55-2.25-1.83-3.55-2.46,4.27,1.42,7.84,1.65,9.5.9s1.51-2.65-1.36-5.73a45.23,45.23,0,0,1,4,2.35,14.49,14.49,0,0,0,4.27,1.86s0,0,0-.06c-1.28-.58-3.3-2-4.49-2.49l4.39,1.76c-.08-.52-.2-1-.33-1.56A12.23,12.23,0,0,0,557,357.6l2.87,1.15A28.84,28.84,0,0,0,558.4,355c-2.66-3.25-4.56-7.4-6.28-8.29C538.46,338.93,524.51,328.58,508.52,318.31Z" transform="translate(0 -44.6)"/><path d="M220.12,186.25l34.47,24.12c-14.46,5-25.92,8.61-37.09,12.95-18.55,7.21-36.76,15.33-55.43,22.2-9.52,3.51-9.93,9.76-8.3,18.73l3.91-8.43c2,5.76,3.18,9.23,4.78,13.87-19.07,2.94-36.83,5.09-54.33,8.59-11.15,2.23-22.41,5.33-32.68,10.09-12.22,5.65-13,11.56-6.4,23.63,5.66,10.32,12.18,20.34,16.42,31.23,4.5,11.55,13.3,8.84,21.8,8.29l-12.21-2.07L95,348c7.06-1,14.22-1.62,21.14-3.23,9.91-2.31,19.54-5.86,29.47-8,18.48-3.95,37-8.11,55.69-10.58,20.66-2.73,41.53-4.21,62.36-5.17,12.41-.57,24.93.68,37.37,1.53,12.94.88,25.84,2.21,38.75,3.43,11.44,1.08,22.86,2.53,34.32,3.39,20.62,1.54,41.28,2.61,61.9,4.25,4.27.34,8.4,2.34,12.6,3.58L448.3,342c-6.91,1.31-13.87,4-20.7,3.68-18.51-.78-37-2.7-55.42-4.38-7.42-.67-14.76-2.37-22.18-2.78-16.86-.94-33.76-1.28-50.63-2.05-9.66-.43-19.3-1.77-28.95-1.75-48.9.11-96.82,6.37-143.26,22.56-9,3.13-18.7,4.52-28.2,5.47-13.56,1.36-15.94-1.5-21.72-17.11A364.57,364.57,0,0,0,61.79,311c-.85-1.72-5.25-2.38-8-2.32-7.14.15-14.26,1.36-21.39,1.33-3.19,0-6.38-2-10.7-3.45,13.67-9,31.85-2.57,41.7-19l-14.57,1.61-.56-2.5c8.27-2.16,16.54-4.29,24.8-6.48,18.64-4.93,37.25-10,55.91-14.81,8.92-2.32,17.73-2.91,19.84-15.77.79-4.78,10.58-9,17-11.74,17.63-7.6,35.58-14.51,53.56-21.25,8.09-3,16.56-5,24.63-7.42l-25.15-21.5Z" transform="translate(0 -44.6)"/><path d="M133.29,102.76c4.89,7,10,13.84,14.57,21,2.12,3.32,3.28,7.25,4.31,9.62-23.38,6.36-45.13,12.21-66.83,18.24-6.21,1.73-12.54,3.45-18.3,6.24-2.48,1.2-4.7,4.94-5.18,7.84-.84,5-.23,10.32-.23,15.94l5.4-1.93c-.31,4.35-.59,8.25-.86,12.15l2-1,8.43,15.82-3.4-1.25c-3.86,2.92-10,5.19-11.08,8.9-1.86,6.64,3.44,8.9,10.33,7.07l0,2.67L6.24,243.43c1.85,11.88,2.68,24,6,35.31,1.26,4.22,8.44,6.69,13.06,10.06-13.22,7.25-19.28-2.06-21.44-13.74-1.52-8.23-2-16.65-3.57-24.89-1.33-7.17,1.4-12,7.9-13.89q19.63-5.72,39.62-10.16c5.85-1.31,9.59-1.69,7.91-10-1-4.94,3.36-11,4.7-14.79-1.37-8.75-2.7-16.65-3.79-24.59-.55-4-1.3-8.18-.74-12.1.45-3.17,2-7.94,4.31-8.81,15.89-6,32-11.51,48.25-16.59,11-3.44,22.22-5.93,32-8.49-8.57-17.14-17.42-34-25.41-51.26-3.43-7.41,2.24-25.64,8-29.92,8.81-6.54,25-7,33.07.74,10.71,10.29,20.45,21.64,30.06,33C192.69,91,199,96.65,210.4,96.15c10.7-.47,21.52,2.6,32.33,3.57,3.26.3,7.56-.17,9.87-2.11,8.3-7,16.74-14,23.67-22.3,11.94-14.23,28.83-15.74,42.06-2.82C325,79,332,85.4,339.21,91.34c2.13,1.74,5.72,2.47,8.6,2.38,8.08-.25,16.48,0,24.14-2.1,10.75-3,18.37-.06,26.26,7.15,5.53,5.06,12.92,8.1,19.52,12,7.4,4.36,14.84,8.65,22.64,13.18,4.32-11.25,9.66-23.44,22.76-30.22a47.53,47.53,0,0,1-2.66,5.05c-6.1,8.88-14.45,16.51-14.52,28.68,0,1.31-7.35,4.27-7.86,3.65-11-13.37-29.53-14.53-41.48-25.66-14.7-13.7-31.15-8.64-47.43-6.19-5.8.87-9.83,3.25-14.77-3.84-5.06-7.24-14.05-11.72-21.36-17.37-.68-.53-1.75-.59-2.36-1.17-3.22-3-7.18-9.2-9.37-8.62-7.36,2-16.16,2.91-19.41,12.32-2.46,7.1-10.4,13.69,1.11,20.63,2.2,1.33.87,8.51,1.17,13l-3,.88c-4-8-7.91-16.06-12-24.32-4.36,3.66-9.66,8.33-15.21,12.68-2.46,1.93-5.63,4.84-8.14,4.53-16.25-2-32.41-4.78-48.57-7.48a8.85,8.85,0,0,1-4.67-2.85c-8.92-10.19-18.43-20-26.3-30.95-8.14-11.34-22.29-18.22-36-14.67-2.34.61-5.65,3.08-6,5.08-1.47,9.75-6.29,19.65.22,29.48,1.26,1.91,1.32,4.62,2,7.24l4-2.88c.47,3.84.87,7.16,1.28,10.48Z" transform="translate(0 -44.6)"/><path d="M447,280c-9.18,1.93-19.78,1.65-21.87,14.5-.15.89-3.11,2.29-4.22,1.91-11.46-4-22.71-8.6-34.2-12.46-10.47-3.51-21.22-6.15-31.73-9.53-3.14-1-5.86-3.28-8.85-4.83-1.92-1-4.84-3-5.83-2.38-10,6.63-17.69-3.19-26.75-3.39-20.91-.46-41.81-1.78-62.71-2.79a36.13,36.13,0,0,1-4.52-.76c.49-10.39,26.81-21.17,46.28-17.61l-35.06,12L331,258l-43.38-23.63c.49-1.07,1-2.14,1.46-3.2,8.67,4,17.71,7.31,25.93,12.08,21.84,12.66,44.7,23,69,29.75a232.69,232.69,0,0,0,40.13,7.44c11,1.06,24-20.81,19-30.75-.81-1.63-4-2.08-5.68-2.9,1-2.73,2.07-5.46,3.43-9-25.18-9.42-49.87-18.14-74.13-27.95-11.74-4.75-22.65-11.54-33.94-17.4-14.87-7.72-30-14.94-44.5-23.33-10.95-6.34-21.11-14.09-31.4-21.52-1.1-.8-.73-3.64-1.05-5.53,1.78.46,4.2.34,5.25,1.48,7.78,8.43,16.85,13.62,28.06,17.31,10.74,3.53,20,11.66,30.86,18.39.21-3.18.34-5.12.55-8.32,2,1.77,4.19,2.77,4.75,4.35,4.28,12,13.32,18.42,26.93,18.9a6,6,0,0,1,3.46,1.07c20.19,17.24,46.18,21.38,69.74,31,5.43,2.22,11.08,4.21,16,7.31,2.67,1.69,4.69,5.28,5.75,8.43,1.94,5.72,2.94,11.76,4.46,18.22-6.64,4.09-6.72,7,1.08,11.62,2.64,1.56,5.22,3.22,7.83,4.83l-2.38,2.88L444.56,273c1.7,2.52,2.78,4.11,3.87,5.71Z" transform="translate(0 -44.6)"/><path d="M437.19,191.31c12.4,6.86,25.43,12.85,36.95,21,5.46,3.86,13.72,2,17.21,9.4.49,1,5.09-.13,7.69.28,6,.94,11.5,2.07,9.24,10.87-.28,1.08,7.13,5.81,11.1,6,9.93.46,19.93-.79,29.9-1.19,1.93-.08,3.89.61,5.83,1l0,3H522.53c11.4,9.63,20.14,17.28,29.18,24.57,9.91,8,20.14,15.61,30.12,23.53,5.21,4.13,10.28,4.12,14.2-1.08,5.31-7,10.66-14.27,14.5-22.15,3.08-6.32-1.61-10.41-7.43-12.79-4.59-1.87-9.5-3.24-13.63-5.85-2.44-1.54-3.62-5.07-5.69-8.2,11.08,5.29,20.59,10.09,30.33,14.36,4.72,2.07,9.86,3.2,14.85,4.64,6.92,2,9.77-1.77,10.56-7.87s1.07-12.39,1.94-18.54c1.13-8-3.88-7.85-9.34-7.06,0-3.48-.07-6.57,0-9.66.16-6.11,2.65-13.73-.11-17.84-2.12-3.16-10.9-1.48-16.56-2.71-11-2.39-21.9-5.26-32.8-8.1-.93-.24-1.53-1.72-1.64-4.92,10.05,1.69,20.11,3.3,30.15,5.07,5.09.9,10.1,2.67,15.22,3,8,.51,12.31,4.25,12.45,12.14s-1.28,15.89,7.83,20.24c1,.46,1.53,2.75,1.49,4.17-.56,17.56-4.22,34.53-13.88,49.24-2.13,3.24-10,2.44-15.12,4.09-3.88,1.26-8.53,2.54-10.95,5.4-4.49,5.32-7.6,11.8-12.48,19.74-4.31-2.28-10.71-4.2-15.17-8.27a483.9,483.9,0,0,0-75.92-57.21c-13.17-8-25.38-17.6-38.86-24.94-23.85-13-48-25.46-72.71-36.76-10.54-4.82-22.62-6.42-34.12-8.9a14.57,14.57,0,0,0-9.9,1.5c-7.82,4.94-13.23,2.13-18.81-4.5,1.23-.76,2.61-2.06,3-1.8,7.7,4.71,15.18-.76,22.71-.29,4.38.27,8.68,1.54,13.06,1.9,3.17.26,6.41-.23,9,.65l29.42,10.49,9.13,4.93,11.8,4.31Z" transform="translate(0 -44.6)"/><path d="M437.19,191.31l-8.82-5.24c-1.66-7.65-6.37-7-11.8-4.31l-9.13-4.93c-7.61-3.76-16.42-6.17-22.56-11.61-8.23-7.28-16.87-11.14-27.15-14.85-8.52-3.06-21.05-6.72-23.78-19.34l1.44-1.23c8.17-2.35,11.85,5.28,17.48,8.26,21.76,11.49,43.05,23.85,64.68,35.6,2.53,1.37,6.15.59,9.05,1.51,2,.65,3.72,2.44,5.49,3.81,1,.72,1.62,2.1,2.64,2.39,14.93,4.3,29.89,8.46,45.51,12.85-.14,2.28-.31,4.94-.5,8.06-12.15-3.72-25.35-1-34.9-11C443.63,190,439.8,191.24,437.19,191.31Z" transform="translate(0 -44.6)"/><path d="M74.94,218.87C88.19,214,99,209.66,110,206.2c4.22-1.32,9.09-.51,13.64-.92a26.13,26.13,0,0,0,5.83-1.48c17.32-5.73,34.53-11.82,52-17.08,5.14-1.55,11-.79,16.5-1.1.3,1.27.6,2.54.89,3.81-6.67,2.54-13.23,5.46-20,7.53-7.72,2.35-15.72,3.76-23.51,5.89-24,6.54-47.9,13.35-71.94,19.64C81.35,223,78.51,220.48,74.94,218.87Z" transform="translate(0 -44.6)"/><path d="M528,355.38c7.74,3,15.75,5.42,23.12,9.12,6.41,3.22,11.72,8.69,18.21,11.62,4.9,2.21,10.91,1.89,16.41,2.87a40.68,40.68,0,0,1,6.9,1.94c4.9,1.79,9.83,3.54,14.57,5.7,2.43,1.11,4.49,3.05,6.72,4.62-2.48,2.52-5.35,7.47-7.38,7.15-9.6-1.54-20-2.76-28.24-7.34-17.62-9.76-34.12-21.54-51.09-32.49Z" transform="translate(0 -44.6)"/><path d="M242.25,260.36l-40.65,4.48c-5.86.64-11.74,1.85-17.59,1.7-3.8-.09-7.55-2.17-10.57-5l55.7-5.65c3.11-15.51,21.91-26.26,41.65-22.86-7.87,3.36-14.57,6.22-21.27,9.06C236.62,247.58,236.62,247.57,242.25,260.36Z" transform="translate(0 -44.6)"/><path d="M593.44,306.11c15.81,1.39,23.69,11.71,32.65,19.82,6.51,5.9,14.82,11.12,15,21.6,0,2.06.41,4.6-.6,6.1-6.18,9.2-12.72,18.17-19.41,27.61-2.3-6.7.37-15.28,6-20.76,9.78-9.58,11-12.75,2.05-22.05-9.62-10.06-21.25-18.2-31.94-27.26C596.08,310.26,595.42,308.86,593.44,306.11Z" transform="translate(0 -44.6)"/><path d="M519.56,207.64l-31.1-2.43-7.7-9.08,1.86-2.17c26.26,11.41,54.53,7.17,81.86,10.19.06.92.13,1.85.19,2.77a80.3,80.3,0,0,1-7.95,1.31c-10.25.69-20.51,1.42-30.78,1.68C523.57,210,521.16,208.25,519.56,207.64Z" transform="translate(0 -44.6)"/><path d="M122.32,193l-25.84,4.54c-.24-1.31-.47-2.61-.7-3.92l91.85-18.13.78,4-57,10.38Z" transform="translate(0 -44.6)"/><path d="M122.32,193l9.05-3.13c5.85,2.36,1.6,4.21-.58,5.08-10.45,4.18-21,8-31.69,11.58-2.49,1-5,2.86-7.47,2.82-4.25-.07-8.49-1.31-12.73-2.06l-.76-2.49Z" transform="translate(0 -44.6)"/><path d="M505.52,149.25c-19.16-5.66-26.89-27.82-16.91-42.45,1.29-1.9.82-5.87-.22-8.28-1.78-4.16-4.65-7.86-7.07-11.74l2.47-2.14c3.41,4.19,8.06,7.92,9.84,12.72a18.2,18.2,0,0,1-1.15,13.71c-5.09,8.84-4.59,19.43,2.52,26.19C498.43,140.54,501.3,144.4,505.52,149.25Z" transform="translate(0 -44.6)"/><path d="M135,159.27,70.28,175.92c-.38-1.4-.75-2.79-1.12-4.18,5.18-1,8.3-5.69,15.76-3.35,4.52,1.41,11.08-2.87,16.47-5.21C111.73,158.7,122,154.57,135,159.27Z" transform="translate(0 -44.6)"/><path d="M218.88,187.65C211.29,184,203,181.2,196.3,176.3c-8.69-6.35-16.12-14.42-24.1-21.75l1.83-2.43q23.06,17.06,46.09,34.13Z" transform="translate(0 -44.6)"/><path d="M287,120.15c1.54,3.8,4,7.55,4.18,11.41.07,1.64-4.47,4.07-7.29,5.12-7.84,2.93-15.9,4.51-24,2l-.36-2.55,26.52-7-1.89-7.86Z" transform="translate(0 -44.6)"/><path d="M23.34,246c6.84-1,13.66-2.1,20.51-3,5.51-.73,11-1.42,16.59-1.7,1.43-.07,2.94,1.47,4.42,2.27-.88,1.35-1.64,3.76-2.66,3.88-11.13,1.28-22.29,2.36-33.47,3.1-1.87.12-3.87-1.66-5.81-2.56Z" transform="translate(0 -44.6)"/><path d="M369.25,120.3l10.66,4.12,3.19-7.18,7.64,2.54c-.32,5.66-.59,10.57-.87,15.48l-1.22,1.41L367.91,121.6Z" transform="translate(0 -44.6)"/><path d="M334,131c-6.66.57-6.62.55-8.95-7.57-.23-.81-1.44-1.41-2.27-2-4.91-3.35-9.85-6.66-15.43-10.42,8.73-4,24.21,7.23,28.09,18.74Z" transform="translate(0 -44.6)"/><path d="M448.43,278.73c13.18,6.51,7.76,17.95,6.83,27.78-.46,4.82-3.44,9.39-6.43,13.82-2.65-13.59,8.66-27.41-1.79-40.36Z" transform="translate(0 -44.6)"/><path d="M541.44,346.09c-15.3-10.43-31.89-19.26-43.41-34.28l1.9-2.42Q521.32,327,542.7,344.68Z" transform="translate(0 -44.6)"/><path d="M309.4,220.88l-33.06-19.27c6.26-4.23,27.86,6.32,35,16.55Z" transform="translate(0 -44.6)"/><path d="M542.7,344.68c15.74,6.6,26,19.48,38,30.35l-2.31,2.7-37-31.64Z" transform="translate(0 -44.6)"/><path d="M389.87,135.26c5.29,2,10.69,3.67,15.84,5.94,4.52,2,8.78,4.57,13.11,7,2.33,1.28,4.59,2.69,6.88,4l-2.19,3.89-34.86-19.4Z" transform="translate(0 -44.6)"/><path d="M393.09,250l29.57,11C417,266.43,403.26,262.21,393.09,250Z" transform="translate(0 -44.6)"/><path d="M221.19,246.52,196.46,256c-.37-.93-.74-1.86-1.1-2.79,7.19-5.73,14.06-12.25,24.73-9.71Z" transform="translate(0 -44.6)"/><path d="M133.58,90.05c.54-2,.44-5.08,1.75-5.93,2.34-1.52,6.45-3.16,8.13-2.1,1.87,1.18,2.89,5.62,2.24,8.1-.38,1.41-4.81,1.93-7.49,2.45-1,.19-2.2-.75-3.31-1.17Z" transform="translate(0 -44.6)"/><path d="M388.51,195.56c4.56-9.59,10.89-2.75,15.77-2.67,1.49,0,3.74,6.36,4,9.91.11,1.91-3.37,4-6,5.36C403.79,196.91,401.6,194.67,388.51,195.56Z" transform="translate(0 -44.6)"/><path d="M487,329.43c-5.64,3.93-14.4.73-24-8.75C469.06,318.44,474.28,320.34,487,329.43Z" transform="translate(0 -44.6)"/><path d="M451.89,222.58c-6.85,3.27-12.67,7-17.38-1.52C440.24,213.57,441,213.6,451.89,222.58Z" transform="translate(0 -44.6)"/><path d="M257,286.62l-26.49,3.06-.47-3.59,26.53-3.74Z" transform="translate(0 -44.6)"/><path d="M554.77,175c-7.59,2.48-14.51,2.33-18.87-7.83l19.39,5.14C555.12,173.22,555,174.12,554.77,175Z" transform="translate(0 -44.6)"/><path d="M163.77,147.87c-1.49,2.9-2.28,7-4.18,7.65-6.56,2.08-13.52,6.61-19.71,1.21Z" transform="translate(0 -44.6)"/><path d="M369.52,110.24l-11.4-9.4L375,95.56l1.2,3-7.32,4c.62,2,1.28,4.21,1.94,6.38Z" transform="translate(0 -44.6)"/><path d="M220.8,166.74c10-1.94,21.36,5.09,20.07,12.68Z" transform="translate(0 -44.6)"/><path d="M556.76,239.91c7.52-8.25,7.52-8.25,14.1,8.2Z" transform="translate(0 -44.6)"/><path d="M540.43,308.86c1.94,4.07,3.79,6.27,3.77,8.45,0,1.67-2.42,3.3-3.76,4.95-1.83-1.81-4.84-3.45-5.14-5.49C535,315,537.78,312.71,540.43,308.86Z" transform="translate(0 -44.6)"/><path d="M266.63,193.12l-18.32-10.7,1.05-2.92c4.3,1.54,8.89,2.58,12.78,4.84C264,185.42,264.53,188.79,266.63,193.12Z" transform="translate(0 -44.6)"/><path d="M299,88.26l-11.2-15.33c.52-.69,1.05-1.38,1.58-2.06,4.23,3.75,8.6,7.37,12.49,11.45C302.37,82.82,300.24,85.8,299,88.26Z" transform="translate(0 -44.6)"/><path d="M350.83,236l18.78,5.85c-.23,1.14-.46,2.29-.7,3.44l-19.27-4.69Z" transform="translate(0 -44.6)"/></g></g></g></svg>