<svg xmlns="http://www.w3.org/2000/svg" viewBox="0 0 580.21 720.13"><defs><style>.cls-1{fill:#f280ad;}.cls-2{fill:#f0649f;}.cls-3{fill:#7eccbc;}.cls-4{fill:#b3dfd5;}.cls-5{fill:#dbdacd;}.cls-18,.cls-6,.cls-7{fill:#faf6e6;}.cls-7{opacity:0.9;}.cls-8{fill:#94d3c6;}.cls-9{fill:none;}.cls-10{fill:#a5dace;}.cls-11{fill:#d5bc59;}.cls-12{fill:#f9da66;}.cls-13{fill:#c7b053;}.cls-14{fill:#bee3db;}.cls-15{fill:#d7d6c9;}.cls-16{fill:#e3e2d4;}.cls-17{fill:#f16fa5;}.cls-18{opacity:0.6;}.cls-19{fill:#fff;opacity:0.5;}.cls-20{fill:#231f20;stroke:#fff;stroke-miterlimit:10;stroke-width:2px;}</style></defs><title>gallery_nav</title><g id="Layer_2" data-name="Layer 2"><g id="Layer_1-2" data-name="Layer 1"><path class="cls-1" d="M364.7,336.32,3.93,53.4V0L62.46.15l324,327.3Zm-63.06-84.67L53.3,12.18V70.6L301.64,277.2Z"/><polygon class="cls-2" points="330.94 325.44 280.44 290.1 3.93 96.63 3.93 53.4 3.93 53.4 347.76 323.04 330.94 325.44"/><polygon class="cls-3" points="54.49 569.09 76.62 570.39 84.17 562.08 83.3 363.95 75.29 351.93 54.49 357.41 54.49 569.09"/><polygon class="cls-4" points="76.62 570.39 104.97 556.6 104.09 358.47 75.29 351.93 76.62 570.39"/><polygon class="cls-5" points="554.81 159.76 554.81 113.25 326.77 184.21 301.64 219.31 323.44 244.35 546.26 197.1 554.81 159.76"/><polygon class="cls-6" points="554.81 113.25 301.64 181.14 301.64 219.31 554.81 159.76 554.81 113.25"/><polygon class="cls-7" points="530.95 385.32 453.35 392.97 453.35 520.43 524.25 520.43 530.95 385.32"/><polyline class="cls-8" points="328.44 465.64 172.22 478.42 172.22 478.42 174.9 441.47 256.63 440.85 328.9 446.07 330.11 452.58"/><polyline class="cls-8" points="461.58 455.75 537.14 461.24 551.26 468.81 541.09 498.67 476.21 493.96"/><line class="cls-9" x1="453.35" y1="521.4" x2="358.98" y2="677.46"/><polyline class="cls-10" points="478.08 463.5 551.26 468.81 551.26 505.96 478.14 500.65"/><polygon class="cls-11" points="475.94 605.95 468.04 664.69 437.07 0.15 486.1 0.02 475.94 605.95"/><polygon class="cls-12" points="468.04 664.69 408.16 651.05 408.16 0.76 472.68 0.76 468.04 664.69"/><polygon class="cls-13" points="447.96 630.61 428.23 626.74 428.23 0.15 447.96 0.15 447.96 630.61"/><polyline class="cls-10" points="328.9 489.68 172.22 478.42 174.9 441.47 330.11 452.58"/><path class="cls-3" d="M158.67,521.41h0l22.78,59.7s112.49-.93,149.81-8.64c69.11-14.28,93.38-198.17,93.38-198.17L533.22,364l7-15.69h0l1.12-66.48.3-17.55L159.27,302.7l-13.18,91.74h13.18l84.66-6.3,3.48-33,121.84-11.34s14.43,73.74-31.06,143.94C303,542.06,158.67,521.41,158.67,521.41Z"/><path class="cls-14" d="M158.67,519.85l5.68,60.95s116.41-2.18,153.73-9.89c69.11-14.27,95.31-210.75,95.31-210.75l126.83-11.81,1.42-84L146.09,301.15v91.74l84.84-7.9,3.6-34.56,121.84-11.34S370.5,416,325,486.21C289.84,540.5,158.67,519.85,158.67,519.85Z"/><polyline class="cls-15" points="504.91 527.71 506.42 540.71 506.42 616.3 354.32 588.35 354.32 522.09"/><polyline class="cls-15" points="354.32 522.09 370.36 512.56 504.91 527.71"/><polyline class="cls-15" points="525.91 530.07 560.92 534.01 570.44 547.5 572.2 628.39 530.95 620.81 525.91 596.72 525.91 530.07"/><polyline class="cls-15" points="227.99 563.6 47.72 548.63 17.8 479.87 53.48 476.89 349.89 511.29 349.89 568.96 331.62 584.17"/><line class="cls-9" x1="554.81" y1="159.77" x2="580.21" y2="182.96"/><line class="cls-16" x1="506.42" y1="616.3" x2="354.32" y2="588.35"/><polyline class="cls-16" points="530.95 543.71 570.44 547.5 572.2 628.39 530.95 620.81"/><polyline class="cls-16" points="506.42 616.3 354.32 588.35 354.32 522.09 506.42 540.71"/><polyline class="cls-16" points="331.62 584.17 17.91 526.52 17.8 480.91 331.6 519.31"/><line class="cls-9" x1="554.81" y1="113.25" x2="579.93" y2="135.44"/><polygon class="cls-11" points="112 625.68 105.56 628.84 105.56 290.72 112 307.42 112 625.68"/><polygon class="cls-12" points="105.56 628.84 94.02 625.28 94.02 293.13 105.56 290.72 105.56 628.84"/><polygon class="cls-12" points="66.53 616.81 60.57 614.98 60.57 300.12 66.53 298.88 66.53 616.81"/><polygon class="cls-11" points="72.98 614.09 66.53 616.81 66.53 298.88 72.98 310.12 72.98 614.09"/><polygon class="cls-11" points="48.71 606.54 42.27 609.34 31.16 605.91 42.27 303.94 48.71 312.28 48.71 606.54"/><polygon class="cls-12" points="42.27 609.34 24.45 603.84 24.45 307.67 42.27 303.94 42.27 609.34"/><path class="cls-2" d="M184.87,720.13,23,720.05A76.35,76.35,0,0,1,4,697.11V528.82l-.33.47c11.92-17.38,35.12-24.63,80.21-24.63A177.31,177.31,0,0,1,261.18,682c0,15.89-.2,28.37-1,38.12Zm5.87-35A106.86,106.86,0,0,0,83.87,578.25,105.16,105.16,0,0,0,3.94,614.18v106H184.87A106.52,106.52,0,0,0,190.74,685.11Z"/><path class="cls-1" d="M3.94,720.09h0V517.75C15,510.07,31.59,506,56.07,506A177.31,177.31,0,0,1,233.38,683.27c0,15.58-.75,27.59-2.4,36.77Zm159-33.67A106.87,106.87,0,0,0,56.07,579.55c-25.38,0-52.14,10.5-52.14,10.5h0V720.13h.9l152.71-.08A106.87,106.87,0,0,0,162.94,686.42Z"/><line class="cls-9" x1="553.39" y1="348.35" x2="424.64" y2="372.74"/><polygon class="cls-1" points="354.32 547.22 340.61 544.99 340.61 537.2 354.32 539.43 354.32 547.22"/><polygon class="cls-2" points="345.84 534.15 354.32 535.43 354.32 539.43 340.61 537.2 345.84 534.15"/><polygon class="cls-1" points="354.32 569.2 340.61 566.97 340.61 559.18 354.32 561.41 354.32 569.2"/><polygon class="cls-2" points="344.98 556.01 354.32 557.42 354.32 561.41 340.61 559.18 344.98 556.01"/><polygon class="cls-1" points="506.42 562.88 529.21 566.13 529.21 598.7 506.42 595.46 506.42 562.88"/><polygon class="cls-2" points="506.42 552.5 526.2 555.37 529.21 566.13 506.42 562.88 506.42 552.5"/><polygon class="cls-2" points="280.44 259.56 301.64 277.2 301.64 251.65 280.44 255.97 280.44 259.56"/><polygon class="cls-17" points="280.44 255.97 53.3 64.8 53.3 12.18 301.64 251.65 280.44 255.97"/></g><g id="Layer_5" data-name="Layer 5"><polyline class="cls-18" points="563.38 0 579.93 0 579.93 64.33 553.67 72.68 552.61 69.07 563.38 0"/></g><g id="Layer_7" data-name="Layer 7"><rect class="cls-19" width="579.04" height="720.04"/><g id="Layer_2-2" data-name="Layer 2"><g id="Layer_1-2-2" data-name="Layer 1-2"><path class="cls-20" d="M162.81,361.51V504.27H147.45V361.51h15.36m2-2H145.45V506.27h19.36Z"/><path class="cls-20" d="M202,378.45a16.21,16.21,0,0,1,11.89,4.89q4.08,4.16,4.1,12.29v31.13H206.28V406.13c0-5.62-.26-9.35-.76-11.19a7.73,7.73,0,0,0-2.63-4.22,7.37,7.37,0,0,0-4.65-1.45,8.67,8.67,0,0,0-6.15,2.4,12.79,12.79,0,0,0-3.56,6.6,51.72,51.72,0,0,0-.52,9.55v18.9H176.19V379.66H188v4.83a28.44,28.44,0,0,1,7.28-4.72,17.56,17.56,0,0,1,6.68-1.32m0-2a19.88,19.88,0,0,0-7.43,1.47,24.15,24.15,0,0,0-4.53,2.52v-2.78H174.19v51.1H190v-20.9c0-5.88.25-8.19.46-9.1a11,11,0,0,1,3-5.63,6.66,6.66,0,0,1,4.77-1.86,5.46,5.46,0,0,1,3.43,1,5.76,5.76,0,0,1,1.92,3.16c.31,1.15.69,3.93.69,10.67v22.66H220V395.63c0-5.94-1.57-10.55-4.68-13.69A18.16,18.16,0,0,0,202,376.45Z"/><path class="cls-20" d="M242.64,362.27v17.39h7v10.17h-7v36.93H230.82V389.83h-6.06V379.66h6.06V362.27h11.82m2-2H228.82v17.39h-6.06v14.17h6.06v36.93h15.82V391.83h7V377.66h-7Z"/><path class="cls-20" d="M278.13,378.45q11.13,0,18.09,7.12t7,18.81v2.25h-38a12.61,12.61,0,0,0,4.39,8,13.79,13.79,0,0,0,9.11,3A15.8,15.8,0,0,0,290.11,413l10,4.67a23.65,23.65,0,0,1-8.91,7.82A28.08,28.08,0,0,1,278.86,428q-11.1,0-18.05-7a23.76,23.76,0,0,1-7-17.51q0-10.78,7-17.9a23.28,23.28,0,0,1,17.42-7.12m-12.52,18.83h25.62a11.9,11.9,0,0,0-4.62-6.4,13.34,13.34,0,0,0-8-2.47,14.13,14.13,0,0,0-8.67,2.82,15.34,15.34,0,0,0-4.33,6.1m12.42-20.87a25.37,25.37,0,0,0-18.85,7.72,26.64,26.64,0,0,0-7.52,19.3,25.75,25.75,0,0,0,7.55,18.92c5,5,11.56,7.58,19.47,7.58A30,30,0,0,0,292,427.27a25.7,25.7,0,0,0,9.68-8.45l1.37-1.95-2.16-1-10-4.67-1.25-.59-1,1a13.7,13.7,0,0,1-10,4.07,11.76,11.76,0,0,1-7.83-2.5,10,10,0,0,1-3.11-4.45h37.36v-4.25c0-8.34-2.53-15.13-7.54-20.25s-11.58-7.72-19.52-7.72ZM269,395.37a9.46,9.46,0,0,1,2.19-2.49,12.11,12.11,0,0,1,7.48-2.38,11.33,11.33,0,0,1,6.84,2.09,10.5,10.5,0,0,1,2.7,2.78Z"/><path class="cls-20" d="M330.45,378.45a11,11,0,0,1,4.8,1.21l-3.7,10.17a8.29,8.29,0,0,0-3.42-1q-2.73,0-4.62,3.37t-1.88,13.25v21.29H310V379.66h10.12v5.93a12.54,12.54,0,0,1,4.38-5.32,10.49,10.49,0,0,1,6-1.82m0-2a12.53,12.53,0,0,0-7.08,2.15,10.71,10.71,0,0,0-1.27,1v-1.9H308v51.1h15.73V405.47c0-7.69.89-10.9,1.63-12.24,1.31-2.34,2.48-2.34,2.87-2.34a6,6,0,0,1,2.52.82l2,1,.77-2.12,3.68-10.17.61-1.7-1.63-.78A13.12,13.12,0,0,0,330.45,376.45Z"/><path class="cls-20" d="M345.68,360.27a7.25,7.25,0,0,1,5.33,2.25,7.53,7.53,0,0,1,2.22,5.45,7.41,7.41,0,0,1-2.2,5.39,7.41,7.41,0,0,1-10.64,0,7.51,7.51,0,0,1-2.22-5.52,7.53,7.53,0,0,1,7.51-7.53m5.91,19.39v47.1H339.77v-47.1h11.82m-5.91-21.39a9.53,9.53,0,0,0-9.51,9.53,9.53,9.53,0,0,0,2.79,6.92,9.42,9.42,0,0,0,13.32.22l.17-.17a9.77,9.77,0,0,0,0-13.65A9.22,9.22,0,0,0,345.68,358.27Zm7.91,19.39H337.77v51.1h15.82v-51.1Z"/><path class="cls-20" d="M384.45,378.45A25.08,25.08,0,0,1,397,381.78a24.48,24.48,0,0,1,12.47,21.39,24.79,24.79,0,0,1-3.32,12.46,23.83,23.83,0,0,1-9,9.07A24.93,24.93,0,0,1,384.45,428a23.45,23.45,0,0,1-17.29-7.21,25,25,0,0,1,1-35.88,23.63,23.63,0,0,1,16.33-6.43M384.6,417a12.28,12.28,0,0,0,9.24-3.85,15.2,15.2,0,0,0,.06-19.76,13,13,0,0,0-18.39-.05l0,.05a13.58,13.58,0,0,0-3.66,9.8,13.78,13.78,0,0,0,3.62,10A12,12,0,0,0,384.6,417m-.15-40.52a26.76,26.76,0,0,0,0,53.52A27.11,27.11,0,0,0,398,426.44a26,26,0,0,0,9.77-9.82,26.9,26.9,0,0,0,3.64-13.45A26.47,26.47,0,0,0,398,380,27.19,27.19,0,0,0,384.45,376.45ZM384.6,415a10.11,10.11,0,0,1-7.72-3.18,11.79,11.79,0,0,1-3.07-8.58,11.55,11.55,0,0,1,3.11-8.42,11,11,0,0,1,15.53-.05,13.22,13.22,0,0,1-.07,17,10.24,10.24,0,0,1-7.79,3.23Z"/><path class="cls-20" d="M436.77,378.45a11.08,11.08,0,0,1,4.81,1.21l-3.68,10.17a8.29,8.29,0,0,0-3.42-1q-2.73,0-4.61,3.37T428,405.45v21.29H416.3V379.66h10.15v5.93a12.47,12.47,0,0,1,4.35-5.32,10.59,10.59,0,0,1,6-1.82m0-2a12.55,12.55,0,0,0-7.08,2.15,13.48,13.48,0,0,0-1.26,1v-1.9H414.3v51.1H430v-21l0-2.33c0-7.69.89-10.9,1.63-12.24,1.32-2.34,2.48-2.34,2.87-2.34a6,6,0,0,1,2.52.82l2,1,.77-2.12,3.68-10.25.61-1.7-1.61-.78a13,13,0,0,0-5.68-1.41Z"/><path class="cls-20" d="M217.45,436.13v65.28H205.63v-5a23.2,23.2,0,0,1-6.94,4.74,19.35,19.35,0,0,1-7.54,1.45,21,21,0,0,1-15.78-7.08,24.65,24.65,0,0,1-6.66-17.59q0-10.9,6.44-17.88a20.53,20.53,0,0,1,15.65-7,20,20,0,0,1,8,1.6,21.82,21.82,0,0,1,6.87,4.81V436.13h11.78m-24.2,55.67a12.14,12.14,0,0,0,9.2-3.88,14.13,14.13,0,0,0,3.7-10.15,13.77,13.77,0,0,0-3.67-10,12.31,12.31,0,0,0-9.27-3.81,11.89,11.89,0,0,0-9.1,3.87,15.44,15.44,0,0,0,.06,20,12,12,0,0,0,9.08,3.94m26.2-57.64H203.63v21a21.65,21.65,0,0,0-12.83-4.08,22.52,22.52,0,0,0-17.12,7.61c-4.62,5-7,11.48-7,19.24a26.7,26.7,0,0,0,7.2,19,23,23,0,0,0,17.24,7.71,21.56,21.56,0,0,0,8.31-1.6,22.49,22.49,0,0,0,4.17-2.34v2.73h15.85Zm-26.2,55.67a9.94,9.94,0,0,1-7.62-3.31,13.34,13.34,0,0,1-.06-17.22,9.92,9.92,0,0,1,7.64-3.24,10.33,10.33,0,0,1,7.83,3.2,11.79,11.79,0,0,1,3.11,8.56,12.21,12.21,0,0,1-3.12,8.78,10.14,10.14,0,0,1-7.78,3.25Z"/><path class="cls-20" d="M249.79,453.1q11.1,0,18.09,7.12t7,18.81l-.05,2.25h-38a12.56,12.56,0,0,0,4.4,8,13.79,13.79,0,0,0,9.11,3,15.76,15.76,0,0,0,11.38-4.63l10,4.68a23.73,23.73,0,0,1-8.92,7.81,27.82,27.82,0,0,1-12.35,2.48q-11.07,0-18-7a23.76,23.76,0,0,1-7-17.51q0-10.77,6.94-17.9a23.38,23.38,0,0,1,17.43-7.12M237.36,472H263a11.9,11.9,0,0,0-4.62-6.4,13.34,13.34,0,0,0-8-2.47,14.06,14.06,0,0,0-8.67,2.77,15.36,15.36,0,0,0-4.34,6.1m12.43-20.87a25.35,25.35,0,0,0-18.86,7.73c-5,5.11-7.51,11.6-7.51,19.29A25.76,25.76,0,0,0,231,497c5,5,11.56,7.58,19.46,7.58a30.16,30.16,0,0,0,13.22-2.73,25.77,25.77,0,0,0,9.67-8.46l1.38-1.95-2.16-1-10-4.67-1.25-.59-1,1a13.74,13.74,0,0,1-10,4.06,11.71,11.71,0,0,1-7.83-2.5,10,10,0,0,1-3-4.51h37.36v-2l.05-2.25c0-8.33-2.54-15.13-7.54-20.25s-11.59-7.72-19.52-7.72ZM240.7,470a9.14,9.14,0,0,1,2.19-2.49,12.09,12.09,0,0,1,7.48-2.38,11.47,11.47,0,0,1,6.84,2.09A10.47,10.47,0,0,1,259.9,470Z"/><path class="cls-20" d="M307.82,453.1A16.19,16.19,0,0,1,319.7,458q4.11,4.15,4.11,12.3v31.12H312.12V480.79c0-5.63-.26-9.36-.76-11.2a7.73,7.73,0,0,0-2.63-4.22,7.44,7.44,0,0,0-4.64-1.45,8.69,8.69,0,0,0-6.16,2.4,12.76,12.76,0,0,0-3.56,6.64,53.53,53.53,0,0,0-.52,9.55v18.9H282V454.27h11.81v4.83a27.94,27.94,0,0,1,7.29-4.71,17.35,17.35,0,0,1,6.68-1.33m0-2a19.88,19.88,0,0,0-7.43,1.47,24.23,24.23,0,0,0-4.54,2.52v-2.78H280v51.1h15.81v-20.9c0-5.87.26-8.19.47-9.1a10.81,10.81,0,0,1,3-5.62,6.66,6.66,0,0,1,4.79-1.87,5.37,5.37,0,0,1,3.42,1,5.71,5.71,0,0,1,1.93,3.15c.31,1.15.68,3.93.68,10.68v22.62h15.69V470.27c0-6-1.58-10.56-4.68-13.7a18.21,18.21,0,0,0-13.31-5.49Z"/><path class="cls-20" d="M350.81,437v17.31h7v10.18h-7v36.92H339V464.49h-6.06V454.27H339V437h11.81m2-2H337v17.31h-6.06v14.18H337v36.92h15.81V466.49h7V452.27h-7Z"/><path class="cls-20" d="M368.76,434.92a7.25,7.25,0,0,1,5.33,2.25,7.53,7.53,0,0,1,2.22,5.46,7.52,7.52,0,0,1-12.71,5.52,1.59,1.59,0,0,1-.13-.13,7.66,7.66,0,0,1,5.29-13m5.9,19.3v47.1H362.85v-47.1h11.81m-5.9-21.39A9.66,9.66,0,0,0,362,449.33a9.42,9.42,0,0,0,13.32.22l.17-.17a9.74,9.74,0,0,0,0-13.65,9.21,9.21,0,0,0-6.75-2.85Zm7.9,19.39H360.85v51.1h15.81v-51.1Z"/><path class="cls-20" d="M398.64,437v17.31h7v10.18h-7v36.92H386.83V464.49h-6.06V454.27h6.06V437h11.81m2-2H384.83v17.31h-6.06v14.18h6.06v36.92h15.81V466.49h7V452.27h-7Z"/><path class="cls-20" d="M456.67,454.27l-29.5,64.33H415l9.68-20.75-17.9-43.58h12.08l12.23,29.55,13.5-29.55h12.11m3.12-2H443.27l-.53,1.17-11.59,25.41-10.48-25.3-.51-1.28H403.77L404.9,455l17.55,42.81-9.31,20-1.33,2.85h16.64l.53-1.17,29.47-64.37,1.3-2.84Z"/></g></g></g></g></svg>