<svg xmlns="http://www.w3.org/2000/svg" viewBox="0 0 309.22 158.37"><title>interior_identity_logo</title><g id="Layer_2" data-name="Layer 2"><g id="Layer_1-2" data-name="Layer 1"><rect y="1.24" width="15.36" height="142.76"/><path d="M28.74,19.39H40.56v4.83a28.64,28.64,0,0,1,7.28-4.72,17.67,17.67,0,0,1,6.68-1.32,16.18,16.18,0,0,1,11.89,4.89q4.09,4.16,4.1,12.29V66.49H58.83V45.86c0-5.62-.26-9.35-.76-11.19a7.67,7.67,0,0,0-2.63-4.22A7.37,7.37,0,0,0,50.79,29a8.69,8.69,0,0,0-6.15,2.4A12.8,12.8,0,0,0,41.08,38a53,53,0,0,0-.52,9.55v18.9H28.74Z"/><path d="M83.37,2H95.19V19.39h7V29.56h-7V66.49H83.37V29.56H77.31V19.39h6.06Z"/><path d="M155.7,46.36h-38a12.66,12.66,0,0,0,4.39,8,13.82,13.82,0,0,0,9.11,3,15.76,15.76,0,0,0,11.39-4.63l10,4.67a23.53,23.53,0,0,1-8.91,7.82,28,28,0,0,1-12.34,2.53q-11.09,0-18.05-7a23.78,23.78,0,0,1-7-17.51q0-10.79,7-17.9a23.32,23.32,0,0,1,17.42-7.12q11.13,0,18.09,7.12t7,18.81Zm-11.82-9.31a11.84,11.84,0,0,0-4.62-6.4,13.33,13.33,0,0,0-8-2.47A14.14,14.14,0,0,0,122.59,31a15.43,15.43,0,0,0-4.33,6.1Z"/><path d="M162.5,19.39h10.12v5.93A12.64,12.64,0,0,1,177,20a10.55,10.55,0,0,1,6-1.82,11,11,0,0,1,4.8,1.21L184.1,29.56a8.17,8.17,0,0,0-3.42-1q-2.73,0-4.62,3.37t-1.88,13.25l0,2.29v19H162.5Z"/><path d="M198.23,0a7.23,7.23,0,0,1,5.33,2.25,7.48,7.48,0,0,1,2.22,5.45,7.36,7.36,0,0,1-2.2,5.39,7.12,7.12,0,0,1-5.26,2.23,7.22,7.22,0,0,1-5.38-2.27,7.59,7.59,0,0,1-2.22-5.52,7.24,7.24,0,0,1,2.2-5.32A7.24,7.24,0,0,1,198.23,0Zm-5.91,19.39h11.82v47.1H192.32Z"/><path d="M237,18.18a25,25,0,0,1,12.53,3.33A24.44,24.44,0,0,1,262,42.9a24.69,24.69,0,0,1-3.32,12.46,23.81,23.81,0,0,1-9,9.07A24.92,24.92,0,0,1,237,67.7a23.48,23.48,0,0,1-17.29-7.21A23.88,23.88,0,0,1,212.58,43a23.79,23.79,0,0,1,8.09-18.39A23.65,23.65,0,0,1,237,18.18Zm.19,11.12A12.16,12.16,0,0,0,228,33.14a13.6,13.6,0,0,0-3.66,9.8,13.84,13.84,0,0,0,3.62,10,12.07,12.07,0,0,0,9.17,3.81,12.26,12.26,0,0,0,9.24-3.85,13.77,13.77,0,0,0,3.68-9.91,13.69,13.69,0,0,0-3.62-9.85A12.26,12.26,0,0,0,237.18,29.3Z"/><path d="M268.85,19.39H279v5.93A12.55,12.55,0,0,1,283.35,20a10.57,10.57,0,0,1,6-1.82,11.06,11.06,0,0,1,4.81,1.21l-3.68,10.17a8.17,8.17,0,0,0-3.42-1q-2.73,0-4.61,3.37t-1.88,13.25l0,2.29v19H268.85Z"/><path d="M58.18,75.86H70v65.28H58.18v-5a23.22,23.22,0,0,1-6.94,4.74,19.33,19.33,0,0,1-7.54,1.45,21,21,0,0,1-15.78-7.08,24.68,24.68,0,0,1-6.66-17.59q0-10.91,6.44-17.88a20.55,20.55,0,0,1,15.65-7,20,20,0,0,1,8,1.6,21.72,21.72,0,0,1,6.87,4.81ZM45.76,103.74a11.93,11.93,0,0,0-9.1,3.87,15.46,15.46,0,0,0,.06,20,12,12,0,0,0,9.08,3.94A12.14,12.14,0,0,0,55,127.65,14.12,14.12,0,0,0,58.7,117.5a13.73,13.73,0,0,0-3.67-10A12.31,12.31,0,0,0,45.76,103.74Z"/><path d="M127.35,121h-38a12.62,12.62,0,0,0,4.4,8,13.8,13.8,0,0,0,9.11,3,15.74,15.74,0,0,0,11.38-4.63l10,4.68a23.6,23.6,0,0,1-8.92,7.81A27.84,27.84,0,0,1,103,142.35q-11.07,0-18-7a23.81,23.81,0,0,1-7-17.51q0-10.77,6.94-17.9a23.38,23.38,0,0,1,17.43-7.12q11.11,0,18.09,7.12t7,18.81Zm-11.81-9.31a11.84,11.84,0,0,0-4.62-6.4,13.35,13.35,0,0,0-8-2.47,14.1,14.1,0,0,0-8.67,2.77,15.52,15.52,0,0,0-4.34,6.1Z"/><path d="M134.59,94H146.4v4.83a28.16,28.16,0,0,1,7.29-4.71,17.46,17.46,0,0,1,6.68-1.33,16.16,16.16,0,0,1,11.88,4.89q4.11,4.16,4.11,12.3v31.12H164.67V120.52q0-8.44-.76-11.2a7.67,7.67,0,0,0-2.63-4.22,7.4,7.4,0,0,0-4.64-1.45,8.73,8.73,0,0,0-6.16,2.4,12.84,12.84,0,0,0-3.56,6.64,54,54,0,0,0-.52,9.55v18.9H134.59Z"/><path d="M191.55,76.69h11.81V94h7v10.18h-7v36.92H191.55V104.22h-6.06V94h6.06Z"/><path d="M221.31,74.65a7.24,7.24,0,0,1,5.33,2.25,7.49,7.49,0,0,1,2.22,5.46,7.4,7.4,0,0,1-2.2,5.39,7.43,7.43,0,0,1-10.64,0,7.59,7.59,0,0,1-2.22-5.52,7.53,7.53,0,0,1,7.51-7.53ZM215.4,94h11.81v47.1H215.4Z"/><path d="M239.38,76.69h11.81V94h7v10.18h-7v36.92H239.38V104.22h-6.06V94h6.06Z"/><path d="M259.3,94h12.08l12.23,29.55L297.11,94h12.11l-29.5,64.33h-12.2l9.68-20.75Z"/></g></g></svg>