<svg xmlns="http://www.w3.org/2000/svg" viewBox="0 0 314.34 162.37"><defs><style>.cls-1{fill:#fffdfd;}</style></defs><title>logo_whitestroke</title><g id="Layer_2" data-name="Layer 2"><g id="Layer_1-2" data-name="Layer 1"><path class="cls-1" d="M17.36,3.24V146H2V3.24H17.36m2-2H0V148H19.36V1.24Z"/><path class="cls-1" d="M56.52,20.18a16.18,16.18,0,0,1,11.89,4.89q4.09,4.16,4.1,12.29V68.49H60.83V47.86c0-5.62-.26-9.35-.76-11.19a7.67,7.67,0,0,0-2.63-4.22A7.37,7.37,0,0,0,52.79,31a8.69,8.69,0,0,0-6.15,2.4A12.8,12.8,0,0,0,43.08,40a53,53,0,0,0-.52,9.55v18.9H30.74V21.39H42.56v4.83a28.64,28.64,0,0,1,7.28-4.72,17.67,17.67,0,0,1,6.68-1.32m0-2a19.8,19.8,0,0,0-7.43,1.47,24.4,24.4,0,0,0-4.53,2.52V19.39H28.74v51.1H44.56V49.59c0-5.88.25-8.19.46-9.1a11,11,0,0,1,3-5.63A6.7,6.7,0,0,1,52.79,33a5.47,5.47,0,0,1,3.43,1,5.75,5.75,0,0,1,1.92,3.16c.31,1.15.69,3.93.69,10.67V70.49H74.51V37.36c0-5.94-1.57-10.55-4.68-13.69a18.15,18.15,0,0,0-13.31-5.49Z"/><path class="cls-1" d="M97.19,4V21.39h7V31.56h-7V68.49H85.37V31.56H79.31V21.39h6.06V4H97.19m2-2H83.37V19.39H77.31V33.56h6.06V70.49H99.19V33.56h7V19.39h-7V2Z"/><path class="cls-1" d="M132.68,20.18q11.13,0,18.09,7.12t7,18.81l0,2.25h-38a12.66,12.66,0,0,0,4.39,8,13.82,13.82,0,0,0,9.11,3,15.76,15.76,0,0,0,11.39-4.63l10,4.67a23.53,23.53,0,0,1-8.91,7.82,28,28,0,0,1-12.34,2.53q-11.09,0-18.05-7a23.78,23.78,0,0,1-7-17.51q0-10.79,7-17.9a23.32,23.32,0,0,1,17.42-7.12M120.26,39.05h25.62a11.84,11.84,0,0,0-4.62-6.4,13.33,13.33,0,0,0-8-2.47A14.14,14.14,0,0,0,124.59,33a15.43,15.43,0,0,0-4.33,6.1m12.42-20.87a25.37,25.37,0,0,0-18.85,7.72,26.65,26.65,0,0,0-7.52,19.3,25.81,25.81,0,0,0,7.55,18.92c5,5,11.56,7.58,19.47,7.58A29.87,29.87,0,0,0,146.54,69a25.56,25.56,0,0,0,9.68-8.45l1.37-1.95-2.16-1-10-4.67-1.25-.59-1,1a13.69,13.69,0,0,1-10,4.07,11.77,11.77,0,0,1-7.83-2.5,10.07,10.07,0,0,1-3.11-4.45h37.36l0-2,0-2.25c0-8.34-2.53-15.13-7.54-20.25s-11.58-7.72-19.52-7.72Zm-9.09,18.87a9.52,9.52,0,0,1,2.19-2.49,12.11,12.11,0,0,1,7.48-2.38,11.33,11.33,0,0,1,6.84,2.09,10.31,10.31,0,0,1,2.7,2.78Z"/><path class="cls-1" d="M185,20.18a11,11,0,0,1,4.8,1.21L186.1,31.56a8.17,8.17,0,0,0-3.42-1q-2.73,0-4.62,3.37t-1.88,13.25l0,2.29v19H164.5V21.39h10.12v5.93A12.64,12.64,0,0,1,179,22a10.55,10.55,0,0,1,6-1.82m0-2a12.52,12.52,0,0,0-7.08,2.15c-.44.3-.86.62-1.27,1v-1.9H162.5v51.1h15.73v-21l0-2.33c0-7.69.89-10.9,1.63-12.24,1.31-2.34,2.48-2.34,2.87-2.34a6.09,6.09,0,0,1,2.52.82l2,1,.77-2.12,3.68-10.17.61-1.7-1.63-.78A13,13,0,0,0,185,18.18Z"/><path class="cls-1" d="M200.23,2a7.23,7.23,0,0,1,5.33,2.25,7.48,7.48,0,0,1,2.22,5.45,7.36,7.36,0,0,1-2.2,5.39,7.12,7.12,0,0,1-5.26,2.23,7.22,7.22,0,0,1-5.38-2.27,7.59,7.59,0,0,1-2.22-5.52,7.24,7.24,0,0,1,2.2-5.32A7.24,7.24,0,0,1,200.23,2m5.91,19.39v47.1H194.32V21.39h11.82M200.23,0a9.18,9.18,0,0,0-6.73,2.8,9.21,9.21,0,0,0-2.78,6.73,9.57,9.57,0,0,0,2.79,6.92A9.42,9.42,0,0,0,207,16.5a9.34,9.34,0,0,0,2.78-6.8A9.41,9.41,0,0,0,207,2.85,9.17,9.17,0,0,0,200.23,0Zm7.91,19.39H192.32v51.1h15.82V19.39Z"/><path class="cls-1" d="M239,20.18a25,25,0,0,1,12.53,3.33A24.44,24.44,0,0,1,264,44.9a24.69,24.69,0,0,1-3.32,12.46,23.81,23.81,0,0,1-9,9.07A24.92,24.92,0,0,1,239,69.7a23.48,23.48,0,0,1-17.29-7.21A23.88,23.88,0,0,1,214.58,45a23.79,23.79,0,0,1,8.09-18.39A23.65,23.65,0,0,1,239,20.18m.15,38.52a12.26,12.26,0,0,0,9.24-3.85,13.77,13.77,0,0,0,3.68-9.91,13.69,13.69,0,0,0-3.62-9.85,13,13,0,0,0-18.43,0,13.6,13.6,0,0,0-3.66,9.8,13.84,13.84,0,0,0,3.62,10,12.07,12.07,0,0,0,9.17,3.81M239,18.18a25.7,25.7,0,0,0-17.66,6.92A25.86,25.86,0,0,0,212.58,45a25.93,25.93,0,0,0,7.74,18.92A25.52,25.52,0,0,0,239,71.7a27.06,27.06,0,0,0,13.59-3.53,25.88,25.88,0,0,0,9.77-9.82A26.79,26.79,0,0,0,266,44.9a26.46,26.46,0,0,0-13.46-23.13A27.12,27.12,0,0,0,239,18.18Zm.15,38.52a10.11,10.11,0,0,1-7.72-3.18,11.83,11.83,0,0,1-3.07-8.58,11.57,11.57,0,0,1,3.11-8.42,10.16,10.16,0,0,1,7.72-3.22A10.27,10.27,0,0,1,247,36.47a11.66,11.66,0,0,1,3.06,8.47,11.71,11.71,0,0,1-3.13,8.53,10.22,10.22,0,0,1-7.79,3.23Z"/><path class="cls-1" d="M291.32,20.18a11.06,11.06,0,0,1,4.81,1.21l-3.68,10.17a8.17,8.17,0,0,0-3.42-1q-2.73,0-4.61,3.37t-1.88,13.25l0,2.29v19H270.85V21.39H281v5.93A12.55,12.55,0,0,1,285.35,22a10.57,10.57,0,0,1,6-1.82m0-2a12.55,12.55,0,0,0-7.08,2.15,14.93,14.93,0,0,0-1.26,1v-1.9H268.85v51.1h15.73v-21l-.05-2.33c0-7.69.89-10.9,1.63-12.24,1.32-2.34,2.48-2.34,2.87-2.34a6.09,6.09,0,0,1,2.52.82l2,1,.77-2.12L298,22.07l.61-1.7L297,19.59a13,13,0,0,0-5.68-1.41Z"/><path class="cls-1" d="M72,77.86v65.28H60.18v-5a23.22,23.22,0,0,1-6.94,4.74,19.33,19.33,0,0,1-7.54,1.45,21,21,0,0,1-15.78-7.08,24.68,24.68,0,0,1-6.66-17.59q0-10.91,6.44-17.88a20.55,20.55,0,0,1,15.65-7,20,20,0,0,1,8,1.6,21.72,21.72,0,0,1,6.87,4.81V77.86H72M47.8,133.53A12.14,12.14,0,0,0,57,129.65,14.12,14.12,0,0,0,60.7,119.5a13.73,13.73,0,0,0-3.67-10,12.31,12.31,0,0,0-9.27-3.81,11.93,11.93,0,0,0-9.1,3.87,15.46,15.46,0,0,0,.06,20,12,12,0,0,0,9.08,3.94M74,75.86H58.18v21a21.69,21.69,0,0,0-12.83-4.08,22.54,22.54,0,0,0-17.12,7.61c-4.62,5-7,11.48-7,19.24a26.72,26.72,0,0,0,7.2,19,23,23,0,0,0,17.24,7.71,21.58,21.58,0,0,0,8.31-1.6,22.14,22.14,0,0,0,4.17-2.34v2.73H74V75.86ZM47.8,131.53a9.93,9.93,0,0,1-7.62-3.31A12.06,12.06,0,0,1,37,119.55,11.92,11.92,0,0,1,40.12,111a9.94,9.94,0,0,1,7.64-3.24,10.31,10.31,0,0,1,7.83,3.2,11.72,11.72,0,0,1,3.11,8.56,12.14,12.14,0,0,1-3.12,8.78,10.15,10.15,0,0,1-7.78,3.25Z"/><path class="cls-1" d="M104.34,94.83q11.11,0,18.09,7.12t7,18.81l-.05,2.25h-38a12.62,12.62,0,0,0,4.4,8,13.8,13.8,0,0,0,9.11,3,15.74,15.74,0,0,0,11.38-4.63l10,4.68a23.6,23.6,0,0,1-8.92,7.81A27.84,27.84,0,0,1,105,144.35q-11.07,0-18-7a23.81,23.81,0,0,1-7-17.51q0-10.77,6.94-17.9a23.38,23.38,0,0,1,17.43-7.12M91.91,113.7h25.63a11.84,11.84,0,0,0-4.62-6.4,13.35,13.35,0,0,0-8-2.47,14.1,14.1,0,0,0-8.67,2.77,15.52,15.52,0,0,0-4.34,6.1m12.43-20.87a25.37,25.37,0,0,0-18.86,7.73c-5,5.11-7.51,11.6-7.51,19.29a25.81,25.81,0,0,0,7.55,18.92c5,5,11.56,7.58,19.46,7.58a30.06,30.06,0,0,0,13.22-2.73,25.65,25.65,0,0,0,9.67-8.46l1.38-1.95-2.16-1-10-4.67-1.25-.59-1,1a13.74,13.74,0,0,1-10,4.06,11.74,11.74,0,0,1-7.83-2.5A10,10,0,0,1,94,125h37.36l0-2,.05-2.25c0-8.33-2.54-15.13-7.54-20.25s-11.59-7.72-19.52-7.72ZM95.25,111.7a9.34,9.34,0,0,1,2.19-2.49,12.09,12.09,0,0,1,7.48-2.38,11.41,11.41,0,0,1,6.84,2.09,10.41,10.41,0,0,1,2.69,2.78Z"/><path class="cls-1" d="M162.37,94.83a16.16,16.16,0,0,1,11.88,4.89q4.11,4.16,4.11,12.3v31.12H166.67V122.52q0-8.44-.76-11.2a7.67,7.67,0,0,0-2.63-4.22,7.4,7.4,0,0,0-4.64-1.45,8.73,8.73,0,0,0-6.16,2.4,12.84,12.84,0,0,0-3.56,6.64,54,54,0,0,0-.52,9.55v18.9H136.59V96H148.4v4.83a28.16,28.16,0,0,1,7.29-4.71,17.46,17.46,0,0,1,6.68-1.33m0-2a19.76,19.76,0,0,0-7.43,1.47,24.45,24.45,0,0,0-4.54,2.52V94H134.59v51.1H150.4v-20.9c0-5.87.26-8.19.47-9.1a10.91,10.91,0,0,1,3-5.62,6.69,6.69,0,0,1,4.79-1.87,5.36,5.36,0,0,1,3.42,1,5.64,5.64,0,0,1,1.93,3.15c.31,1.15.68,3.93.68,10.68v22.62h15.69V112c0-6-1.58-10.56-4.68-13.7a18.17,18.17,0,0,0-13.31-5.49Z"/><path class="cls-1" d="M205.36,78.69V96h7v10.18h-7v36.92H193.55V106.22h-6.06V96h6.06V78.69h11.81m2-2H191.55V94h-6.06v14.18h6.06v36.92h15.81V108.22h7V94h-7V76.69Z"/><path class="cls-1" d="M223.31,76.65a7.24,7.24,0,0,1,5.33,2.25,7.49,7.49,0,0,1,2.22,5.46,7.4,7.4,0,0,1-2.2,5.39,7.43,7.43,0,0,1-10.64,0,7.59,7.59,0,0,1-2.22-5.52,7.53,7.53,0,0,1,7.51-7.53M229.21,96v47.1H217.4V96h11.81m-5.9-21.39a9.53,9.53,0,0,0-9.51,9.53,9.57,9.57,0,0,0,2.79,6.92,9.42,9.42,0,0,0,13.49.05,9.74,9.74,0,0,0,0-13.65,9.2,9.2,0,0,0-6.75-2.85ZM231.21,94H215.4v51.1h15.81V94Z"/><path class="cls-1" d="M253.19,78.69V96h7v10.18h-7v36.92H241.38V106.22h-6.06V96h6.06V78.69h11.81m2-2H239.38V94h-6.06v14.18h6.06v36.92h15.81V108.22h7V94h-7V76.69Z"/><path class="cls-1" d="M311.22,96l-29.5,64.33h-12.2l9.68-20.75L261.3,96h12.08l12.23,29.55L299.11,96h12.11m3.12-2H297.82l-.53,1.17L285.7,120.58l-10.48-25.3L274.71,94H258.32l1.13,2.76L277,139.57l-9.31,20-1.33,2.85H283l.53-1.17L313,96.88l1.3-2.84Z"/></g></g></svg>