<svg xmlns="http://www.w3.org/2000/svg" viewBox="0 0 433.93 70.06"><title>Flygirl_Logo</title><g id="Layer_2" data-name="Layer 2"><g id="Layer_1-2" data-name="Layer 1"><path d="M223.52,32.73a2,2,0,0,1,1.68-3.21h39.2a2,2,0,0,1,2.3,2.21V54.35c0,11.81-4.1,15.71-16.41,15.71H208.85c-11.61,0-16.81-4.81-16.81-16V16c0-11.21,5.2-16,16.81-16h41.44C262.6,0,266.7,3.9,266.7,15.71v5.61a2,2,0,0,1-2.3,2.2h-15a2,2,0,0,1-2.3-2.2v-2.1c0-2.11-1-3.11-3.3-3.11H220c-6.51,0-7.71,1-7.71,6.41v25c0,5.4,1.2,6.4,7.71,6.4h23.82c2.3,0,3.3-1,3.3-3.1v-5.9H233a2,2,0,0,1-1.68-.88Z"/><path d="M96.47,54h23.41a2,2,0,0,1,2.3,2.2V67.86a2,2,0,0,1-2.3,2.2H78.56a2,2,0,0,1-2.3-2.2V2.2A2,2,0,0,1,78.56,0H94.07a2.11,2.11,0,0,1,2.4,2.2Z"/><path d="M408.23,54h23.4a2,2,0,0,1,2.3,2.2V67.86a2,2,0,0,1-2.3,2.2H390.32a2,2,0,0,1-2.31-2.2V2.2A2,2,0,0,1,390.32,0h15.51a2.11,2.11,0,0,1,2.4,2.2Z"/><path d="M139.42,44.54,109.9,2.2a1.31,1.31,0,0,1,1-2.2h19.21a3.25,3.25,0,0,1,3.31,1.7l16.51,25.82L166.44,1.7A3.38,3.38,0,0,1,169.85,0h18.31a1.31,1.31,0,0,1,1,2.2L159.64,44.54V67.86a2.08,2.08,0,0,1-2.3,2.2H141.72a2.08,2.08,0,0,1-2.3-2.2Z"/><path d="M295.56,67.86a2.12,2.12,0,0,1-2.41,2.2H277.64a2,2,0,0,1-2.3-2.2V2.2a2,2,0,0,1,2.3-2.2h15.51a2.12,2.12,0,0,1,2.41,2.2Z"/><path d="M380.8,16V29.93c0,11.2-4.9,17-16.71,17h-.3L383,67.86a1.27,1.27,0,0,1-.81,2.2H362.49a4.12,4.12,0,0,1-3.81-1.7L341.47,47.94h-14V67.86a2.11,2.11,0,0,1-2.4,2.2H309.54a2,2,0,0,1-2.3-2.2V2.2a2,2,0,0,1,2.3-2.2h54.55C375.9,0,380.8,4.8,380.8,16ZM327.46,31.83h26.42c5.81,0,6.71-.9,6.71-5.71v-4.3c0-4.8-.9-5.71-6.71-5.71H327.46Z"/><path d="M20.22,27.82v-5.3c0-5.41,1.2-6.41,7.7-6.41H65.75a2,2,0,0,0,2.31-2.2V2.2A2,2,0,0,0,65.75,0H2A2,2,0,0,0,0,2V67.86a2,2,0,0,0,2.3,2.2H17.81a2.11,2.11,0,0,0,2.41-2.2V44.94H58.57a2,2,0,0,0,1.68-3.21L52.41,30.4a2,2,0,0,0-1.68-.88H20.22Z"/></g></g></svg>