<!-- Generator: Adobe Illustrator 24.0.3, SVG Export Plug-In  -->
<svg version="1.1" xmlns="http://www.w3.org/2000/svg" xmlns:xlink="http://www.w3.org/1999/xlink" x="0px" y="0px" width="108px"
	 height="96.6px" viewBox="0 0 108 96.6" style="enable-background:new 0 0 108 96.6;" xml:space="preserve">
<style type="text/css">
	.st0{fill:#272425;}
</style>
<defs>
</defs>
<path class="st0" d="M108,88.7L95.8,78c3.4-3.7,6.1-7.9,8.1-12.7c2.4-5.8,3.6-11.9,3.6-18.6c0-6.6-1.2-12.8-3.6-18.5
	c-2.4-5.7-5.8-10.7-10.2-14.9C89.2,9.2,84,5.9,77.9,3.6C71.7,1.2,65,0,57.7,0H18.9H0v93.8h19.5h38.2c7.3,0,14-1.2,20.2-3.6
	c3.5-1.4,6.8-3.1,9.7-5.1l13.2,11.6L108,88.7z M73.8,81.2C69,83.1,63.6,84,57.7,84H19.5h-8.9V9.8h8.3h38.8c5.9,0,11.3,1,16.1,2.9
	c4.8,1.9,8.9,4.6,12.3,7.9c3.3,3.3,5.9,7.3,7.8,11.9c1.8,4.6,2.7,9.4,2.7,14.6c0,5.3-0.9,10.1-2.7,14.6c-1.5,3.5-3.4,6.7-5.8,9.5
	L72.9,57.7l-7.1,7.9l14,12.5C77.9,79.3,75.9,80.3,73.8,81.2"/>
</svg>
