<!-- Generator: Adobe Illustrator 23.0.6, SVG Export Plug-In  -->
<svg version="1.1" xmlns="http://www.w3.org/2000/svg" xmlns:xlink="http://www.w3.org/1999/xlink" x="0px" y="0px"
	 width="442.14px" height="63.38px" viewBox="0 0 442.14 63.38" style="enable-background:new 0 0 442.14 63.38;"
	 xml:space="preserve">
<style type="text/css">
	.st0{fill:none;}
</style>
<defs>
</defs>
<g>
	<path d="M0,0h15.12v39.21H0V0z M60.4,24.09v15.12H40.47V24.09H60.4z"/>
	<path d="M108.02,48.26v15.12H76.06V48.26h8.42H108.02z"/>
	<path d="M166.42,20.65h-20.55L126.77,0h20.55L166.42,20.65z M174.03,34.59v16.12h-15.12V34.59H174.03z"/>
	<path d="M226.91,15.12c-1.21,0-2.25,0.44-3.12,1.31c-0.88,0.88-1.31,1.95-1.31,3.21v18.38h-15.12V19.65c0-2.72,0.51-5.27,1.54-7.65
		c1.03-2.38,2.43-4.47,4.21-6.25c1.78-1.78,3.85-3.18,6.2-4.21c2.35-1.03,4.89-1.54,7.61-1.54h12.13v15.12H226.91z"/>
	<path d="M298.53,0v26.53h-15.12V0H298.53z"/>
	<path d="M340.46,15.12h-31.69V0h31.69V15.12z M373.69,63.38h-18.92l-29.43-39.21h18.92L373.69,63.38z"/>
	<path d="M416.79,48.26v15.12h-31.96V48.26h8.42H416.79z"/>
</g>
<rect class="st0" width="442.14" height="63.38"/>
</svg>
