<!-- Generator: Adobe Illustrator 23.0.6, SVG Export Plug-In  -->
<svg version="1.1" xmlns="http://www.w3.org/2000/svg" xmlns:xlink="http://www.w3.org/1999/xlink" x="0px" y="0px"
	 width="442.14px" height="63.38px" viewBox="0 0 442.14 63.38" style="enable-background:new 0 0 442.14 63.38;"
	 xml:space="preserve">
<style type="text/css">
	.st0{fill:#FFF200;}
	.st1{fill:none;}
</style>
<defs>
</defs>
<g>
	<path class="st0" d="M15.12,15.12v8.96H60.4v15.12H30.15L15.12,24.18v39.21H0V0h63.38v15.12H15.12z"/>
	<path class="st0" d="M133.38,48.26v15.12H76.06V0h15.12v48.26H133.38z"/>
	<path class="st0" d="M206.08,0l-32.05,34.59v28.79h-15.12V34.59L126.77,0h20.55l19.11,20.65L185.53,0H206.08z"/>
	<path class="st0" d="M255.61,21.1v-1.45c0-1.27-0.44-2.34-1.31-3.21c-0.88-0.87-1.95-1.31-3.21-1.31H227
		c-1.27,0-2.34,0.44-3.21,1.31c-0.88,0.88-1.31,1.95-1.31,3.21v24.09c0,1.27,0.44,2.34,1.31,3.21c0.87,0.88,1.95,1.31,3.21,1.31
		h24.09c1.27,0,2.34-0.44,3.21-1.31c0.87-0.87,1.31-1.95,1.31-3.21v-1.45h-11.14l-15.12-15.12h41.38v16.57
		c0,2.72-0.51,5.27-1.54,7.65c-1.03,2.39-2.43,4.47-4.21,6.25c-1.78,1.78-3.86,3.18-6.25,4.21c-2.39,1.03-4.93,1.54-7.65,1.54H227
		c-2.72,0-5.27-0.51-7.65-1.54c-2.39-1.03-4.47-2.43-6.25-4.21c-1.78-1.78-3.18-3.86-4.21-6.25c-1.03-2.38-1.54-4.93-1.54-7.65
		V19.65c0-2.72,0.51-5.27,1.54-7.65c1.03-2.38,2.43-4.47,4.21-6.25c1.78-1.78,3.86-3.18,6.25-4.21C221.73,0.51,224.28,0,227,0h24.09
		c2.72,0,5.27,0.51,7.65,1.54c2.38,1.03,4.47,2.43,6.25,4.21c1.78,1.78,3.18,3.86,4.21,6.25c1.03,2.39,1.54,4.94,1.54,7.65v1.45
		H255.61z"/>
	<path class="st0" d="M298.53,0v63.38h-15.12V0H298.53z"/>
	<path class="st0" d="M373.69,63.38h-18.92l-29.43-39.21h27.16c1.27,0,2.34-0.45,3.21-1.36c0.87-0.91,1.31-1.96,1.31-3.17
		c0-1.27-0.44-2.34-1.31-3.21c-0.88-0.87-1.95-1.31-3.21-1.31h-28.61v48.26h-15.12V0h43.73c2.72,0,5.27,0.51,7.65,1.54
		c2.38,1.03,4.47,2.43,6.25,4.21c1.78,1.78,3.18,3.86,4.21,6.25c1.03,2.39,1.54,4.94,1.54,7.65c0,2.48-0.44,4.8-1.31,6.97
		c-0.88,2.17-2.05,4.12-3.53,5.84c-1.48,1.72-3.25,3.15-5.3,4.3c-2.05,1.15-4.26,1.9-6.61,2.26L373.69,63.38z"/>
	<path class="st0" d="M442.14,48.26v15.12h-57.32V0h15.12v48.26H442.14z"/>
</g>
<rect y="0" class="st1" width="442.14" height="63.38"/>
</svg>
