<!-- Generator: Adobe Illustrator 23.0.6, SVG Export Plug-In  -->
<svg version="1.1" xmlns="http://www.w3.org/2000/svg" xmlns:xlink="http://www.w3.org/1999/xlink" x="0px" y="0px"
	 width="1028.81px" height="308.74px" viewBox="0 0 1028.81 308.74" style="enable-background:new 0 0 1028.81 308.74;"
	 xml:space="preserve">
<style type="text/css">
	.st0{fill:#F9ED32;}
	.st1{fill:#1E1C55;}
</style>
<defs>
</defs>
<g>
	<g>
		<polygon class="st0" points="594.91,0 633.39,131.25 643.84,31.56 		"/>
	</g>
	<g>
		<polygon class="st0" points="651.65,36.6 649.11,65.94 711.82,75.35 		"/>
	</g>
</g>
<polygon class="st1" points="0,308 34.73,308 34.73,197.16 145.56,197.16 145.56,162.43 0,162.43 "/>
<polygon class="st1" points="208.93,162.43 174.2,162.43 174.2,308 305.83,308 305.83,273.27 208.93,273.27 "/>
<polygon class="st1" points="355.33,209.84 311.46,162.43 264.25,162.43 338.07,241.87 338.07,308 372.8,308 372.8,241.87 
	446.41,162.43 399.21,162.43 "/>
<path class="st1" d="M581.89,175.64c-4.09-4.09-8.87-7.31-14.35-9.67c-5.48-2.35-11.33-3.54-17.57-3.54h-55.31
	c-6.24,0-12.1,1.18-17.57,3.54s-10.26,5.58-14.35,9.67c-4.09,4.09-7.31,8.88-9.67,14.35c-2.36,5.48-3.54,11.33-3.54,17.57v55.31
	c0,6.24,1.18,12.09,3.54,17.57c2.35,5.48,5.58,10.26,9.67,14.35c4.09,4.09,8.87,7.31,14.35,9.67c5.48,2.36,11.34,3.54,17.57,3.54
	h55.31c6.24,0,12.09-1.17,17.57-3.54c5.48-2.35,10.26-5.58,14.35-9.67c4.09-4.09,7.31-8.87,9.67-14.35
	c2.35-5.48,3.53-11.33,3.53-17.57v-38.05h-95.03l34.73,34.73h25.58v3.33c0,2.91-1.01,5.37-3.02,7.38c-2.01,2.01-4.47,3.02-7.38,3.02
	h-55.31c-2.91,0-5.37-1-7.38-3.02c-2.01-2.01-3.01-4.47-3.01-7.38v-55.31c0-2.91,1-5.37,3.01-7.38c2.01-2.01,4.47-3.02,7.38-3.02
	h55.31c2.91,0,5.37,1.01,7.38,3.02c2.01,2.01,3.02,4.47,3.02,7.38v3.33h34.73v-3.33c0-6.24-1.18-12.09-3.53-17.57
	C589.2,184.51,585.98,179.73,581.89,175.64z"/>
<rect x="632.58" y="163.18" class="st1" width="34.73" height="145.56"/>
<path class="st1" d="M838.68,247.61c4.71-2.63,8.77-5.93,12.17-9.88c3.39-3.96,6.1-8.42,8.11-13.41c2.01-4.99,3.02-10.33,3.02-16.01
	c0-6.24-1.18-12.09-3.53-17.57c-2.36-5.47-5.58-10.26-9.67-14.35s-8.87-7.31-14.35-9.67c-5.48-2.35-11.33-3.54-17.57-3.54H716.67
	l26.27,34.73h73.91c2.91,0,5.37,1.01,7.38,3.02c2.01,2.01,3.02,4.47,3.02,7.38c0,2.77-1.01,5.2-3.02,7.27
	c-2.01,2.08-4.47,3.12-7.38,3.12h-62.38l67.58,90.04h43.46l-42-55.94C828.91,251.98,833.97,250.24,838.68,247.61z"/>
<polygon class="st1" points="704.38,308.74 739.11,308.74 739.11,215.53 704.38,169.62 "/>
<polygon class="st1" points="931.91,274.02 931.91,163.18 897.18,163.18 897.18,308.74 1028.81,308.74 1028.81,274.02 "/>
<polygon class="st1" points="50.79,217.75 145.56,217.75 145.56,252.47 85.73,252.47 "/>
</svg>
