<!-- Generator: Adobe Illustrator 23.0.6, SVG Export Plug-In  -->
<svg version="1.1" xmlns="http://www.w3.org/2000/svg" xmlns:xlink="http://www.w3.org/1999/xlink" x="0px" y="0px"
	 width="442.14px" height="63.38px" viewBox="0 0 442.14 63.38" style="enable-background:new 0 0 442.14 63.38;"
	 xml:space="preserve">
<style type="text/css">
	.st0{fill:none;}
</style>
<defs>
</defs>
<g>
	<path d="M50.71,0v15.12H0V0H50.71z M0,24.18h15.12v39.21H0V24.18z"/>
	<path d="M76.06,0h15.12v24.18H76.06V0z M133.38,48.26v15.12h-31.96V48.26H133.38z"/>
	<path d="M166.42,20.65l7.61,13.94h-15.12l-20.37-21.91h20.55L166.42,20.65z M158.91,42.74h15.12v20.64h-15.12V42.74z M206.08,0
		l-13.22,14.31h-20.55L185.53,0H206.08z"/>
	<path d="M222.47,43.73c0,1.27,0.44,2.34,1.31,3.21c0.87,0.88,1.92,1.31,3.12,1.31h18.47v15.12h-18.47c-2.72,0-5.25-0.51-7.61-1.54
		c-2.35-1.03-4.42-2.43-6.2-4.21c-1.78-1.78-3.18-3.86-4.21-6.25c-1.03-2.38-1.54-4.93-1.54-7.65V25.35h15.12V43.73z M270.74,27.16
		v15.12h-39.21V27.16H270.74z"/>
	<path d="M298.53,39.21v24.18h-15.12V39.21H298.53z"/>
	<path d="M308.76,0h15.12v63.38h-15.12V0z"/>
	<path d="M384.82,0h15.12v24.18h-15.12V0z M442.14,48.26v15.12h-31.96V48.26H442.14z"/>
</g>
<rect class="st0" width="442.14" height="63.38"/>
</svg>
