<!-- Generator: Adobe Illustrator 23.0.6, SVG Export Plug-In  -->
<svg version="1.1" xmlns="http://www.w3.org/2000/svg" xmlns:xlink="http://www.w3.org/1999/xlink" x="0px" y="0px"
	 width="442.14px" height="63.38px" viewBox="0 0 442.14 63.38" style="enable-background:new 0 0 442.14 63.38;"
	 xml:space="preserve">
<style type="text/css">
	.st0{fill:none;}
</style>
<defs>
</defs>
<g>
	<path d="M15.12,24.09h32.6v15.12h-32.6V24.09z M63.38,0v15.12H40.47V0H63.38z"/>
	<path d="M76.06,63.38V11.5h15.12v51.88H76.06z"/>
	<path d="M200.2,6.34l-26.17,28.25h-15.12l7.52-13.94l13.31-14.31H200.2z"/>
	<path d="M251.09,0c2.72,0,5.27,0.51,7.65,1.54c2.38,1.03,4.47,2.43,6.25,4.21c1.78,1.78,3.18,3.86,4.21,6.25
		c1.03,2.39,1.54,4.94,1.54,7.65v1.45h-15.12v-1.45c0-1.27-0.44-2.34-1.31-3.21c-0.88-0.87-1.95-1.31-3.21-1.31h-18.38V0H251.09z
		 M255.61,27.16h15.12v16.57c0,2.72-0.51,5.27-1.54,7.65c-1.03,2.38-2.43,4.47-4.21,6.25c-1.78,1.78-3.86,3.18-6.25,4.21
		c-2.39,1.03-4.93,1.54-7.65,1.54h-18.38V48.26h18.38c1.27,0,2.34-0.44,3.21-1.31c0.87-0.87,1.31-1.95,1.31-3.21V27.16z"/>
	<path d="M298.53,11.5v40.38h-15.12V11.5H298.53z"/>
	<path d="M360.15,1.54c2.38,1.03,4.47,2.43,6.25,4.21c1.78,1.78,3.18,3.86,4.21,6.25c1.03,2.39,1.54,4.94,1.54,7.65
		s-0.51,5.25-1.54,7.61c-1.03,2.35-2.43,4.42-4.21,6.2c-1.78,1.78-3.86,3.18-6.25,4.21c-2.39,1.03-4.93,1.54-7.65,1.54h-43.73V24.09
		h43.73c1.27,0,2.34-0.45,3.21-1.34c0.87-0.9,1.31-1.94,1.31-3.14c0-1.25-0.44-2.32-1.31-3.18c-0.88-0.87-1.95-1.3-3.21-1.3h-18.38
		V0h18.38C355.22,0,357.76,0.51,360.15,1.54z"/>
	<path d="M384.82,63.38V11.5h15.12v51.88H384.82z"/>
</g>
<rect class="st0" width="442.14" height="63.38"/>
</svg>
