<svg xmlns="http://www.w3.org/2000/svg" viewBox="0 0 147.46 70.06"><title>FG_black</title><g id="Layer_2" data-name="Layer 2"><g id="Layer_1-2" data-name="Layer 1"><path d="M127.85,21.31v-2.1c0-2.1-1-3.1-3.31-3.1H100.73c-6.5,0-7.7,1-7.7,6.4v25c0,5.4,1.2,6.4,7.7,6.4h23.81c2.31,0,3.31-1,3.31-3.1v-5.9h-14a2.06,2.06,0,0,1-1.68-.88l-7.83-11.33a2,2,0,0,1,1.68-3.2h39.19a2,2,0,0,1,2.3,2.2V54.33c0,11.81-4.11,15.71-16.41,15.71H89.62c-11.6,0-16.8-4.8-16.8-16V16C72.82,4.8,78,0,89.62,0h41.43c12.3,0,16.41,3.9,16.41,15.71v5.6a2,2,0,0,1-2.3,2.2h-15A2,2,0,0,1,127.85,21.31ZM75.24,0H2a1.84,1.84,0,0,0-.41,0A1.9,1.9,0,0,0,.9.37,2,2,0,0,0,0,2.06v65.8a2,2,0,0,0,2.3,2.2H17.81a2.11,2.11,0,0,0,2.4-2.2V44.94H55.29A2,2,0,0,0,57,41.74L49.13,30.42a2,2,0,0,0-1.68-.88H20.21V27.83h0v-5.3c0-5.4,1.2-6.4,7.71-6.4h40.9V16C68.82,8.66,71,3.32,75.24,0Z"/></g></g></svg>