<svg xmlns="http://www.w3.org/2000/svg" viewBox="0 0 339.23 455.15"><defs><style>.cls-1{opacity:0.5;}.cls-2{fill:none;stroke:#000;stroke-miterlimit:10;stroke-width:2.01px;}</style></defs><title>Asset 12</title><g id="Layer_2" data-name="Layer 2"><g id="Layer_7" data-name="Layer 7"><g class="cls-1"><path d="M80.19,75.3l-10,8.36C83,89.25,74,103.21,83,111.31c3.45-7.09,7.52-13.82,10.08-21.09C97.71,77,107.17,69.5,119.6,64.64a71.8,71.8,0,0,0,12.66-6c7.49-4.8,13.65-10.22,6.27-20.15-1.84-2.47-2-6.33-2.55-9.6-1.34-7.38-6.28-16.57,1.69-21.42,8.46-5.15,18.51-9.09,29.43-4.43,9,3.85,11.24,10.9,10.56,19.42-.81,10.23-2.27,20.4-3.42,30.34.8.74,1.27,1.56,1.77,1.57,21.07.63,32.76,12.47,38.91,31.67,2.34,7.3,6.2,14.11,9.19,21.21,2.24,5.35,6.32,10.81-1.46,15.68-1.13.7.2,5.32.3,6.88,8.49-9.06,17.1-17.47,24.52-26.82,1.52-1.91-.14-8.8-2.52-10.91-8.63-7.65-16.41-28-10.86-36.59,2.76-4.29,10.54-7.47,16-7.35,5.85.14,13.39,3.31,16.89,7.75s2.69,11.91,3.59,18.09c.62,4.24.92,8.53,1.36,12.79l3.78.63c4.78-6.67,10.36-12.94,13.91-20.2,1.39-2.82-.54-9.17-3.13-11.69-9.71-9.51-13.1-36.23-5-46.54C290-1.88,315.27,1.3,322.7,14.18c7.22,12.52,6.54,25.12-.44,37.27-2.71,4.71-3.4,7,.95,11.7s6.57,12.08,7.91,18.64c2.17,10.7,1.78,22,4.39,32.52,5.54,22.41,1.45,44.21-2.14,66.14-2.05,12.51-4.78,24.93-6.46,37.49-3.62,27.08-7.51,54.16-9.68,81.37-.81,10.17,1.29,21.3,4.95,30.9,4,10.57-2.28,17.76-4.52,26.35-.55,2.12-2.48,4.14-2.36,6.12,1,16.46-3.48,33.08,3.31,49.5,2.46,5.94,1.16,14.23-.71,20.8-.91,3.19-7.08,4.88-12.27,8.12-3.2,12.26-3.15,12-18.8,9.42-11.56-1.87-23.32-2.45-34.85-4.44-3.28-.56-6-4.05-9-6.19,3-2.52,5.66-6.45,9.09-7.32,12-3.05,23.37-6.67,28.76-19.26,1.2-2.82,1.34-6.09,2-9.18-13.94-.74-27.44,12.23-42.63-2H218.82c-.43-.87-.86-1.74-1.3-2.6,2.36-2.1,4.43-4.73,7.13-6.2,15-8.19,17-11.37,13.3-28-4.61-20.59-11.52-40.75-14.92-61.5-3.51-21.42-4-43.33-5.8-65-.17-2-.38-3.91-.57-5.92-7.31-.65-7.77,3.23-7.18,8.77,2.05,19.33,4.83,38.67,5.36,58.06.73,26.7-.42,53.44-.61,80.17-.11,14.71-.28,29.45.45,44.13.16,3.3,3.88,6.46,6,9.62,1.87,2.72,5,5.23,5.34,8.08.16,1.58-4.08,4.4-6.8,5.37a176.69,176.69,0,0,1-22.89,6.79c-6.09,1.29-9.57-1.68-8.94-8.45.21-2.31.43-4.88-.31-7-12-34.32-3.27-70.35-8.75-105.18-4-25.32-8.47-50.56-12.82-75.82-.2-1.14-1.32-2.13-2.44-3.85-.86,17.11-.88,33.43-2.66,49.55-2.49,22.57-6.69,44.94-9.39,67.48-2,17.14-3,34.42-4.09,51.66-.1,1.62,2.49,3.47,4,5.09,4.59,5,4.8,9.24-1.83,12.81-5.32,2.86-10.09,7.23-15.71,9-5.93,1.83-10.75.25-10.81-8.37-.1-14.33-1.68-15.47-15.35-15-9.41.32-18.8,1.21-28.2,1.82C73,428,70,425.74,69.47,419c-.42-5.85-3-11.5-4.17-17.34-5.57-29.09-9.4-58.08-5-88,1.63-11.12-3.12-23.17-5-34.8l-4.11.35c-.53,11.41-.58,22.86-1.74,34.21-.84,8.21-1.92,16.8-5.07,24.3-4.92,11.67-3.3,22.7-1.16,34.4a40.5,40.5,0,0,1-1.44,18.33c-1.88,6.18-4.1,10.23,5,12.21,5.67,1.24,6,7,1,9.7a105,105,0,0,1-21.63,8.39c-7.62,2.18-12-.43-11.8-9.47.87-36,2.24-72.07,1.66-108.08-.29-18.17-4.39-36.29-6.74-54.44C7.78,237.19,5.58,225.62,5,214c-1.66-33.73-2.52-67.5-4-101.24C.36,96.79,10,86.51,20.3,76.8,25.55,71.87,27,68.7,23.8,61c-3.35-8.16-2.93-18.5-1.95-27.66,1-9.35,15.61-14.9,28.53-12.21,11.3,2.36,16,9.46,15.38,20.21C65,54.58,64.17,68.43,80.19,75.3Zm5.18,104.55-3.78.86c1.46,15.28-1.29,31,6.66,45.63,1.71,3.15,1,7.77,1,11.71-.09,8.84-1.25,17.74-.56,26.51,1.32,16.7,4.41,33.28,5.27,50,.62,11.89-1.81,23.9-1.76,35.86,0,12.65,1.69,25.29,2.11,37.95.39,11.6,6.79,22.89,21.33,21.8,2.74-26.75,5.42-53.38,8.22-80,.75-7.17,3.42-14.52,2.52-21.43-3.47-26.54-7.82-53-12.32-79.36-1.13-6.64-4-13-6.1-19.46l-3.47.94c.55,3.52,1.3,7,1.61,10.56.28,3.08.06,6.21.06,10.38-12.25-5.48-14.26-13.63-14.8-23.87C90.81,198.48,87.46,189.2,85.37,179.85ZM113,127c-4.64,6.12-7,12.55-10.58,13.32-10.62,2.27-8.77,8.48-7.16,15.53S99,170,99.51,177.19c.72,10.4,3.28,19.48,13.47,27.15Zm93.27,76.61C213.6,197.73,209,158.74,200,150,202.15,168.63,204.16,185.71,206.25,203.56Z"/></g><g class="cls-1"><path class="cls-2" d="M80.19,75.3l-10,8.36C83,89.25,74,103.21,83,111.31c3.45-7.09,7.52-13.82,10.08-21.09C97.71,77,107.17,69.5,119.6,64.64a71.8,71.8,0,0,0,12.66-6c7.49-4.8,13.65-10.22,6.27-20.15-1.84-2.47-2-6.33-2.55-9.6-1.34-7.38-6.28-16.57,1.69-21.42,8.46-5.15,18.51-9.09,29.43-4.43,9,3.85,11.24,10.9,10.56,19.42-.81,10.23-2.27,20.4-3.42,30.34.8.74,1.27,1.56,1.77,1.57,21.07.63,32.76,12.47,38.91,31.67,2.34,7.3,6.2,14.11,9.19,21.21,2.24,5.35,6.32,10.81-1.46,15.68-1.13.7.2,5.32.3,6.88,8.49-9.06,17.1-17.47,24.52-26.82,1.52-1.91-.14-8.8-2.52-10.91-8.63-7.65-16.41-28-10.86-36.59,2.76-4.29,10.54-7.47,16-7.35,5.85.14,13.39,3.31,16.89,7.75s2.69,11.91,3.59,18.09c.62,4.24.92,8.53,1.36,12.79l3.78.63c4.78-6.67,10.36-12.94,13.91-20.2,1.39-2.82-.54-9.17-3.13-11.69-9.71-9.51-13.1-36.23-5-46.54C290-1.88,315.27,1.3,322.7,14.18c7.22,12.52,6.54,25.12-.44,37.27-2.71,4.71-3.4,7,.95,11.7s6.57,12.08,7.91,18.64c2.17,10.7,1.78,22,4.39,32.52,5.54,22.41,1.45,44.21-2.14,66.14-2.05,12.51-4.78,24.93-6.46,37.49-3.62,27.08-7.51,54.16-9.68,81.37-.81,10.17,1.29,21.3,4.95,30.9,4,10.57-2.28,17.76-4.52,26.35-.55,2.12-2.48,4.14-2.36,6.12,1,16.46-3.48,33.08,3.31,49.5,2.46,5.94,1.16,14.23-.71,20.8-.91,3.19-7.08,4.88-12.27,8.12-3.2,12.26-3.15,12-18.8,9.42-11.56-1.87-23.32-2.45-34.85-4.44-3.28-.56-6-4.05-9-6.19,3-2.52,5.66-6.45,9.09-7.32,12-3.05,23.37-6.67,28.76-19.26,1.2-2.82,1.34-6.09,2-9.18-13.94-.74-27.44,12.23-42.63-2H218.82c-.43-.87-.86-1.74-1.3-2.6,2.36-2.1,4.43-4.73,7.13-6.2,15-8.19,17-11.37,13.3-28-4.61-20.59-11.52-40.75-14.92-61.5-3.51-21.42-4-43.33-5.8-65-.17-2-.38-3.91-.57-5.92-7.31-.65-7.77,3.23-7.18,8.77,2.05,19.33,4.83,38.67,5.36,58.06.73,26.7-.42,53.44-.61,80.17-.11,14.71-.28,29.45.45,44.13.16,3.3,3.88,6.46,6,9.62,1.87,2.72,5,5.23,5.34,8.08.16,1.58-4.08,4.4-6.8,5.37a176.69,176.69,0,0,1-22.89,6.79c-6.09,1.29-9.57-1.68-8.94-8.45.21-2.31.43-4.88-.31-7-12-34.32-3.27-70.35-8.75-105.18-4-25.32-8.47-50.56-12.82-75.82-.2-1.14-1.32-2.13-2.44-3.85-.86,17.11-.88,33.43-2.66,49.55-2.49,22.57-6.69,44.94-9.39,67.48-2,17.14-3,34.42-4.09,51.66-.1,1.62,2.49,3.47,4,5.09,4.59,5,4.8,9.24-1.83,12.81-5.32,2.86-10.09,7.23-15.71,9-5.93,1.83-10.75.25-10.81-8.37-.1-14.33-1.68-15.47-15.35-15-9.41.32-18.8,1.21-28.2,1.82C73,428,70,425.74,69.47,419c-.42-5.85-3-11.5-4.17-17.34-5.57-29.09-9.4-58.08-5-88,1.63-11.12-3.12-23.17-5-34.8l-4.11.35c-.53,11.41-.58,22.86-1.74,34.21-.84,8.21-1.92,16.8-5.07,24.3-4.92,11.67-3.3,22.7-1.16,34.4a40.5,40.5,0,0,1-1.44,18.33c-1.88,6.18-4.1,10.23,5,12.21,5.67,1.24,6,7,1,9.7a105,105,0,0,1-21.63,8.39c-7.62,2.18-12-.43-11.8-9.47.87-36,2.24-72.07,1.66-108.08-.29-18.17-4.39-36.29-6.74-54.44C7.78,237.19,5.58,225.62,5,214c-1.66-33.73-2.52-67.5-4-101.24C.36,96.79,10,86.51,20.3,76.8,25.55,71.87,27,68.7,23.8,61c-3.35-8.16-2.93-18.5-1.95-27.66,1-9.35,15.61-14.9,28.53-12.21,11.3,2.36,16,9.46,15.38,20.21C65,54.58,64.17,68.43,80.19,75.3Zm5.18,104.55-3.78.86c1.46,15.28-1.29,31,6.66,45.63,1.71,3.15,1,7.77,1,11.71-.09,8.84-1.25,17.74-.56,26.51,1.32,16.7,4.41,33.28,5.27,50,.62,11.89-1.81,23.9-1.76,35.86,0,12.65,1.69,25.29,2.11,37.95.39,11.6,6.79,22.89,21.33,21.8,2.74-26.75,5.42-53.38,8.22-80,.75-7.17,3.42-14.52,2.52-21.43-3.47-26.54-7.82-53-12.32-79.36-1.13-6.64-4-13-6.1-19.46l-3.47.94c.55,3.52,1.3,7,1.61,10.56.28,3.08.06,6.21.06,10.38-12.25-5.48-14.26-13.63-14.8-23.87C90.81,198.48,87.46,189.2,85.37,179.85ZM113,127c-4.64,6.12-7,12.55-10.58,13.32-10.62,2.27-8.77,8.48-7.16,15.53S99,170,99.51,177.19c.72,10.4,3.28,19.48,13.47,27.15Zm93.27,76.61C213.6,197.73,209,158.74,200,150,202.15,168.63,204.16,185.71,206.25,203.56Z"/></g></g></g></svg>