<svg xmlns="http://www.w3.org/2000/svg" xmlns:xlink="http://www.w3.org/1999/xlink" viewBox="0 0 196.35 236.71"><defs><style>.cls-1,.cls-2,.cls-3,.cls-4{stroke:#231f20;stroke-miterlimit:10;}.cls-1{stroke-width:2.74px;fill:url(#linear-gradient);}.cls-2{fill:#d1d3d4;stroke-width:1.05px;}.cls-3{fill:none;stroke-width:2.73px;}.cls-4{fill:#519ed6;stroke-width:1.49px;}.cls-5{fill:#fff;}</style><linearGradient id="linear-gradient" x1="98.18" y1="313.93" x2="98.18" y2="-80.8" gradientUnits="userSpaceOnUse"><stop offset="0" stop-color="#97bee5"/><stop offset="0.06" stop-color="#a1c4e7"/><stop offset="0.23" stop-color="#bcd4ee"/><stop offset="0.38" stop-color="#ccdef2"/><stop offset="0.5" stop-color="#d2e1f3"/><stop offset="0.62" stop-color="#ccdef2"/><stop offset="0.77" stop-color="#bcd4ee"/><stop offset="0.94" stop-color="#a1c4e7"/><stop offset="1" stop-color="#97bee5"/></linearGradient></defs><title>Asset 17</title><g id="Layer_2" data-name="Layer 2"><g id="Layer_4" data-name="Layer 4"><rect class="cls-1" x="1.37" y="1.37" width="193.62" height="233.98"/><path class="cls-2" d="M193.76,62.06s-.8-19.94-19.94-19.94H126.57a27.77,27.77,0,0,0-11.34,2.32c-5.61,2.5-11.91,7.65-11.91,18.1V89H91.1V62.06s0-31.55,33.24-31.55h46.71a28.87,28.87,0,0,1,10.65,1.93c6.13,2.4,13.28,5.39,13.28,17.28"/><rect class="cls-3" x="1.37" y="2.01" width="193.23" height="233.17"/><path class="cls-4" d="M68,170.66S96.67,140.34,97.09,98.3c-.42,42,28.3,72.36,28.3,72.36h0a34.69,34.69,0,1,1-57.49.07"/><path class="cls-5" d="M36.89,37.24,37,25.75h-.07L32.7,37.24H29.94l-4.1-11.49h-.07l.09,11.49H22.17V21h5.58l3.7,10.41h.09L35.07,21h5.67V37.24Z"/><path class="cls-5" d="M33.39,60.17V58.59h0A3.41,3.41,0,0,1,32,59.92a4.89,4.89,0,0,1-1,.41,3.81,3.81,0,0,1-1.13.16A4.22,4.22,0,0,1,28,60.08,3.65,3.65,0,0,1,26.69,59,4,4,0,0,1,26,57.52a6.58,6.58,0,0,1-.22-1.71V48.75h3.78v6.19a5.45,5.45,0,0,0,.07.92,2.39,2.39,0,0,0,.26.78,1.5,1.5,0,0,0,.52.54,1.62,1.62,0,0,0,.85.19,1.7,1.7,0,0,0,1.5-.73,2.94,2.94,0,0,0,.52-1.72V48.75H37V60.17Z"/><path class="cls-5" d="M33.35,83.1V76.87a5.43,5.43,0,0,0-.08-.92,2.5,2.5,0,0,0-.27-.77,1.37,1.37,0,0,0-.51-.53,1.63,1.63,0,0,0-.84-.19,1.9,1.9,0,0,0-.88.19,1.82,1.82,0,0,0-.63.54,2.41,2.41,0,0,0-.38.79,3.6,3.6,0,0,0-.13.93V83.1H25.85V71.68H29.5v1.59h0a3.92,3.92,0,0,1,.54-.73,3.11,3.11,0,0,1,.78-.6,5,5,0,0,1,1-.42,4.47,4.47,0,0,1,3.08.26,3.75,3.75,0,0,1,1.29,1.06,4.16,4.16,0,0,1,.71,1.5,6.67,6.67,0,0,1,.22,1.7V83.1Z"/><path class="cls-5" d="M33.6,91a2,2,0,0,1-.17.81,2.06,2.06,0,0,1-.46.66,2,2,0,0,1-.69.43,2.26,2.26,0,0,1-2.37-.44A2,2,0,0,1,29.29,91a2,2,0,0,1,.16-.79,1.88,1.88,0,0,1,.46-.65,2.29,2.29,0,0,1,.69-.45,2,2,0,0,1,.85-.17,2.12,2.12,0,0,1,.83.16,2,2,0,0,1,.69.43,2.06,2.06,0,0,1,.46.66A2,2,0,0,1,33.6,91Zm-4,15.07V94.62h3.76V106Z"/><path class="cls-5" d="M35,121.24a2.28,2.28,0,0,0-.87-.66,2.61,2.61,0,0,0-1.12-.25,2.38,2.38,0,0,0-1.08.24,2.56,2.56,0,0,0-.82.64,3.07,3.07,0,0,0-.54.93,3.31,3.31,0,0,0,0,2.24,2.66,2.66,0,0,0,.53.93,2.55,2.55,0,0,0,2,.86,3.2,3.2,0,0,0,1.14-.21,2.24,2.24,0,0,0,.91-.64l2.08,2.55A4.83,4.83,0,0,1,35.38,129a7.26,7.26,0,0,1-2.39.39,7.65,7.65,0,0,1-2.52-.41,6,6,0,0,1-2-1.21,5.59,5.59,0,0,1-1.36-1.91,6.27,6.27,0,0,1-.5-2.55,6.19,6.19,0,0,1,.5-2.52,5.63,5.63,0,0,1,1.36-1.92,6.14,6.14,0,0,1,2-1.21,7.1,7.1,0,0,1,2.5-.43,6.41,6.41,0,0,1,1.23.12,7.75,7.75,0,0,1,1.17.31,5.41,5.41,0,0,1,1,.48,4.36,4.36,0,0,1,.81.63Z"/><path class="cls-5" d="M33.6,136.84a2,2,0,0,1-.17.81,2,2,0,0,1-1.15,1.09,2.12,2.12,0,0,1-.83.16,2.08,2.08,0,0,1-1.54-.61,2,2,0,0,1-.62-1.45,2,2,0,0,1,.62-1.45,2.46,2.46,0,0,1,.69-.44,2,2,0,0,1,.85-.18,2.31,2.31,0,0,1,.83.16,2.21,2.21,0,0,1,.69.44,2,2,0,0,1,.46.65A2.08,2.08,0,0,1,33.6,136.84Zm-4,15.06V140.48h3.76V151.9Z"/><path class="cls-5" d="M38.08,169.08a7.38,7.38,0,0,1-.36,2.3,5.85,5.85,0,0,1-1.07,1.93,5.23,5.23,0,0,1-1.71,1.34,5,5,0,0,1-2.29.51,4.88,4.88,0,0,1-2-.42,3.63,3.63,0,0,1-1.46-1.16h-.05v6.76H25.38V163.42H29v1.4H29a4.65,4.65,0,0,1,1.45-1.21,4.49,4.49,0,0,1,2.19-.51,5.15,5.15,0,0,1,2.25.48,5,5,0,0,1,1.71,1.31,6.16,6.16,0,0,1,1.08,1.91A7,7,0,0,1,38.08,169.08Zm-3.64,0a3.69,3.69,0,0,0-.17-1.08,2.84,2.84,0,0,0-.51-.92,2.51,2.51,0,0,0-2-.91,2.48,2.48,0,0,0-1.14.25,2.59,2.59,0,0,0-.86.67,3,3,0,0,0-.55.94,3,3,0,0,0,0,2.15,3,3,0,0,0,.55.94,2.59,2.59,0,0,0,.86.67,2.48,2.48,0,0,0,1.14.25,2.52,2.52,0,0,0,1.17-.25,2.42,2.42,0,0,0,.84-.67,3,3,0,0,0,.51-1A3.7,3.7,0,0,0,34.44,169.08Z"/><path class="cls-5" d="M26.26,187.91a6.6,6.6,0,0,1,2.35-1.44,8.12,8.12,0,0,1,2.74-.49,7.28,7.28,0,0,1,2.45.36,3.63,3.63,0,0,1,1.61,1.1,4.59,4.59,0,0,1,.91,1.88,11.22,11.22,0,0,1,.29,2.7v5.75H33.16v-1.21H33.1a2.85,2.85,0,0,1-1.32,1.1,4.71,4.71,0,0,1-1.92.39,5.5,5.5,0,0,1-1.42-.19,4.15,4.15,0,0,1-1.34-.59,3.22,3.22,0,0,1-1-1.1,3.42,3.42,0,0,1-.39-1.7,2.9,2.9,0,0,1,.68-2,4.4,4.4,0,0,1,1.74-1.16,9.35,9.35,0,0,1,2.37-.56,24.89,24.89,0,0,1,2.55-.13v-.19a1.41,1.41,0,0,0-.6-1.25,2.59,2.59,0,0,0-1.46-.4,3.65,3.65,0,0,0-1.55.35,4.88,4.88,0,0,0-1.27.82Zm6.9,4.89h-.48c-.41,0-.83,0-1.25,0a5.05,5.05,0,0,0-1.12.22,2,2,0,0,0-.81.47,1.08,1.08,0,0,0-.33.82,1,1,0,0,0,.15.55,1.19,1.19,0,0,0,.38.36,1.67,1.67,0,0,0,.53.2,2.91,2.91,0,0,0,.57.06,2.3,2.3,0,0,0,1.76-.64,2.37,2.37,0,0,0,.6-1.7Z"/><path class="cls-5" d="M29.54,220.71V203.37h3.83v17.34Z"/><path class="cls-5" d="M171.18,126.85H167.3l-3.21-11H164l-3.21,11h-3.9l-4.61-16.24h4.22l2.57,10.8h.07l2.89-10.8h4.08l2.91,10.8h.07l2.62-10.8h4.08Z"/><path class="cls-5" d="M158.87,139.92a6.63,6.63,0,0,1,2.35-1.45A8.11,8.11,0,0,1,164,138a7.28,7.28,0,0,1,2.45.36,3.55,3.55,0,0,1,1.61,1.1,4.65,4.65,0,0,1,.91,1.88,11.11,11.11,0,0,1,.28,2.69v5.76h-3.44v-1.22h-.06a2.84,2.84,0,0,1-1.32,1.1,4.71,4.71,0,0,1-1.92.39,5.94,5.94,0,0,1-1.42-.18,4,4,0,0,1-1.34-.6,3.13,3.13,0,0,1-1-1.1,3.38,3.38,0,0,1-.39-1.69,2.9,2.9,0,0,1,.68-2,4.53,4.53,0,0,1,1.74-1.17,9.36,9.36,0,0,1,2.37-.55,25,25,0,0,1,2.55-.14v-.18a1.4,1.4,0,0,0-.6-1.25,2.51,2.51,0,0,0-1.46-.4,3.61,3.61,0,0,0-1.55.34,4.9,4.9,0,0,0-1.27.83Zm6.9,4.88h-.48c-.41,0-.83,0-1.25.06a5.05,5.05,0,0,0-1.12.22,2,2,0,0,0-.81.47,1.06,1.06,0,0,0-.33.81,1,1,0,0,0,.15.55,1.12,1.12,0,0,0,.38.37,1.45,1.45,0,0,0,.53.19,2.91,2.91,0,0,0,.57.06,2.34,2.34,0,0,0,1.76-.63,2.38,2.38,0,0,0,.6-1.71Z"/><path class="cls-5" d="M165.34,164.09v4.37a1.94,1.94,0,0,0,.31,1.21,1.31,1.31,0,0,0,1.11.4,4.18,4.18,0,0,0,.59,0,2.08,2.08,0,0,0,.51-.14l0,2.75a4.79,4.79,0,0,1-1,.24,6.84,6.84,0,0,1-1.19.11,5.64,5.64,0,0,1-1.93-.29,3,3,0,0,1-1.25-.83,3.21,3.21,0,0,1-.67-1.28,6.21,6.21,0,0,1-.21-1.67v-4.83h-1.84v-2.8h1.82v-3h3.69v3H168v2.8Z"/><path class="cls-5" d="M170,190.07v.46a3,3,0,0,1,0,.44h-8.27a2,2,0,0,0,.28.87,2.66,2.66,0,0,0,.62.68,2.86,2.86,0,0,0,.85.44,2.9,2.9,0,0,0,1,.16,3.19,3.19,0,0,0,1.52-.33,3,3,0,0,0,1-.86l2.61,1.65a5.24,5.24,0,0,1-2.12,1.8,7,7,0,0,1-3.06.63,7.2,7.2,0,0,1-2.43-.4,5.91,5.91,0,0,1-2-1.17,5.43,5.43,0,0,1-1.35-1.89,6.33,6.33,0,0,1-.49-2.57,6.41,6.41,0,0,1,.48-2.53,5.71,5.71,0,0,1,1.3-1.93,5.78,5.78,0,0,1,1.95-1.23,6.68,6.68,0,0,1,2.43-.43,6.22,6.22,0,0,1,2.32.42,5.06,5.06,0,0,1,1.81,1.23,5.45,5.45,0,0,1,1.18,2A7.33,7.33,0,0,1,170,190.07Zm-3.47-1.44a2.23,2.23,0,0,0-.56-1.54,2.09,2.09,0,0,0-1.68-.64,2.93,2.93,0,0,0-1,.17,2.69,2.69,0,0,0-.81.47,2.31,2.31,0,0,0-.54.7,2,2,0,0,0-.23.84Z"/><path class="cls-5" d="M168.39,210.25l-.49-.09-.47,0a2.75,2.75,0,0,0-1.28.27,2.64,2.64,0,0,0-.82.67,2.45,2.45,0,0,0-.45.84,3,3,0,0,0-.14.8v5.86H161V207.17h3.62v1.65h.05a3.72,3.72,0,0,1,1.24-1.43,3.16,3.16,0,0,1,1.86-.55l.44,0a2.08,2.08,0,0,1,.36.07Z"/></g></g></svg>