<svg xmlns="http://www.w3.org/2000/svg" xmlns:xlink="http://www.w3.org/1999/xlink" viewBox="0 0 159.63 150.97"><defs><style>.cls-1{fill:none;}.cls-2{clip-path:url(#clip-path);}.cls-3{fill:#0056a3;}.cls-4{fill:#fff;}.cls-5{clip-path:url(#clip-path-2);}</style><clipPath id="clip-path"><rect class="cls-1" x="77.32" y="4.46" width="75.43" height="146.51" transform="translate(230.08 155.43) rotate(180)"/></clipPath><clipPath id="clip-path-2"><rect class="cls-1" x="6.88" y="4.46" width="75.43" height="146.51"/></clipPath></defs><title>Asset 9</title><g id="Layer_2" data-name="Layer 2"><g id="Layer_1-2" data-name="Layer 1"><g class="cls-2"><path d="M58.25,97.9l0,.08h.12Z"/><path class="cls-3" d="M83.4,107.7a17.07,17.07,0,0,1,12.93,6.16,59.31,59.31,0,0,1,7.92,11.66c3.69,7.12,8.15,13.39,15.28,17.4,9,5.05,17.28,4,23.83-2.94,7.16-7.59,7.94-15.75,2.23-24.66-4.31-6.73-10.67-10.87-17.86-14a57,57,0,0,1-11.24-6.1c-12.24-9.12-13.25-33.81,2.62-42.6,2.85-1.58,5.62-3.32,8.57-4.67,7.22-3.31,12.12-8.77,15.57-15.79,3.59-7.3,2.83-13.76-2.83-20.08-5.42-6-12-9.35-20.2-6.57-8.62,2.93-14.31,9.16-18,17.32-1.4,3.1-2.7,6.25-4.16,9.31C94,40.66,86.76,43.87,77.7,43.37l-1.23-.07c-.12,2.46-.19,4.91-.24,7.36A19.89,19.89,0,0,1,81,50.27c11.89.48,22.15,11,21.82,22.43A21.62,21.62,0,0,1,80.79,94a22.05,22.05,0,0,1-3.47-.34c0,.62,0,1.23.05,1.85l12.85-1.13C87.34,96.6,86,96.89,77.38,96q.15,6.21.1,12.41c2.2-.17,4.4-.39,6.53-.35Zm29.77,25.1L101.05,114l1.42-1.17,12.42,18.77Zm-2.33-90.43c4.74-4.37,8.85-9.41,13.39-14,1.49-1.49,3.35-3.17,5.27-3.53s5.7.17,6.18,1.33c1,2.42,1.32,6,.15,8.19-1.33,2.47-4.54,3.95-7,5.81-4.4,3.33-8.85,6.61-13.25,9.94-2.18,1.66-4.31,3.38-6.82,5.35C105.45,48.34,106.08,46.76,110.84,42.37ZM96.48,99a16.66,16.66,0,0,1,2.62-2.37c1.63-1,4.47-2.78,4.94-2.32,1.55,1.5,2.26,3.87,3.11,5.54-.41,1.37-.4,2.39-.86,2.69-4.46,2.84-1.32,4.68.76,6.77,4.51,4.49,8.85,9.15,13.48,13.5,2.39,2.25,5.23,5.43,7.87-.08a2.87,2.87,0,0,1,2.71-.66,55.21,55.21,0,0,1,9.56,5.77,5.54,5.54,0,0,1,1,8,7.79,7.79,0,0,1-8.45,3.53c-3.79-.78-7.59-1.57-11.31-2.63-1-.28-1.82-1.47-2.49-2.42-5.23-7.41-10.28-15-15.67-22.26-2.1-2.85-4.87-5.22-7.41-7.73C94.41,102.38,94.68,100.67,96.48,99Z"/><path class="cls-1" d="M5.87,12.47,9.62,9.23c7.19-6.2,15.13-7.39,23-3A35.88,35.88,0,0,1,47.79,21.91a82.94,82.94,0,0,0,7.78,13.35c5.22,6.94,13.12,7.61,20.9,8,.07-1.47.15-2.94.25-4.41-.1,1.47-.18,2.94-.25,4.41l1.23.07C86.76,43.87,94,40.66,98,32.09c1.46-3.06,2.76-6.21,4.16-9.31,3.71-8.16,9.4-14.39,18-17.32C128.43,2.68,135,6,140.42,12c5.66,6.32,6.42,12.78,2.83,20.08-3.45,7-8.35,12.48-15.57,15.79-3,1.35-5.72,3.09-8.57,4.67-15.87,8.79-14.86,33.48-2.62,42.6a57,57,0,0,0,11.24,6.1c7.19,3.18,13.55,7.32,17.86,14,5.71,8.91,4.93,17.07-2.23,24.66-6.55,7-14.86,8-23.83,2.94-7.13-4-11.59-10.28-15.28-17.4a59.31,59.31,0,0,0-7.92-11.66A17.07,17.07,0,0,0,83.4,107.7L84,108a18.44,18.44,0,0,1,2.48.18A18.44,18.44,0,0,0,84,108l2.3,1.15c-1.94,4.47-3.69,8.67-5.57,12.8a20.38,20.38,0,0,1-4.41,6.41,133.65,133.65,0,0,1-4.11,21.34A15,15,0,0,0,75.81,151h4.3c9.78-2.18,14-19.41,9.94-33,4.08,13.6-.16,30.83-9.94,33h72.65V.06H66.31c5.09,12.43,8,26.54,11.3,39.71C74.32,26.6,71.4,12.49,66.31.06H4A12.15,12.15,0,0,0,.91.14C.49.25.3,1.24,0,1.84,1.89,5.25,3.77,8.67,5.87,12.47Z"/><path class="cls-4" d="M71.87,151h3.94a15,15,0,0,1-3.59-1.26C72.11,150.13,72,150.55,71.87,151Z"/><path class="cls-4" d="M69.61,148.17a23,23,0,0,0,2.61,1.54,133.65,133.65,0,0,0,4.11-21.34,16.6,16.6,0,0,1-12.14,4.4C64.07,139.33,65.24,145,69.61,148.17Z"/><path class="cls-4" d="M71.87,151c.12-.42.24-.84.35-1.26a23,23,0,0,1-2.61-1.54c-4.37-3.17-5.54-8.84-5.42-15.4-.76,0-1.54-.05-2.34-.14a7.56,7.56,0,0,0-2.6.2c-6.67,1.83-14.13,2-18.21,9.1a7,7,0,0,1-2,1.69c-8.4,6.21-17.31,6.54-24.59.91C5.5,137.65,3.28,129.32,7.57,119c.32-.78.56-1.59,1-3L0,115.57V151Z"/><path class="cls-4" d="M0,103.13c9.26,1.27,17-2.07,24.34-8H0Z"/><path class="cls-4" d="M76.23,50.66A21.78,21.78,0,0,0,59,71.22a22.29,22.29,0,0,0,18.3,22.45C76.92,79.38,76,65,76.23,50.66Z"/><path class="cls-4" d="M102.82,72.7c.33-11.4-9.93-22-21.82-22.43a19.89,19.89,0,0,0-4.77.39c-.23,14.37.69,28.72,1.09,43a22.05,22.05,0,0,0,3.47.34A21.62,21.62,0,0,0,102.82,72.7ZM88,66.33c1.16,2.27,1.77,3.46,2.72,5.29L93.51,67v8.1l-.62.18-1.71-3.51L88,75.22Zm-6.26,2c1,1.05,2.49,2,2.73,3.2.18.9-1.27,2.13-2.56,4-1.17-1.94-2.39-3.08-2.33-4.14S81,69.41,81.75,68.38Z"/><path class="cls-4" d="M107.15,99.8c-.41,1.37-.4,2.39-.86,2.69-4.46,2.84-1.32,4.68.76,6.77,4.51,4.49,8.85,9.15,13.48,13.5,2.39,2.25,5.23,5.43,7.87-.08a2.87,2.87,0,0,1,2.71-.66,55.21,55.21,0,0,1,9.56,5.77,5.54,5.54,0,0,1,1,8,7.79,7.79,0,0,1-8.45,3.53c-3.79-.78-7.59-1.57-11.31-2.63-1-.28-1.82-1.47-2.49-2.42-5.23-7.41-10.28-15-15.67-22.26-2.1-2.85-4.87-5.22-7.41-7.73-1.91-1.88-1.64-3.59.16-5.31a16.66,16.66,0,0,1,2.62-2.37c1.63-1,4.47-2.78,4.94-2.32C105.59,95.76,106.3,98.13,107.15,99.8Z"/><path class="cls-4" d="M48.52,43.74c-3.32-6.21-7-11.79-12.7-15.81-2.31-1.65-4.43-2.65-6.34,1.14-1.39,2.76-4.37,2.63-6.73.62-1.33-1.13-2.22-2.78-3.53-4C16.6,23.38,13.7,22.06,10,24.08a21.62,21.62,0,0,0,10.2,11.57c3.59,1.86,8,2.53,11.07,4.93C35.6,44,39.09,48.44,43,52.41c1.63,1.66,3.34,3.23,5,4.85l1.63-1C49,54.47,48.93,52,47.7,51.1,43.62,48.17,44.93,46,48.52,43.74Z"/><path class="cls-4" d="M108.78,55.45c-3.33-7.11-2.7-8.69,2.06-13.08s8.85-9.41,13.39-14c1.49-1.49,3.35-3.17,5.27-3.53s5.7.17,6.18,1.33c1,2.42,1.32,6,.15,8.19-1.33,2.47-4.54,3.95-7,5.81-4.4,3.33-8.85,6.61-13.25,9.94C113.42,51.76,111.29,53.48,108.78,55.45Z"/><path class="cls-4" d="M35.62,120.49c-4.12,4.91-8.21,9.86-12,15-.7,1-.54,3.85.15,4.25,1.77,1,4.74,2.27,6,1.48,6.48-4,12-8.83,13-17.18.45-3.73-1.66-4.2-4.57-4.58C37.49,119.76,36.19,119.81,35.62,120.49Z"/><path class="cls-4" d="M48.35,105.91c-.75,1.94,0,4.46.18,7.85,4.16-2.78,7-4.53,9.73-6.53,5.1-3.79,5.05-4.78,0-9.24l.11,0C53.21,98.29,50.06,101.51,48.35,105.91Z"/><path class="cls-4" d="M10.15,134.51A18.57,18.57,0,0,0,12.74,138c2.11-.8,4.15-1,5.18-2.12,1.37-1.51,2.7-3.76,2.64-5.65,0-1.48-2-3.57-3.54-4.17C14.81,125.16,9.16,132.32,10.15,134.51Z"/><path class="cls-4" d="M102.47,112.87l12.42,18.77-1.72,1.16L101.05,114Z"/><path class="cls-4" d="M51.45,89.31c-.21-.1-1.57,1.29-1.45,1.69.45,1.44,1,3.2,2.08,4,1.82,1.3,4.08,2,6.16,2.9a58.14,58.14,0,0,0-3.46-6.36A8.09,8.09,0,0,0,51.45,89.31Z"/><path class="cls-4" d="M58.4,98l-.16-.06,0,.09Z"/><path class="cls-4" d="M75.23,95.7l2.15.25c0-.15,0-.29,0-.43Z"/><path class="cls-4" d="M90.22,94.39,77.37,95.52c0,.14,0,.28,0,.43C86,96.89,87.34,96.6,90.22,94.39Z"/><path class="cls-4" d="M58.33,86.53l2-1.2-3.1-4.72-1.79,1.12Q56.88,84.13,58.33,86.53Z"/><path class="cls-4" d="M81.92,75.63c-1.17-1.94-2.39-3.08-2.33-4.14s1.39-2.08,2.16-3.11c1,1.05,2.49,2,2.73,3.2C84.66,72.48,83.21,73.71,81.92,75.63Z"/><path class="cls-4" d="M92.89,75.24l-1.71-3.51L88,75.22V66.33l2.72,5.29L93.51,67v8.1Z"/></g><g class="cls-5"><path d="M101.39,97.9l0,.08h-.11Z"/><path class="cls-3" d="M75.63,108c2.12,0,4.32.18,6.53.35,0-4.13,0-8.27.09-12.41-8.64.94-10,.65-12.83-1.56l12.84,1.13c0-.62,0-1.23,0-1.85a21.66,21.66,0,0,1-25.5-21c-.33-11.4,9.94-22,21.83-22.43a19.85,19.85,0,0,1,4.76.39q-.06-3.67-.23-7.36l-1.24.07c-9.06.5-16.24-2.71-20.33-11.28-1.47-3.06-2.76-6.21-4.17-9.31-3.71-8.16-9.4-14.39-18-17.32C31.21,2.68,24.64,6,19.22,12c-5.66,6.32-6.42,12.78-2.83,20.08,3.44,7,8.35,12.48,15.56,15.79,2.95,1.35,5.72,3.09,8.57,4.67,15.87,8.79,14.87,33.48,2.63,42.6a57.54,57.54,0,0,1-11.24,6.1c-7.19,3.18-13.55,7.32-17.87,14-5.71,8.91-4.93,17.07,2.23,24.66,6.56,7,14.86,8,23.84,2.94,7.13-4,11.58-10.28,15.28-17.4a58.88,58.88,0,0,1,7.92-11.66,17.05,17.05,0,0,1,12.93-6.16ZM44.74,131.64l12.42-18.77L58.58,114q-6,9.39-12.11,18.76Zm6.12-76.19c-2.51-2-4.64-3.69-6.83-5.35-4.4-3.33-8.84-6.61-13.24-9.94-2.44-1.86-5.66-3.34-7-5.81-1.16-2.17-.85-5.77.15-8.19.49-1.16,4.17-1.7,6.19-1.33s3.78,2,5.26,3.53C40,33,44.06,38,48.79,42.37S54.19,48.34,50.86,55.45Zm12.45,48.81c-2.54,2.51-5.31,4.88-7.41,7.73-5.38,7.3-10.43,14.85-15.67,22.26-.67.95-1.5,2.14-2.49,2.42-3.71,1.06-7.51,1.85-11.3,2.63-3.57.72-6.37-.57-8.46-3.53a5.54,5.54,0,0,1,1-8A55.29,55.29,0,0,1,28.53,122a2.87,2.87,0,0,1,2.71.66c2.63,5.51,5.47,2.33,7.86.08,4.63-4.35,9-9,13.48-13.5,2.09-2.09,5.22-3.93.76-6.77-.45-.3-.44-1.32-.85-2.69.85-1.67,1.56-4,3.11-5.54.47-.46,3.31,1.34,4.94,2.32A16.17,16.17,0,0,1,63.15,99C65,100.67,65.22,102.38,63.31,104.26Z"/><path class="cls-1" d="M153.76,12.47,150,9.23c-7.19-6.2-15.13-7.39-23-3a35.77,35.77,0,0,0-15.17,15.71,84.45,84.45,0,0,1-7.78,13.35c-5.22,6.94-13.12,7.61-20.9,8-.07-1.47-.15-2.94-.26-4.41.11,1.47.19,2.94.26,4.41l-1.24.07c-9.06.5-16.24-2.71-20.33-11.28-1.47-3.06-2.76-6.21-4.17-9.31-3.71-8.16-9.4-14.39-18-17.32C31.21,2.68,24.64,6,19.22,12c-5.66,6.32-6.42,12.78-2.83,20.08,3.44,7,8.35,12.48,15.56,15.79,2.95,1.35,5.72,3.09,8.57,4.67,15.87,8.79,14.87,33.48,2.63,42.6a57.54,57.54,0,0,1-11.24,6.1c-7.19,3.18-13.55,7.32-17.87,14-5.71,8.91-4.93,17.07,2.23,24.66,6.56,7,14.86,8,23.84,2.94,7.13-4,11.58-10.28,15.28-17.4a58.88,58.88,0,0,1,7.92-11.66,17.05,17.05,0,0,1,12.93-6.16l-.61.31a18.71,18.71,0,0,0-2.49.18,18.71,18.71,0,0,1,2.49-.18c-1.32.65-1.94,1-2.3,1.15,1.94,4.47,3.68,8.67,5.56,12.8a20.24,20.24,0,0,0,4.42,6.41,133.61,133.61,0,0,0,4.1,21.34A14.8,14.8,0,0,1,83.83,151h-4.3c-9.78-2.18-14-19.41-9.94-33-4.08,13.6.16,30.83,9.94,33H6.88V.06H93.32C88.23,12.49,85.32,26.6,82,39.77,85.32,26.6,88.23,12.49,93.32.06h62.32a12.21,12.21,0,0,1,3.09.08c.42.11.61,1.1.9,1.7Z"/><path class="cls-4" d="M87.76,151H83.83a14.8,14.8,0,0,0,3.58-1.26C87.53,150.13,87.64,150.55,87.76,151Z"/><path class="cls-4" d="M90,148.17a21.37,21.37,0,0,1-2.61,1.54,133.61,133.61,0,0,1-4.1-21.34,16.57,16.57,0,0,0,12.13,4.4C95.56,139.33,94.39,145,90,148.17Z"/><path class="cls-4" d="M87.76,151c-.12-.42-.23-.84-.35-1.26A21.37,21.37,0,0,0,90,148.17c4.37-3.17,5.54-8.84,5.42-15.4.76,0,1.54-.05,2.35-.14a7.6,7.6,0,0,1,2.6.2c6.66,1.83,14.12,2,18.2,9.1a7.12,7.12,0,0,0,2,1.69c8.4,6.21,17.31,6.54,24.6.91,8.9-6.88,11.13-15.21,6.84-25.5-.33-.78-.57-1.59-1.06-3l8.62-.47V151Z"/><path class="cls-4" d="M159.63,103.13c-9.25,1.27-17-2.07-24.33-8h24.33Z"/><path class="cls-4" d="M83.4,50.66a21.78,21.78,0,0,1,17.22,20.56A22.3,22.3,0,0,1,82.31,93.67C82.71,79.38,83.64,65,83.4,50.66Z"/><path class="cls-4" d="M78.85,94a21.81,21.81,0,0,0,3.46-.34c.4-14.29,1.33-28.64,1.09-43a19.85,19.85,0,0,0-4.76-.39c-11.89.48-22.16,11-21.83,22.43A21.63,21.63,0,0,0,78.85,94ZM71.63,75.22l-3.18-3.49-1.7,3.51-.62-.18V67C67.31,69,68,70,68.91,71.62l2.72-5.29Zm8.42-3.73c.06,1.06-1.17,2.2-2.33,4.14-1.29-1.92-2.75-3.15-2.57-4,.24-1.2,1.76-2.15,2.73-3.2C78.66,69.41,80,70.42,80.05,71.49Z"/><path class="cls-4" d="M52.49,99.8c.41,1.37.4,2.39.85,2.69,4.46,2.84,1.33,4.68-.76,6.77-4.5,4.49-8.85,9.15-13.48,13.5-2.39,2.25-5.23,5.43-7.86-.08a2.87,2.87,0,0,0-2.71-.66A55.29,55.29,0,0,0,19,127.79a5.54,5.54,0,0,0-1,8c2.09,3,4.89,4.25,8.46,3.53,3.79-.78,7.59-1.57,11.3-2.63,1-.28,1.82-1.47,2.49-2.42,5.24-7.41,10.29-15,15.67-22.26,2.1-2.85,4.87-5.22,7.41-7.73,1.91-1.88,1.65-3.59-.16-5.31a16.17,16.17,0,0,0-2.61-2.37c-1.63-1-4.47-2.78-4.94-2.32C54.05,95.76,53.34,98.13,52.49,99.8Z"/><path class="cls-4" d="M111.11,43.74c3.32-6.21,7-11.79,12.7-15.81,2.32-1.65,4.44-2.65,6.35,1.14,1.38,2.76,4.36,2.63,6.72.62,1.34-1.13,2.23-2.78,3.53-4,2.62-2.36,5.52-3.68,9.24-1.66a21.62,21.62,0,0,1-10.2,11.57c-3.59,1.86-8,2.53-11.06,4.93C124,44,120.54,48.44,116.65,52.41c-1.62,1.66-3.33,3.23-5,4.85l-1.63-1c.61-1.75.69-4.24,1.92-5.12C116,48.17,114.7,46,111.11,43.74Z"/><path class="cls-4" d="M50.86,55.45c3.33-7.11,2.69-8.69-2.07-13.08S40,33,35.4,28.36c-1.48-1.49-3.34-3.17-5.26-3.53S24.44,25,24,26.16c-1,2.42-1.31,6-.15,8.19,1.33,2.47,4.55,3.95,7,5.81,4.4,3.33,8.84,6.61,13.24,9.94C46.22,51.76,48.35,53.48,50.86,55.45Z"/><path class="cls-4" d="M124,120.49c4.12,4.91,8.21,9.86,12,15,.7,1,.54,3.85-.15,4.25-1.77,1-4.74,2.27-6,1.48-6.47-4-12-8.83-13-17.18-.45-3.73,1.67-4.2,4.58-4.58C122.14,119.76,123.45,119.81,124,120.49Z"/><path class="cls-4" d="M111.28,105.91c.75,1.94,0,4.46-.17,7.85-4.17-2.78-7-4.53-9.73-6.53-5.1-3.79-5.06-4.78,0-9.24l-.11,0C106.42,98.29,109.57,101.51,111.28,105.91Z"/><path class="cls-4" d="M149.48,134.51A18.51,18.51,0,0,1,146.9,138c-2.11-.8-4.16-1-5.18-2.12-1.38-1.51-2.71-3.76-2.65-5.65.05-1.48,2-3.57,3.55-4.17C144.83,125.16,150.47,132.32,149.48,134.51Z"/><path class="cls-4" d="M57.16,112.87,44.74,131.64l1.73,1.16q6.06-9.38,12.11-18.76Z"/><path class="cls-4" d="M108.18,89.31c.21-.1,1.58,1.29,1.45,1.69-.44,1.44-1,3.2-2.08,4-1.81,1.3-4.07,2-6.16,2.9a61.74,61.74,0,0,1,3.46-6.36A8.09,8.09,0,0,1,108.18,89.31Z"/><path class="cls-4" d="M101.24,98l.15-.06,0,.09Z"/><path class="cls-4" d="M84.41,95.7,82.25,96c0-.15,0-.29,0-.43Z"/><path class="cls-4" d="M69.42,94.39l12.84,1.13c0,.14,0,.28,0,.43C73.61,96.89,72.3,96.6,69.42,94.39Z"/><path class="cls-4" d="M101.31,86.53l-2-1.2,3.09-4.72,1.79,1.12Z"/><path class="cls-4" d="M77.72,75.63c1.16-1.94,2.39-3.08,2.33-4.14s-1.39-2.08-2.17-3.11c-1,1.05-2.49,2-2.73,3.2C75,72.48,76.43,73.71,77.72,75.63Z"/><path class="cls-4" d="M66.75,75.24l1.7-3.51,3.18,3.49V66.33l-2.72,5.29L66.13,67v8.1Z"/></g></g></g></svg>