<svg xmlns="http://www.w3.org/2000/svg" viewBox="0 0 54.04 33.46"><defs><style>.cls-1{fill:#fff;}</style></defs><title>Asset 5</title><g id="Layer_2" data-name="Layer 2"><g id="Left"><path class="cls-1" d="M24.26,2.48h3.67a7,7,0,0,1,1.46.15,4,4,0,0,1,1.28.51,2.83,2.83,0,0,1,.91.91,2.58,2.58,0,0,1,.35,1.39,2.7,2.7,0,0,1-.57,1.74,3.09,3.09,0,0,1-1.54,1v0a3.34,3.34,0,0,1,1.08.3,3.06,3.06,0,0,1,.86.64,2.6,2.6,0,0,1,.57.91,2.89,2.89,0,0,1,.21,1.11,3,3,0,0,1-.42,1.65,3.16,3.16,0,0,1-1.09,1,4.83,4.83,0,0,1-1.51.53,8.66,8.66,0,0,1-1.67.16H24.26Zm1.43,5.1h2a6.41,6.41,0,0,0,1-.07,2.28,2.28,0,0,0,.88-.28,1.7,1.7,0,0,0,.63-.59,1.89,1.89,0,0,0,.23-1,1.64,1.64,0,0,0-.22-.91,1.53,1.53,0,0,0-.58-.55,2.69,2.69,0,0,0-.84-.29,5.86,5.86,0,0,0-.94-.07H25.69Zm0,5.61H28.1a4.68,4.68,0,0,0,1-.11,2.91,2.91,0,0,0,.93-.36,2,2,0,0,0,.67-.64,1.79,1.79,0,0,0,.26-1,2,2,0,0,0-.25-1,1.85,1.85,0,0,0-.65-.68A2.63,2.63,0,0,0,29.2,9a5.39,5.39,0,0,0-1.07-.1H25.69Z" transform="translate(-24.26 -1.67)"/><path class="cls-1" d="M34.27,10.54a4.44,4.44,0,0,1,.32-1.7,4,4,0,0,1,.89-1.32,4,4,0,0,1,1.34-.86,5,5,0,0,1,3.4,0,4,4,0,0,1,1.34.86,4,4,0,0,1,.89,1.32,4.68,4.68,0,0,1,0,3.4,4,4,0,0,1-.89,1.32,4,4,0,0,1-1.34.86,5,5,0,0,1-3.4,0,4,4,0,0,1-1.34-.86,4,4,0,0,1-.89-1.32A4.44,4.44,0,0,1,34.27,10.54Zm1.43,0a3.32,3.32,0,0,0,.19,1.16,2.73,2.73,0,0,0,.57.94,2.61,2.61,0,0,0,.9.63,2.86,2.86,0,0,0,1.16.23,2.94,2.94,0,0,0,1.17-.23,2.67,2.67,0,0,0,.89-.63,2.73,2.73,0,0,0,.57-.94,3.64,3.64,0,0,0,0-2.32,2.73,2.73,0,0,0-.57-.94,2.67,2.67,0,0,0-.89-.63,2.94,2.94,0,0,0-1.17-.23,2.86,2.86,0,0,0-1.16.23,2.61,2.61,0,0,0-.9.63,2.73,2.73,0,0,0-.57.94A3.32,3.32,0,0,0,35.7,10.54Z" transform="translate(-24.26 -1.67)"/><path class="cls-1" d="M49.18,7.68H46.83v4c0,.26,0,.5,0,.72A1.41,1.41,0,0,0,47,13a.89.89,0,0,0,.35.39,1.29,1.29,0,0,0,.68.15,3.16,3.16,0,0,0,.6-.07,2.84,2.84,0,0,0,.58-.2l0,1.2a2.93,2.93,0,0,1-.76.22,4.45,4.45,0,0,1-.79.07,2.82,2.82,0,0,1-1.14-.19A1.57,1.57,0,0,1,45.9,14a2.11,2.11,0,0,1-.32-.84,7.73,7.73,0,0,1-.07-1.12V7.68H43.77V6.56h1.74V4.3h1.32V6.56h2.35Z" transform="translate(-24.26 -1.67)"/><path class="cls-1" d="M55.18,7.68H52.83v4c0,.26,0,.5,0,.72A1.41,1.41,0,0,0,53,13a.89.89,0,0,0,.35.39,1.29,1.29,0,0,0,.68.15,3.16,3.16,0,0,0,.6-.07,2.84,2.84,0,0,0,.58-.2l0,1.2a2.93,2.93,0,0,1-.76.22,4.45,4.45,0,0,1-.79.07,2.82,2.82,0,0,1-1.14-.19A1.57,1.57,0,0,1,51.9,14a2.11,2.11,0,0,1-.32-.84,7.73,7.73,0,0,1-.07-1.12V7.68H49.77V6.56h1.74V4.3h1.32V6.56h2.35Z" transform="translate(-24.26 -1.67)"/><path class="cls-1" d="M57,1.67h1.32V14.52H57Z" transform="translate(-24.26 -1.67)"/><path class="cls-1" d="M68,13.07a4.15,4.15,0,0,1-1.57,1.29,5,5,0,0,1-2,.36,4.06,4.06,0,0,1-1.68-.33,3.77,3.77,0,0,1-1.27-.89,4,4,0,0,1-.8-1.33,4.62,4.62,0,0,1-.28-1.63,4.42,4.42,0,0,1,.31-1.69,3.75,3.75,0,0,1,.85-1.33,3.84,3.84,0,0,1,1.29-.86,4.34,4.34,0,0,1,1.63-.3,4,4,0,0,1,1.53.28,3.54,3.54,0,0,1,1.2.81A3.78,3.78,0,0,1,68,8.76a5.37,5.37,0,0,1,.27,1.76V11H61.88a2.71,2.71,0,0,0,.24,1,2.83,2.83,0,0,0,.56.82,2.54,2.54,0,0,0,1.8.76,3.09,3.09,0,0,0,1.46-.31,3.22,3.22,0,0,0,1.07-.9ZM66.88,9.83a2.34,2.34,0,0,0-.67-1.64,2.4,2.4,0,0,0-1.73-.61,2.62,2.62,0,0,0-1.79.61,2.6,2.6,0,0,0-.81,1.64Z" transform="translate(-24.26 -1.67)"/><path class="cls-1" d="M77,13.11h0a3,3,0,0,1-1.18,1.14,3.62,3.62,0,0,1-1.88.47,3.85,3.85,0,0,1-1.56-.31,3.76,3.76,0,0,1-1.27-.88,3.92,3.92,0,0,1-.84-1.32,4.35,4.35,0,0,1-.31-1.67,4.35,4.35,0,0,1,.31-1.67,3.8,3.8,0,0,1,.85-1.32,3.69,3.69,0,0,1,1.32-.88,4.44,4.44,0,0,1,1.7-.31,3.63,3.63,0,0,1,1.59.35,4,4,0,0,1,1.27,1h0v-6H78.3V14.52H77Zm0-2.57a3.32,3.32,0,0,0-.19-1.16,2.73,2.73,0,0,0-.57-.94,2.67,2.67,0,0,0-.89-.63,2.94,2.94,0,0,0-1.17-.23A2.86,2.86,0,0,0,73,7.81a2.48,2.48,0,0,0-.89.63,2.73,2.73,0,0,0-.57.94,3.11,3.11,0,0,0-.2,1.16,3.11,3.11,0,0,0,.2,1.16,2.73,2.73,0,0,0,.57.94,2.48,2.48,0,0,0,.89.63,2.86,2.86,0,0,0,1.16.23,2.94,2.94,0,0,0,1.17-.23,2.67,2.67,0,0,0,.89-.63,2.73,2.73,0,0,0,.57-.94A3.32,3.32,0,0,0,77,10.54Z" transform="translate(-24.26 -1.67)"/><path class="cls-1" d="M28.23,22.88h1.59l2.73,10h0l3-10h1.59l2.94,10h0l2.79-10H44.4l-3.53,12H39.32l-3-10.2h0l-3,10.2H31.75Z" transform="translate(-24.26 -1.67)"/><path class="cls-1" d="M45,28a3.63,3.63,0,0,1,1.45-.92,5.14,5.14,0,0,1,1.71-.3,3.38,3.38,0,0,1,2.55.83,3.6,3.6,0,0,1,.79,2.53v3.42c0,.23,0,.46,0,.71s0,.46.08.67H50.37a2.73,2.73,0,0,1-.08-.61c0-.22,0-.41,0-.58h0a3.05,3.05,0,0,1-1,1,3,3,0,0,1-1.57.39A4.26,4.26,0,0,1,46.48,35a2.87,2.87,0,0,1-.93-.45,2.27,2.27,0,0,1-.64-.74,2.13,2.13,0,0,1-.24-1,2.23,2.23,0,0,1,.51-1.55,3.16,3.16,0,0,1,1.27-.83A6.13,6.13,0,0,1,48.08,30C48.67,30,49.2,30,49.69,30h.51v-.24a1.63,1.63,0,0,0-.52-1.31A2.18,2.18,0,0,0,48.23,28a3.93,3.93,0,0,0-1.27.21,3.17,3.17,0,0,0-1.1.66Zm3.84,3.11a4.71,4.71,0,0,0-2,.36,1.21,1.21,0,0,0-.75,1.17,1.18,1.18,0,0,0,.5,1.07,2.32,2.32,0,0,0,1.25.31,2.39,2.39,0,0,0,1-.2A2,2,0,0,0,50,32.53a3.13,3.13,0,0,0,.17-.93v-.51Z" transform="translate(-24.26 -1.67)"/><path class="cls-1" d="M58.31,28.08H56v4c0,.26,0,.5,0,.72a1.41,1.41,0,0,0,.14.58.78.78,0,0,0,.35.39,1.29,1.29,0,0,0,.68.15,2.83,2.83,0,0,0,1.18-.27l.05,1.2a2.93,2.93,0,0,1-.76.22,4.45,4.45,0,0,1-.79.07,2.76,2.76,0,0,1-1.14-.19,1.57,1.57,0,0,1-.66-.52,2,2,0,0,1-.32-.84,7.73,7.73,0,0,1-.07-1.12V28.08H52.9V27h1.74V24.7H56V27h2.35Z" transform="translate(-24.26 -1.67)"/><path class="cls-1" d="M67.05,33.47a4.15,4.15,0,0,1-1.57,1.29,5,5,0,0,1-2,.36,4.13,4.13,0,0,1-1.68-.33,3.88,3.88,0,0,1-1.27-.89,4,4,0,0,1-.8-1.33,4.62,4.62,0,0,1-.28-1.63,4.42,4.42,0,0,1,.31-1.69,3.75,3.75,0,0,1,.85-1.33,3.84,3.84,0,0,1,1.29-.86,4.34,4.34,0,0,1,1.63-.3,4,4,0,0,1,1.53.28,3.35,3.35,0,0,1,1.2.81,3.78,3.78,0,0,1,.77,1.31,5.37,5.37,0,0,1,.28,1.76v.43H60.91a2.63,2.63,0,0,0,.25,1,2.7,2.7,0,0,0,.55.81,2.48,2.48,0,0,0,.8.55,2.36,2.36,0,0,0,1,.21A3.06,3.06,0,0,0,65,33.59a3.12,3.12,0,0,0,1.07-.9Zm-1.14-3.24a2.34,2.34,0,0,0-.67-1.64A2.4,2.4,0,0,0,63.51,28a2.45,2.45,0,0,0-2.6,2.25Z" transform="translate(-24.26 -1.67)"/><path class="cls-1" d="M69.39,28.85q0-.54,0-1c0-.32,0-.61,0-.87h1.26c0,.22,0,.43,0,.65s0,.43,0,.66h0a2.41,2.41,0,0,1,.38-.56,2.81,2.81,0,0,1,.59-.48,2.76,2.76,0,0,1,.76-.34,3.05,3.05,0,0,1,.92-.13,1.23,1.23,0,0,1,.27,0,1.4,1.4,0,0,1,.28.06l-.09,1.35a2.4,2.4,0,0,0-.71-.11,2,2,0,0,0-1.78.79A3.73,3.73,0,0,0,70.72,31v3.88H69.39Z" transform="translate(-24.26 -1.67)"/></g></g></svg>