<svg xmlns="http://www.w3.org/2000/svg" viewBox="0 0 113.26 328.65"><defs><style>.cls-1{fill:none;stroke:#414042;stroke-miterlimit:10;stroke-width:0.91px;}.cls-2{opacity:0.5;}.cls-3{fill:#414042;}</style></defs><title>Asset 11</title><g id="Layer_2" data-name="Layer 2"><g id="Layer_8" data-name="Layer 8"><path class="cls-1" d="M80.27,21.68c-.12,6.35.85,13-6.12,17-2.36,1.36-1.46,3.83.16,5.25,2.09,1.84,4.43,4,7,4.6,14.94,3.53,21.27,15.28,25,28,5.47,18.68,10.65,37.73,1.62,57.2-3,6.48-6.53,11.61-13.49,13.64-8,2.33-9.61,8.52-10.94,15.74-4.75,25.74-4.23,52-9.44,77.88-3.88,19.3-11.13,38.55-9.37,59.07.41,4.82,1.17,8.34,4.75,11.28,2.19,1.79,4.49,3.45,6.59,5.34s3.67,4.52,2.28,7.53C77,327,74.36,327,71.65,326.82c-6.69-.54-13.37-1.26-19.41-4.45-4.44-2.35-7.87-2.73-11.05,2.21-2.54,4-6.84,4.41-11,2.59-4-1.72-5.62-5.11-5.5-9.36a28.83,28.83,0,0,1,.44-3.82c3.68-21.4,5.07-43,5.32-64.67.05-4.07,1-8.14,1.58-12.2,1.45-9.59-1.95-17.92-4.59-27.06-5-17.33-9.33-35.32-9.51-53.71-.06-5.45-1.29-9.33-5.7-13.26C-.66,131.63-1,116.19,2.1,100.94A256.35,256.35,0,0,1,13.47,63.33C16.89,54.17,25,49.4,34.08,46.1c10.64-3.88,13.11-9.89,9-20.3-4-10.09,3.3-22.59,14.23-24.34C73.49-1.15,80.56,5.08,80.27,21.68Z"/><g class="cls-2"><path class="cls-3" d="M80.27,20.8c-.12,6.34.85,13-6.12,17-2.36,1.36-1.46,3.83.16,5.26,2.09,1.83,4.43,4,7,4.59,14.94,3.53,21.27,15.28,25,28,5.47,18.68,10.65,37.73,1.62,57.21-3,6.47-6.53,11.61-13.49,13.63-8,2.33-9.61,8.52-10.94,15.75-4.75,25.74-4.23,52-9.44,77.87-3.88,19.31-11.13,38.55-9.37,59.08.41,4.82,1.17,8.34,4.75,11.27,2.19,1.79,4.49,3.45,6.59,5.34s3.67,4.53,2.28,7.54c-1.28,2.78-3.92,2.87-6.63,2.65-6.69-.54-13.37-1.25-19.41-4.45-4.44-2.35-7.87-2.72-11.05,2.21-2.54,4-6.84,4.42-11,2.59-4-1.72-5.62-5.11-5.5-9.35a29.17,29.17,0,0,1,.44-3.83c3.68-21.4,5.07-43,5.32-64.67.05-4.07,1-8.14,1.58-12.2,1.45-9.59-1.95-17.91-4.59-27-5-17.34-9.33-35.32-9.51-53.71-.06-5.46-1.29-9.34-5.7-13.27C-.66,130.74-1,115.3,2.1,100.05A256.35,256.35,0,0,1,13.47,62.44C16.89,53.29,25,48.52,34.08,45.22c10.64-3.88,13.11-9.89,9-20.3-4-10.1,3.3-22.59,14.23-24.35C73.49-2,80.56,4.2,80.27,20.8Z"/></g></g></g></svg>