<svg xmlns="http://www.w3.org/2000/svg" viewBox="0 0 194.15 462"><defs><style>.cls-1{opacity:0.5;}.cls-2{fill:none;stroke:#000;stroke-miterlimit:10;stroke-width:1.33px;}</style></defs><title>Asset 14</title><g id="Layer_2" data-name="Layer 2"><g id="Layer_6" data-name="Layer 6"><g class="cls-1"><path d="M76.86,88.34c10.36-1,12.61-8,13.66-16.29.52-4.16,1.08-8.34,1.29-12.53.54-10.81,4.78-20.12,11.3-28.5,5.74-7.38,12.63-9.21,22.46-6.22,10.29,3.13,14.13,7.9,15.2,17.59,1.47,13.37-4.62,24.12-11.91,34.17-3.56,4.92-3.93,8.43.39,12.48a79.92,79.92,0,0,1,7,6.75c9.4,11.24,18.66,22.61,28.09,34.09l13.06-8-3.47-3.73,8.14-.39.09-1-8.46-3.62.3-1.23h9.27l-7-5.81,5.78-5,4.67,6.46c-.35-3.17-.64-5.67-1.08-9.63,13.37,14.37,10.25,36.15-4.86,44.52-3.47,1.93-6.77,4.18-10,6.43-6.43,4.39-11.71,4.22-17.23-1.18-4.54-4.43-8.74-9.22-13.84-14.65-2,3.07-4.84,5.36-4.87,7.68-.14,9.39-1.91,19.84,1.49,28,7.27,17.4,8.61,35.69,10.82,53.69,2.11,17.27,2.88,34.83-3.55,52.21-4.3,11.64-4.3,24.8-7.42,37-6.75,26.3-14.35,52.39-21.43,78.6-2.62,9.69-.25,14.81,8.53,19.85,3.06,1.76,6.36,3.17,9.19,5.22,1.4,1,2.84,3.26,2.66,4.76-.12,1.12-2.76,2.69-4.34,2.77-4.15.22-8.53.43-12.46-.66-5-1.41-9.56-4.46-14.54-6.15-7.73-2.64-10.33-9.25-6.22-16.44,1.82-3.21,4.13-6.64,4.44-10.12,1.17-13.4,1.48-26.86,2.42-40.28.56-8.06-.48-17.2,3-23.91,8.24-16,7.6-32.38,6.37-49.18a33.83,33.83,0,0,0-1-4.72c-2.23,10.58-2.38,21.28-4.64,31.52-3.23,14.56-8.41,28.68-12,43.17-3.81,15.42-6.71,31.07-10.07,46.6C84.27,401,88,407.11,93.92,412.46a86.78,86.78,0,0,1,8.94,8.84c2.47,3,2.41,6-2.37,6.28s-9.81.53-14.55-.26c-11.77-2-17.75-12.32-14.74-23.72a51.48,51.48,0,0,0,2-15c-.76-17.19-2.09-34.35-3.2-51.52-2.13,4-2.1,8.47-3.48,12.47-5.42,15.61-11.47,31-16.87,46.63a35.33,35.33,0,0,0-1.71,12.77c.56,13.44,10.22,19.47,21.19,23.23,6.73,2.31,7,7.21,6.17,12-.31,1.82-5.16,3-8.08,4.17-1.29.5-2.93.08-4.45.08.88,12.82.45,14-12.3,12.39-13.07-1.64-25.91-5.18-38.84-7.95-1-.22-2.85-1.11-2.79-1.45,1.33-8.38-7.21-13.91-7-20.91.36-15.58,1.21-31.52,4.94-46.54,4.28-17.21,11-34,18.44-50.14,4.18-9,5-17.1,2.47-26.06-1.86-6.58-4.14-13-6.07-19.59q-6-20.25-11.71-40.55c-1.68-5.92-3.57-11.85-4.49-17.91-1.17-7.74-3-15.87-1.75-23.37,1.56-9.4,6.46-18.2,9-27.51,2.44-9,6.11-18.68,4.93-27.48-2.28-17-7.65-33.52-11.65-50.27C.78,79.67,3.44,60,18.35,42.83a8.46,8.46,0,0,0,2.12-5.7c-1-9.21,1.62-17.37,6.05-25.25C30,5.78,35,2.38,41.91,1.9c3.94-.27,8.31,1,11.79-.3C61.57-1.34,67,3.26,72.47,6.81c5.33,3.44,6.91,12.31,2.9,17.05-5.25,6.2-5.22,12-1.51,17.63-1.88,3.7-3.51,6.69-4.94,9.78-2.09,4.51-3.47,9-10.17,9.23-4.79.16-8.09,13-4.8,17.35,4.14,5.42,8.54,10.65,12.45,15.5C70,91.55,73.31,88.68,76.86,88.34Zm-4.78,71.6c.85,15.06,1.71,30.21,2.65,46.85C81.06,197.14,90.81,167.71,87,158Zm7.14,121.67Q78,300,76.77,318.33C87.93,306.82,83.23,294.2,79.22,281.61ZM20.9,64.82l1.51,1.4c2.18-1.16,5.5-1.79,6.34-3.58C31.84,56,29.9,50,24.12,43.37,22.9,51.51,21.9,58.17,20.9,64.82Z"/></g><g class="cls-1"><path class="cls-2" d="M75.74,88.34c10.36-1,12.61-8,13.66-16.29.52-4.16,1.07-8.34,1.29-12.53C91.23,48.71,95.47,39.4,102,31c5.74-7.38,12.63-9.21,22.46-6.22,10.29,3.13,14.13,7.9,15.2,17.59,1.47,13.37-4.62,24.12-11.91,34.17-3.56,4.92-3.93,8.43.39,12.48a79.92,79.92,0,0,1,7,6.75c9.4,11.24,18.66,22.61,28.09,34.09l13.06-8-3.47-3.73,8.14-.39.09-1-8.46-3.62.3-1.23h9.27l-7-5.81,5.78-5,4.67,6.46c-.35-3.17-.64-5.67-1.08-9.63,13.37,14.37,10.25,36.15-4.86,44.52-3.47,1.93-6.77,4.18-10.05,6.43-6.42,4.39-11.7,4.22-17.22-1.18-4.54-4.43-8.74-9.22-13.84-14.65-2,3.07-4.84,5.36-4.87,7.68-.14,9.39-1.91,19.84,1.49,28,7.27,17.4,8.61,35.69,10.81,53.69,2.12,17.27,2.89,34.83-3.54,52.21-4.3,11.64-4.3,24.8-7.42,37-6.75,26.3-14.35,52.39-21.43,78.6-2.62,9.69-.25,14.81,8.53,19.85,3.06,1.76,6.36,3.17,9.19,5.22,1.4,1,2.84,3.26,2.66,4.76-.12,1.12-2.76,2.69-4.34,2.77-4.15.22-8.53.43-12.46-.66-5-1.41-9.57-4.46-14.54-6.15-7.74-2.64-10.33-9.25-6.22-16.44,1.82-3.21,4.13-6.64,4.43-10.12,1.18-13.4,1.49-26.86,2.43-40.28.56-8.06-.48-17.2,3-23.91,8.24-16,7.6-32.38,6.37-49.18a33.83,33.83,0,0,0-1-4.72c-2.23,10.58-2.38,21.28-4.64,31.52-3.23,14.56-8.41,28.68-12,43.17-3.81,15.42-6.71,31.07-10.07,46.6-1.83,8.42,1.89,14.51,7.82,19.86a87.8,87.8,0,0,1,8.94,8.84c2.47,3,2.41,6-2.37,6.28s-9.81.53-14.55-.26c-11.77-2-17.76-12.32-14.74-23.72a51.48,51.48,0,0,0,2-15c-.76-17.19-2.09-34.35-3.2-51.52-2.13,4-2.1,8.47-3.48,12.47-5.42,15.61-11.47,31-16.87,46.63a35.33,35.33,0,0,0-1.71,12.77C47.38,422.38,57,428.41,68,432.17c6.73,2.31,7,7.21,6.17,12-.31,1.82-5.16,3-8.08,4.17-1.29.5-2.93.08-4.45.08.88,12.82.45,14-12.3,12.39-13.07-1.64-25.91-5.18-38.84-7.95-1-.22-2.85-1.11-2.79-1.45,1.33-8.38-7.21-13.91-7-20.91.36-15.58,1.21-31.52,4.94-46.54,4.28-17.21,11-34,18.44-50.14,4.18-9,5-17.1,2.47-26.06-1.86-6.58-4.14-13-6.07-19.59q-6-20.25-11.71-40.55c-1.68-5.92-3.57-11.85-4.49-17.91-1.17-7.74-3-15.87-1.75-23.37,1.56-9.4,6.46-18.2,9-27.51,2.44-9,6.11-18.68,4.93-27.48-2.28-17-7.65-33.52-11.65-50.27C-.34,79.67,2.32,60,17.23,42.83a8.46,8.46,0,0,0,2.12-5.7c-1-9.21,1.62-17.37,6-25.25,3.43-6.1,8.49-9.5,15.39-10,3.94-.27,8.31,1,11.79-.3,7.87-2.94,13.29,1.66,18.77,5.21s6.91,12.31,2.9,17.05c-5.25,6.2-5.22,12-1.51,17.63-1.88,3.7-3.51,6.69-4.94,9.78-2.09,4.51-3.47,9-10.17,9.23-4.79.16-8.09,13-4.8,17.35C57,83.27,61.37,88.5,65.28,93.35,68.87,91.55,72.19,88.68,75.74,88.34ZM71,159.94c.85,15.06,1.71,30.21,2.65,46.85,6.33-9.65,16.07-39.08,12.26-48.81ZM78.1,281.61Q76.87,300,75.65,318.33C86.81,306.82,82.11,294.2,78.1,281.61ZM19.78,64.82l1.51,1.4c2.18-1.16,5.5-1.79,6.34-3.58C30.72,56,28.78,50,23,43.37,21.78,51.51,20.78,58.17,19.78,64.82Z"/></g></g></g></svg>