<svg xmlns="http://www.w3.org/2000/svg" viewBox="0 0 285.85 476.59"><defs><style>.cls-1{opacity:0.5;}.cls-2{fill:#414042;}.cls-3{fill:none;stroke:#414042;stroke-miterlimit:10;stroke-width:2.42px;}</style></defs><title>Asset 13</title><g id="Layer_2" data-name="Layer 2"><g id="Layer_5" data-name="Layer 5"><g class="cls-1"><path class="cls-2" d="M202.93,289.5c-7.51,22.37-12.1,45-10.79,69.18,1.26,23.43,6.21,46.82-2.21,70.49-3.88,10.91-2.67,23.92-2.38,35.94.21,8.64-3.6,11.53-10.75,9.78C164.33,471.83,152,468,139.89,463.8c-2.41-.83-5.77-5-5.29-6.73.77-2.78,4.26-6.73,6.72-6.81,16.91-.57,15.69-13.47,15.74-23.86.13-28.4-2-56.84-1.21-85.21.69-23.64,4.32-47.19,6.65-70.86-13.78-3.07-9.18-14.38-11-23-6.22-29.49,12.12-53.19,17.86-79.8,3.4-15.76,1.59-32.64,2.13-49,.36-10.78-.3-21.75,1.53-32.28.91-5.2,5.42-11.67,10.06-13.9,9-4.31,9.29-9.77,8.06-18.3A220.65,220.65,0,0,1,189,15.81c.11-3.51,5.28-8.19,9.21-10C213.43-1.31,221.6-.09,230,9c6.13,6.68,8.35,24.05,2.09,32.87-5.89,8.29-2.75,13.15,3.94,16.45,31.59,15.55,41.06,42.55,46.49,75.57,6,36.52-1.55,69.85-10.39,104-3.26,12.61-4.32,25.56-20.3,29-1.21.27-2.13,4.06-2.35,6.3-3.25,31.94-8.43,63.74-1.2,96a197.4,197.4,0,0,1,4.65,43c0,15.23-2.39,30.51-4.67,45.62-.29,2-6.63,4.88-9.44,4.22-12-2.81-23.87-6.57-35.58-10.56-2-.67-4.58-4.6-4.11-6.21.71-2.45,3.68-5.7,6-6,14.08-1.75,17.73-7.75,13.78-22-2.52-9.14,2.2-20.07.88-29.83-2.23-16.58-7-32.81-10-49.3-1.27-6.89-.89-14.08-1.27-21.14q-.75-13.73-1.52-27.45Z"/><path class="cls-2" d="M71.26,145.35c-2.26,2.75-4.86,5.28-6.7,8.27-4.49,7.29-10.1,6.51-16.55,3.11C35.27,150,22.07,144,9.85,136.46c-4.2-2.6-6.07-9-7.79-14.87,7.79,4.94,15-7.58,23.28,1.81,5,5.68,15.92,6.13,25.9,9.51C61.45,113,66.58,86.3,101.91,89.7,85,74.86,87.15,59,87.87,43.88c.43-9,11.24-14,24.09-12.8s20.49,7.15,19.48,18.43c-1.15,12.9-4.91,25.57-8,40.4,1.47.78,5.39,4.2,9.75,4.91,11.55,1.89,16.91,9.61,21.05,19.22,4.74,11,10.19,21.8,14.33,33,2.73,7.4,2.92,15-5.56,20.1-10.21,6.19-20.06,13-31.07,20.14,11.07,24.48,5.13,53.65,6.07,82.29,1.37,42.23,2.45,84.49,4.89,126.67.6,10.24-2.63,17.72-9.32,23.29-2.61,2.18-11.41,1.1-14-1.67-9.65-10.17-13.44-10.36-23.3-.34-2.53,2.57-10.65,4-12.37,2.18-4.69-4.85-9.72-11.42-10.4-17.77-3.66-34-5.94-68.06-8.89-102.1-2.67-30.8-7.25-61.57-7.55-92.39-.12-11.68,10-23.22,14.22-35.26,2.83-8.13,3.45-17,5.06-25.58Zm59.3,14.23,2.27,2.29,14.51-10.58-9.89-12C134.79,147.11,132.68,153.34,130.56,159.58Z"/></g><g class="cls-1"><path class="cls-3" d="M202.93,289.5c-7.51,22.37-12.1,45-10.79,69.18,1.26,23.43,6.21,46.82-2.21,70.49-3.88,10.91-2.67,23.92-2.38,35.94.21,8.64-3.6,11.53-10.75,9.78C164.33,471.83,152,468,139.89,463.8c-2.41-.83-5.77-5-5.29-6.73.77-2.78,4.26-6.73,6.72-6.81,16.91-.57,15.69-13.47,15.74-23.86.13-28.4-2-56.84-1.21-85.21.69-23.64,4.32-47.19,6.65-70.86-13.78-3.07-9.18-14.38-11-23-6.22-29.49,12.12-53.19,17.86-79.8,3.4-15.76,1.59-32.64,2.13-49,.36-10.78-.3-21.75,1.53-32.28.91-5.2,5.42-11.67,10.06-13.9,9-4.31,9.29-9.77,8.06-18.3A220.65,220.65,0,0,1,189,15.81c.11-3.51,5.28-8.19,9.21-10C213.43-1.31,221.6-.09,230,9c6.13,6.68,8.35,24.05,2.09,32.87-5.89,8.29-2.75,13.15,3.94,16.45,31.59,15.55,41.06,42.55,46.49,75.57,6,36.52-1.55,69.85-10.39,104-3.26,12.61-4.32,25.56-20.3,29-1.21.27-2.13,4.06-2.35,6.3-3.25,31.94-8.43,63.74-1.2,96a197.4,197.4,0,0,1,4.65,43c0,15.23-2.39,30.51-4.67,45.62-.29,2-6.63,4.88-9.44,4.22-12-2.81-23.87-6.57-35.58-10.56-2-.67-4.58-4.6-4.11-6.21.71-2.45,3.68-5.7,6-6,14.08-1.75,17.73-7.75,13.78-22-2.52-9.14,2.2-20.07.88-29.83-2.23-16.58-7-32.81-10-49.3-1.27-6.89-.89-14.08-1.27-21.14q-.75-13.73-1.52-27.45Z"/><path class="cls-3" d="M71.26,145.35c-2.26,2.75-4.86,5.28-6.7,8.27-4.49,7.29-10.1,6.51-16.55,3.11C35.27,150,22.07,144,9.85,136.46c-4.2-2.6-6.07-9-7.79-14.87,7.79,4.94,15-7.58,23.28,1.81,5,5.68,15.92,6.13,25.9,9.51C61.45,113,66.58,86.3,101.91,89.7,85,74.86,87.15,59,87.87,43.88c.43-9,11.24-14,24.09-12.8s20.49,7.15,19.48,18.43c-1.15,12.9-4.91,25.57-8,40.4,1.47.78,5.39,4.2,9.75,4.91,11.55,1.89,16.91,9.61,21.05,19.22,4.74,11,10.19,21.8,14.33,33,2.73,7.4,2.92,15-5.56,20.1-10.21,6.19-20.06,13-31.07,20.14,11.07,24.48,5.13,53.65,6.07,82.29,1.37,42.23,2.45,84.49,4.89,126.67.6,10.24-2.63,17.72-9.32,23.29-2.61,2.18-11.41,1.1-14-1.67-9.65-10.17-13.44-10.36-23.3-.34-2.53,2.57-10.65,4-12.37,2.18-4.69-4.85-9.72-11.42-10.4-17.77-3.66-34-5.94-68.06-8.89-102.1-2.67-30.8-7.25-61.57-7.55-92.39-.12-11.68,10-23.22,14.22-35.26,2.83-8.13,3.45-17,5.06-25.58Zm59.3,14.23,2.27,2.29,14.51-10.58-9.89-12C134.79,147.11,132.68,153.34,130.56,159.58Z"/></g></g></g></svg>