<svg xmlns="http://www.w3.org/2000/svg" viewBox="0 0 71.09 33.46"><defs><style>.cls-1{fill:#fff;}</style></defs><title>Asset 6</title><g id="Layer_2" data-name="Layer 2"><g id="Left"><path class="cls-1" d="M15.64,2.48h2.12l4.08,9.44h0L26,2.48h2.08v12H26.64V4.42h0l-4.31,10.1h-.87L17.1,4.42h0v10.1H15.64Z" transform="translate(-15.64 -1.67)"/><path class="cls-1" d="M37.76,12.63q0,.54,0,1t0,.87H36.57c0-.22,0-.43,0-.65s0-.43,0-.66h0a2.41,2.41,0,0,1-.38.56,2.81,2.81,0,0,1-.59.48,2.69,2.69,0,0,1-.77.34,3,3,0,0,1-.91.13,3.48,3.48,0,0,1-1.36-.24,2.46,2.46,0,0,1-.94-.66,2.68,2.68,0,0,1-.55-1,4.58,4.58,0,0,1-.18-1.32V6.56h1.33v4.78a2.51,2.51,0,0,0,.44,1.58A1.63,1.63,0,0,0,34,13.5a2.68,2.68,0,0,0,1.11-.22,2,2,0,0,0,.76-.63,2.89,2.89,0,0,0,.45-1,5.35,5.35,0,0,0,.14-1.24V6.56h1.33Z" transform="translate(-15.64 -1.67)"/><path class="cls-1" d="M40.27,8.45q0-.54,0-1c0-.32,0-.61,0-.87h1.26c0,.22,0,.43,0,.65s0,.43,0,.66h0a2.41,2.41,0,0,1,.38-.56,2.81,2.81,0,0,1,.59-.48,2.76,2.76,0,0,1,.76-.34,3.05,3.05,0,0,1,.92-.13,3.46,3.46,0,0,1,1.35.24,2.5,2.5,0,0,1,.95.66,2.61,2.61,0,0,1,.55,1,4.56,4.56,0,0,1,.18,1.31v4.92H45.88V9.74a2.56,2.56,0,0,0-.44-1.58,1.62,1.62,0,0,0-1.38-.58A2.68,2.68,0,0,0,43,7.8a2.06,2.06,0,0,0-.77.63,3.09,3.09,0,0,0-.44,1,5.28,5.28,0,0,0-.14,1.24v3.88H40.27Z" transform="translate(-15.64 -1.67)"/><path class="cls-1" d="M49.54,3.45a.93.93,0,0,1,.28-.68,1,1,0,0,1,1.37,0,.94.94,0,0,1,.29.68,1,1,0,0,1-.28.7,1,1,0,0,1-1.39,0A1,1,0,0,1,49.54,3.45Zm.3,3.11h1.33v8H49.84Z" transform="translate(-15.64 -1.67)"/><path class="cls-1" d="M59.47,8.55a2.71,2.71,0,0,0-.92-.74,2.59,2.59,0,0,0-1.09-.23,2.87,2.87,0,0,0-1.17.23,2.36,2.36,0,0,0-.85.64,3,3,0,0,0-.5.94,3.9,3.9,0,0,0-.17,1.15,3.35,3.35,0,0,0,.2,1.15,3.12,3.12,0,0,0,.54.94,2.51,2.51,0,0,0,.84.64,2.65,2.65,0,0,0,1.11.23,2.34,2.34,0,0,0,2-1l1,.94a3.59,3.59,0,0,1-1.36,1,4.77,4.77,0,0,1-3.33,0,3.71,3.71,0,0,1-1.3-.87,4.07,4.07,0,0,1-.84-1.33,4.56,4.56,0,0,1-.29-1.68,4.55,4.55,0,0,1,.29-1.67,3.86,3.86,0,0,1,2.14-2.2,4.37,4.37,0,0,1,1.68-.31,4.62,4.62,0,0,1,1.67.3,3.66,3.66,0,0,1,1.39,1Z" transform="translate(-15.64 -1.67)"/><path class="cls-1" d="M61.81,3.45a.93.93,0,0,1,.28-.68,1,1,0,0,1,1.38,0,.93.93,0,0,1,.28.68.93.93,0,0,1-1,1,1,1,0,0,1-.7-.27A1,1,0,0,1,61.81,3.45Zm.31,3.11h1.32v8H62.12Z" transform="translate(-15.64 -1.67)"/><path class="cls-1" d="M66,6.56h1.33V7.72h0a4,4,0,0,1,1.27-1,3.63,3.63,0,0,1,1.59-.35,4.44,4.44,0,0,1,1.7.31,3.69,3.69,0,0,1,1.32.88,3.8,3.8,0,0,1,.85,1.32,4.35,4.35,0,0,1,.31,1.67,4.35,4.35,0,0,1-.31,1.67,3.92,3.92,0,0,1-.84,1.32,3.76,3.76,0,0,1-1.27.88,3.85,3.85,0,0,1-1.56.31,3.62,3.62,0,0,1-1.88-.47,3,3,0,0,1-1.18-1.14h0v5.28H66Zm1.33,4a3.32,3.32,0,0,0,.19,1.16,2.73,2.73,0,0,0,.57.94,2.67,2.67,0,0,0,.89.63,2.94,2.94,0,0,0,1.17.23,2.86,2.86,0,0,0,1.16-.23,2.61,2.61,0,0,0,.9-.63,2.89,2.89,0,0,0,.57-.94,3.64,3.64,0,0,0,0-2.32,2.89,2.89,0,0,0-.57-.94,2.61,2.61,0,0,0-.9-.63,2.86,2.86,0,0,0-1.16-.23A2.94,2.94,0,0,0,69,7.81a2.67,2.67,0,0,0-.89.63,2.73,2.73,0,0,0-.57.94A3.32,3.32,0,0,0,67.34,10.54Z" transform="translate(-15.64 -1.67)"/><path class="cls-1" d="M76.36,7.58a3.67,3.67,0,0,1,1.46-.92,5,5,0,0,1,1.71-.3,3.41,3.41,0,0,1,2.55.83,3.6,3.6,0,0,1,.78,2.53v3.42c0,.23,0,.46,0,.71a6.39,6.39,0,0,0,.09.67H81.7a2.84,2.84,0,0,1-.07-.61c0-.22,0-.41,0-.58h0a3.11,3.11,0,0,1-1,1,3,3,0,0,1-1.58.39,4.19,4.19,0,0,1-1.14-.15,2.83,2.83,0,0,1-.94-.45,2.4,2.4,0,0,1-.64-.74,2.25,2.25,0,0,1-.23-1,2.23,2.23,0,0,1,.51-1.55A3.12,3.12,0,0,1,77.78,10a6.13,6.13,0,0,1,1.63-.34c.59-.05,1.12-.07,1.61-.07h.51V9.33A1.62,1.62,0,0,0,81,8a2.18,2.18,0,0,0-1.45-.44,4,4,0,0,0-1.27.21,3,3,0,0,0-1.09.66Zm3.85,3.11a4.76,4.76,0,0,0-2,.36,1.21,1.21,0,0,0-.75,1.17,1.16,1.16,0,0,0,.51,1.07,2.28,2.28,0,0,0,1.24.31,2.47,2.47,0,0,0,1-.2,2.13,2.13,0,0,0,.72-.51,2.3,2.3,0,0,0,.44-.76,3.13,3.13,0,0,0,.17-.93v-.51Z" transform="translate(-15.64 -1.67)"/><path class="cls-1" d="M85.41,1.67h1.32V14.52H85.41Z" transform="translate(-15.64 -1.67)"/><path class="cls-1" d="M28.23,22.88h1.59l2.73,10h0l3-10h1.59l2.94,10h0l2.79-10H44.4l-3.53,12H39.32l-3-10.2h0l-3,10.2H31.75Z" transform="translate(-15.64 -1.67)"/><path class="cls-1" d="M45,28a3.63,3.63,0,0,1,1.45-.92,5.14,5.14,0,0,1,1.71-.3,3.38,3.38,0,0,1,2.55.83,3.6,3.6,0,0,1,.79,2.53v3.42c0,.23,0,.46,0,.71s0,.46.08.67H50.37a2.73,2.73,0,0,1-.08-.61c0-.22,0-.41,0-.58h0a3.05,3.05,0,0,1-1,1,3,3,0,0,1-1.57.39A4.26,4.26,0,0,1,46.48,35a2.87,2.87,0,0,1-.93-.45,2.27,2.27,0,0,1-.64-.74,2.13,2.13,0,0,1-.24-1,2.23,2.23,0,0,1,.51-1.55,3.16,3.16,0,0,1,1.27-.83A6.13,6.13,0,0,1,48.08,30C48.67,30,49.2,30,49.69,30h.51v-.24a1.63,1.63,0,0,0-.52-1.31A2.18,2.18,0,0,0,48.23,28a3.93,3.93,0,0,0-1.27.21,3.17,3.17,0,0,0-1.1.66Zm3.84,3.11a4.71,4.71,0,0,0-2,.36,1.21,1.21,0,0,0-.75,1.17,1.18,1.18,0,0,0,.5,1.07,2.32,2.32,0,0,0,1.25.31,2.39,2.39,0,0,0,1-.2A2,2,0,0,0,50,32.53a3.13,3.13,0,0,0,.17-.93v-.51Z" transform="translate(-15.64 -1.67)"/><path class="cls-1" d="M58.31,28.08H56v4c0,.26,0,.5,0,.72a1.41,1.41,0,0,0,.14.58.78.78,0,0,0,.35.39,1.29,1.29,0,0,0,.68.15,2.83,2.83,0,0,0,1.18-.27l.05,1.2a2.93,2.93,0,0,1-.76.22,4.45,4.45,0,0,1-.79.07,2.76,2.76,0,0,1-1.14-.19,1.57,1.57,0,0,1-.66-.52,2,2,0,0,1-.32-.84,7.73,7.73,0,0,1-.07-1.12V28.08H52.9V27h1.74V24.7H56V27h2.35Z" transform="translate(-15.64 -1.67)"/><path class="cls-1" d="M67.05,33.47a4.15,4.15,0,0,1-1.57,1.29,5,5,0,0,1-2,.36,4.13,4.13,0,0,1-1.68-.33,3.88,3.88,0,0,1-1.27-.89,4,4,0,0,1-.8-1.33,4.62,4.62,0,0,1-.28-1.63,4.42,4.42,0,0,1,.31-1.69,3.75,3.75,0,0,1,.85-1.33,3.84,3.84,0,0,1,1.29-.86,4.34,4.34,0,0,1,1.63-.3,4,4,0,0,1,1.53.28,3.35,3.35,0,0,1,1.2.81,3.78,3.78,0,0,1,.77,1.31,5.37,5.37,0,0,1,.28,1.76v.43H60.91a2.63,2.63,0,0,0,.25,1,2.7,2.7,0,0,0,.55.81,2.54,2.54,0,0,0,1.8.76A3.06,3.06,0,0,0,65,33.59a3.12,3.12,0,0,0,1.07-.9Zm-1.14-3.24a2.34,2.34,0,0,0-.67-1.64A2.4,2.4,0,0,0,63.51,28a2.45,2.45,0,0,0-2.6,2.25Z" transform="translate(-15.64 -1.67)"/><path class="cls-1" d="M69.39,28.85q0-.54,0-1c0-.32,0-.61,0-.87h1.26c0,.22,0,.43,0,.65s0,.43,0,.66h0a2.41,2.41,0,0,1,.38-.56,2.81,2.81,0,0,1,.59-.48,2.76,2.76,0,0,1,.76-.34,3.05,3.05,0,0,1,.92-.13,1.23,1.23,0,0,1,.27,0,1.4,1.4,0,0,1,.28.06l-.09,1.35a2.4,2.4,0,0,0-.71-.11,2,2,0,0,0-1.78.79A3.73,3.73,0,0,0,70.72,31v3.88H69.39Z" transform="translate(-15.64 -1.67)"/></g></g></svg>