<svg xmlns="http://www.w3.org/2000/svg" viewBox="0 0 174.83 98.35"><defs><style>.cls-1{fill:#0061af;}</style></defs><title>Asset 20</title><g id="Layer_2" data-name="Layer 2"><g id="Layer_4" data-name="Layer 4"><path class="cls-1" d="M1.32,6.67A1.3,1.3,0,0,1,2.63,5.35a1.31,1.31,0,0,1,.94.38A1.28,1.28,0,0,1,4,6.67V19.14a2.86,2.86,0,0,0,.22,1.14,2.79,2.79,0,0,0,.63.92,2.89,2.89,0,0,0,.93.63,2.93,2.93,0,0,0,1.14.22A2.86,2.86,0,0,0,8,21.83,3,3,0,0,0,9,21.2a2.93,2.93,0,0,0,.62-.92,2.79,2.79,0,0,0,.23-1.11V16.66a1.31,1.31,0,0,1,.38-.94,1.26,1.26,0,0,1,.94-.39,1.3,1.3,0,0,1,1,.39,1.28,1.28,0,0,1,.39.94v2.48a2.87,2.87,0,0,0,.22,1.12,2.76,2.76,0,0,0,.6.93,3.08,3.08,0,0,0,.91.63,2.87,2.87,0,0,0,1.14.23,2.94,2.94,0,0,0,1.15-.22,3.12,3.12,0,0,0,.93-.63,2.93,2.93,0,0,0,.62-.92,2.87,2.87,0,0,0,.23-1.14V6.67a1.28,1.28,0,0,1,.39-.94,1.35,1.35,0,0,1,.95-.38,1.31,1.31,0,0,1,.95.38,1.28,1.28,0,0,1,.39.94V19.24a5.47,5.47,0,0,1-.44,2.17,5.83,5.83,0,0,1-1.2,1.77,5.38,5.38,0,0,1-1.78,1.2,5.51,5.51,0,0,1-2.18.44A5.22,5.22,0,0,1,13,24.28a5.63,5.63,0,0,1-1.85-1.47,5.74,5.74,0,0,1-1.88,1.47,5.3,5.3,0,0,1-2.38.54,5.49,5.49,0,0,1-3.93-1.64,5.63,5.63,0,0,1-1.19-1.77,5.46,5.46,0,0,1-.43-2.17Z" transform="translate(-1.32 -5.35)"/><path class="cls-1" d="M30.06,24.84a6.77,6.77,0,0,1-2.77-.57,7.09,7.09,0,0,1-3.76-3.8,7.23,7.23,0,0,1,0-5.58,7.13,7.13,0,0,1,3.76-3.82,7.13,7.13,0,0,1,5.54,0,7.08,7.08,0,0,1,2.24,1.51,7.46,7.46,0,0,1,1.51,2.26,7.24,7.24,0,0,1,.58,2.75v5.84a1.25,1.25,0,0,1-.38.94,1.28,1.28,0,0,1-.94.39,1.19,1.19,0,0,1-.92-.39,1.39,1.39,0,0,1-.35-.95v-.2a7.34,7.34,0,0,1-2.07,1.19A7,7,0,0,1,30.06,24.84Zm0-2.61a4.44,4.44,0,0,0,1.79-.36,4.56,4.56,0,0,0,1.42-1,4.48,4.48,0,0,0,1-1.45,4.73,4.73,0,0,0,0-3.52,4.43,4.43,0,0,0-1-1.44,4.35,4.35,0,0,0-3.21-1.33,4.35,4.35,0,0,0-3.19,1.33,4.6,4.6,0,0,0-1,1.44,4.6,4.6,0,0,0,0,3.52,4.64,4.64,0,0,0,1,1.45,4.45,4.45,0,0,0,1.42,1A4.31,4.31,0,0,0,30.06,22.23Z" transform="translate(-1.32 -5.35)"/><path class="cls-1" d="M39.81,7.59a1.25,1.25,0,0,1,.11-.5,1.33,1.33,0,0,1,.28-.43,1.34,1.34,0,0,1,.42-.28,1.16,1.16,0,0,1,.49-.1,1.25,1.25,0,0,1,.51.1,1.28,1.28,0,0,1,.43.28,1.22,1.22,0,0,1,.29.41,1.19,1.19,0,0,1,.11.52v2.88h5.82a1.26,1.26,0,0,1,.92.38,1.3,1.3,0,0,1,.38.93,1.17,1.17,0,0,1-.37.89,1.29,1.29,0,0,1-.93.36H42.45V17.8a4.41,4.41,0,0,0,.35,1.75A4.53,4.53,0,0,0,47,22.26,5.06,5.06,0,0,0,48.55,22a3.7,3.7,0,0,0,1.36-.82,1.44,1.44,0,0,1,1-.44,1.07,1.07,0,0,1,.43.09,1.19,1.19,0,0,1,.38.25,1.31,1.31,0,0,1,.27.38,1.28,1.28,0,0,1,.09.48,1.61,1.61,0,0,1-.12.6,1.7,1.7,0,0,1-.35.52A6.28,6.28,0,0,1,49.5,24.4a7.3,7.3,0,0,1-7.59-1.6,7,7,0,0,1-2.1-5Z" transform="translate(-1.32 -5.35)"/><path class="cls-1" d="M55.83,18.86a4.16,4.16,0,0,0,.55,1.38,4.51,4.51,0,0,0,1,1.11,4.39,4.39,0,0,0,1.28.73,4.16,4.16,0,0,0,1.5.27,4.87,4.87,0,0,0,1.26-.14,4.36,4.36,0,0,0,1-.44,1.61,1.61,0,0,1,.77-.23,1.22,1.22,0,0,1,.5.11,1.41,1.41,0,0,1,.4.29,1.65,1.65,0,0,1,.28.44,1.45,1.45,0,0,1,.1.51,1.14,1.14,0,0,1-.35.82,2.64,2.64,0,0,1-1,.61,5.52,5.52,0,0,1-1.38.38,9.51,9.51,0,0,1-1.63.14,6.93,6.93,0,0,1-2.79-.57,7.14,7.14,0,0,1-2.28-1.53,7,7,0,0,1-1.54-2.27,7.11,7.11,0,0,1,0-5.58,7,7,0,0,1,1.54-2.27,7.14,7.14,0,0,1,2.28-1.53,7.12,7.12,0,0,1,5.56,0,7.13,7.13,0,0,1,3.82,3.79,6.93,6.93,0,0,1,.59,2.76,1.22,1.22,0,0,1-.35.88,1.26,1.26,0,0,1-.91.35Zm8.83-2.17a4.15,4.15,0,0,0-.54-1.46,4.89,4.89,0,0,0-1-1.18,4.67,4.67,0,0,0-4.57-.76,4.46,4.46,0,0,0-2.3,2,4.53,4.53,0,0,0-.51,1.43Z" transform="translate(-1.32 -5.35)"/><path class="cls-1" d="M69.26,18a7.1,7.1,0,0,1,.59-2.9,7.5,7.5,0,0,1,1.6-2.38,7.6,7.6,0,0,1,2.37-1.61,7.06,7.06,0,0,1,2.89-.6h.08a1.32,1.32,0,0,1,1,.37,1.28,1.28,0,0,1,.34.92,1.24,1.24,0,0,1-.39.93,1.36,1.36,0,0,1-.95.36h-.08a4.54,4.54,0,0,0-1.87.39,4.9,4.9,0,0,0-2.6,2.62,4.68,4.68,0,0,0-.39,1.9v5.36a1.25,1.25,0,0,1-.36.92,1.19,1.19,0,0,1-.89.37,1.25,1.25,0,0,1-.51-.1,1.3,1.3,0,0,1-.43-.27,1.22,1.22,0,0,1-.29-.41,1.06,1.06,0,0,1-.11-.51Z" transform="translate(-1.32 -5.35)"/><path class="cls-1" d="M86.51,12.75v-.13A7.81,7.81,0,0,1,87,9.79,6.79,6.79,0,0,1,88.5,7.45a6.69,6.69,0,0,1,2.2-1.53,6.59,6.59,0,0,1,2.74-.57,6.75,6.75,0,0,1,2.76.57A7,7,0,0,1,100,9.79a7.44,7.44,0,0,1,.56,2.83,6.71,6.71,0,0,1-.26,1.9,7.34,7.34,0,0,1-.71,1.7,7.12,7.12,0,0,1-1.12,1.45A7.51,7.51,0,0,1,97,18.79a7.13,7.13,0,0,1-1.7.72,6.9,6.9,0,0,1-1.89.26,5.16,5.16,0,0,1-2.36-.53,7.86,7.86,0,0,1-1.89-1.33l0,5.43a1.47,1.47,0,0,1-.37,1,1.17,1.17,0,0,1-.92.39,1.33,1.33,0,0,1-1.34-1.35Zm7,4.35a4.32,4.32,0,0,0,1.75-.36,4.6,4.6,0,0,0,2.42-2.41,4.28,4.28,0,0,0,.36-1.75,4.17,4.17,0,0,0-.36-1.74,5.42,5.42,0,0,0-1-1.46,4,4,0,0,0-1.44-1,4.66,4.66,0,0,0-1.75-.33,4.22,4.22,0,0,0-1.73.36,3.89,3.89,0,0,0-1.4,1,5.7,5.7,0,0,0-1,1.48,4.45,4.45,0,0,0,0,3.46,4.56,4.56,0,0,0,1,1.42,4.39,4.39,0,0,0,3.13,1.3Z" transform="translate(-1.32 -5.35)"/><path class="cls-1" d="M102.54,18a7.26,7.26,0,0,1,.59-2.9,7.55,7.55,0,0,1,4-4,7.07,7.07,0,0,1,2.9-.6h.07a1.32,1.32,0,0,1,1,.37,1.28,1.28,0,0,1,.35.92,1.25,1.25,0,0,1-.4.93,1.36,1.36,0,0,1-1,.36H110a4.59,4.59,0,0,0-1.88.39,5,5,0,0,0-2.6,2.62,4.68,4.68,0,0,0-.39,1.9v5.36a1.25,1.25,0,0,1-.36.92,1.19,1.19,0,0,1-.89.37,1.25,1.25,0,0,1-.51-.1,1.3,1.3,0,0,1-.43-.27,1.22,1.22,0,0,1-.29-.41,1.19,1.19,0,0,1-.11-.51Z" transform="translate(-1.32 -5.35)"/><path class="cls-1" d="M111.69,17.69a6.89,6.89,0,0,1,.57-2.79,7.24,7.24,0,0,1,1.54-2.27,7.13,7.13,0,0,1,2.27-1.54,6.8,6.8,0,0,1,2.77-.57,6.91,6.91,0,0,1,2.8.57,7,7,0,0,1,2.27,1.54,7.18,7.18,0,0,1,1.52,2.27,7.21,7.21,0,0,1,0,5.57,7.15,7.15,0,0,1-6.59,4.37,6.8,6.8,0,0,1-2.77-.57,7.1,7.1,0,0,1-2.27-1.53,7,7,0,0,1-1.54-2.27A6.88,6.88,0,0,1,111.69,17.69Zm2.6,0a4.36,4.36,0,0,0,.36,1.76,4.55,4.55,0,0,0,7.43,1.44,4.62,4.62,0,0,0,1-1.44,4.6,4.6,0,0,0,0-3.52,4.54,4.54,0,0,0-2.41-2.41,4.49,4.49,0,0,0-1.8-.36,4.42,4.42,0,0,0-1.78.36,4.62,4.62,0,0,0-1.44,1,4.46,4.46,0,0,0-1,1.44A4.33,4.33,0,0,0,114.29,17.69Z" transform="translate(-1.32 -5.35)"/><path class="cls-1" d="M125.1,27.66a1.3,1.3,0,0,1,.1-.52,1.2,1.2,0,0,1,.28-.41,1.17,1.17,0,0,1,.42-.27,1.24,1.24,0,0,1,.5-.1h.1a2,2,0,0,0,.81-.16,2.19,2.19,0,0,0,.67-.45,1.91,1.91,0,0,0,.44-.67,2,2,0,0,0,.16-.8V11.86a1.27,1.27,0,0,1,.11-.52,1.19,1.19,0,0,1,.28-.42,1.34,1.34,0,0,1,.42-.28,1.21,1.21,0,0,1,.5-.1,1.24,1.24,0,0,1,.5.1,1.42,1.42,0,0,1,.41.28,1.32,1.32,0,0,1,.27.42,1.27,1.27,0,0,1,.11.52V24.28a4.5,4.5,0,0,1-.38,1.82,4.83,4.83,0,0,1-1,1.5,4.72,4.72,0,0,1-1.48,1,4.61,4.61,0,0,1-1.81.37h-.1a1.44,1.44,0,0,1-.5-.1,1.17,1.17,0,0,1-.42-.27,1.34,1.34,0,0,1-.28-.42A1.27,1.27,0,0,1,125.1,27.66Zm4.76-18.82a1.33,1.33,0,0,1-1-.43,1.48,1.48,0,0,1-.4-1,1.62,1.62,0,0,1,.11-.58,1.7,1.7,0,0,1,.32-.47,1.54,1.54,0,0,1,.47-.31,1.38,1.38,0,0,1,.56-.12,1.36,1.36,0,0,1,1,.43,1.42,1.42,0,0,1,.41,1.05,1.48,1.48,0,0,1-.11.57,1.54,1.54,0,0,1-.33.47,1.4,1.4,0,0,1-.47.32A1.43,1.43,0,0,1,129.86,8.84Z" transform="translate(-1.32 -5.35)"/><path class="cls-1" d="M136.64,18.86a4.18,4.18,0,0,0,.56,1.38,4.32,4.32,0,0,0,2.25,1.84,4.16,4.16,0,0,0,1.5.27,4.87,4.87,0,0,0,1.26-.14,4.3,4.3,0,0,0,1-.44,1.68,1.68,0,0,1,.78-.23,1.14,1.14,0,0,1,.49.11,1.28,1.28,0,0,1,.4.29,1.44,1.44,0,0,1,.28.44,1.25,1.25,0,0,1,.1.51,1.1,1.1,0,0,1-.35.82,2.6,2.6,0,0,1-.94.61,5.77,5.77,0,0,1-1.38.38,9.6,9.6,0,0,1-1.63.14,6.89,6.89,0,0,1-2.79-.57,7.08,7.08,0,0,1-2.29-1.53,7.18,7.18,0,0,1-1.54-2.27,7.23,7.23,0,0,1,0-5.58,7.18,7.18,0,0,1,1.54-2.27,7.08,7.08,0,0,1,2.29-1.53,6.89,6.89,0,0,1,2.79-.57,7,7,0,0,1,2.77.56,7.22,7.22,0,0,1,3.82,3.79,6.76,6.76,0,0,1,.58,2.76,1.18,1.18,0,0,1-.35.88,1.22,1.22,0,0,1-.9.35Zm8.83-2.17a3.94,3.94,0,0,0-.53-1.46,4.71,4.71,0,0,0-1-1.18,4.34,4.34,0,0,0-1.34-.77,4.69,4.69,0,0,0-3.22,0,4.34,4.34,0,0,0-1.33.79,4.25,4.25,0,0,0-1,1.18,4.53,4.53,0,0,0-.51,1.43Z" transform="translate(-1.32 -5.35)"/><path class="cls-1" d="M149.41,17.76a7.14,7.14,0,0,1,4.36-6.67,7,7,0,0,1,2.82-.57,7.33,7.33,0,0,1,2.68.5,6.47,6.47,0,0,1,2.19,1.42,2.11,2.11,0,0,1,.35.53,1.58,1.58,0,0,1,.11.54,1.08,1.08,0,0,1-.13.54,1.44,1.44,0,0,1-.33.4,1.51,1.51,0,0,1-.42.25,1.14,1.14,0,0,1-.42.09,1.39,1.39,0,0,1-.62-.16l-1-.74a4.56,4.56,0,0,0-1.29-.58,5.71,5.71,0,0,0-1.33-.15,4.25,4.25,0,0,0-1.7.41,4.45,4.45,0,0,0-1.37,1,4.65,4.65,0,0,0-.91,1.43,4.33,4.33,0,0,0-.33,1.67,4.59,4.59,0,0,0,1.25,3.13,4.65,4.65,0,0,0,1.4,1,4,4,0,0,0,1.77.38,5.4,5.4,0,0,0,1.28-.15,3.61,3.61,0,0,0,1.23-.58l1-.72.31-.12a1.25,1.25,0,0,1,.32-.05,1.14,1.14,0,0,1,.42.09,1.51,1.51,0,0,1,.42.25,1.62,1.62,0,0,1,.32.41,1.11,1.11,0,0,1,.12.52,1.56,1.56,0,0,1-.45,1.08,6.14,6.14,0,0,1-2.19,1.42,7.4,7.4,0,0,1-2.68.49A7.14,7.14,0,0,1,150,20.53,6.93,6.93,0,0,1,149.41,17.76Z" transform="translate(-1.32 -5.35)"/><path class="cls-1" d="M163.9,7.59a1.44,1.44,0,0,1,.1-.5,1.55,1.55,0,0,1,.29-.43,1.42,1.42,0,0,1,.41-.28,1.21,1.21,0,0,1,.5-.1,1.32,1.32,0,0,1,.51.1,1.39,1.39,0,0,1,.43.28,1.22,1.22,0,0,1,.29.41,1.35,1.35,0,0,1,.11.52v2.88h5.81a1.3,1.3,0,0,1,1.31,1.31,1.18,1.18,0,0,1-.38.89,1.27,1.27,0,0,1-.93.36h-5.81V17.8a4.41,4.41,0,0,0,.35,1.75,4.24,4.24,0,0,0,1,1.42,4.33,4.33,0,0,0,1.44.94,4.54,4.54,0,0,0,1.77.35,5.08,5.08,0,0,0,1.58-.24A3.66,3.66,0,0,0,174,21.2a1.46,1.46,0,0,1,1-.44,1.11,1.11,0,0,1,.43.09,1.19,1.19,0,0,1,.38.25,1.21,1.21,0,0,1,.36.86,1.44,1.44,0,0,1-.13.6,1.51,1.51,0,0,1-.34.52,6.38,6.38,0,0,1-2.09,1.32,7.19,7.19,0,0,1-2.53.44,7.05,7.05,0,0,1-2.79-.55,7,7,0,0,1-3.81-3.73,7,7,0,0,1-.56-2.78Z" transform="translate(-1.32 -5.35)"/><path class="cls-1" d="M3.74,68.22a.64.64,0,0,1-1.08.18c-1.26-1.12-1.54-2.48-1-5a96.55,96.55,0,0,1,6-17.13c.29-.54.65-.58.9-.14.61,1,.68,2.34-.36,5.11-1.19,3.24-3,7.92-4.5,13a179.36,179.36,0,0,1,12.6-17.53c.25-.29.61-.4.9,0,.72,1.05.9,2,0,4.68-1.16,3.39-2.67,7.78-4,13A155.55,155.55,0,0,1,27,45.9c.43-.43.79-.36.86.15.22,1.26-.25,2.8-2.08,5.22-2.63,3.45-8,10.07-12.31,16.77-.29.43-.62.61-1.08.18-1.23-1.12-1.66-2.41-1.12-5a95.72,95.72,0,0,1,3-10C11,57.49,6.8,63.36,3.74,68.22Z" transform="translate(-1.32 -5.35)"/><path class="cls-1" d="M33.66,54c.32-.47.61-.54.86-.22.54.65.83,2.2,0,4-.8,1.62-2.6,4.32-3.46,6.22s-.94,3.57.29,3.49c1.47-.07,3.45-2.52,4.71-5,.18-.32.44-.36.58,0a3.32,3.32,0,0,1-.32,2.24c-.94,2-3.21,4-5.19,3.85a2.79,2.79,0,0,1-3-3c-1.15,1.47-2.77,2.8-4.5,2.8-3.35,0-4-4.57-1-8.92s5.76-5.87,7.56-5.87a2.2,2.2,0,0,1,2.19,2.59A24.46,24.46,0,0,1,33.66,54Zm-2.88,1.47C29.63,55.33,27,57.67,25,60.88s-2.38,6.26-1,6.3,3.35-2.27,5.18-5.44C31.5,57.78,31.82,55.55,30.78,55.44Z" transform="translate(-1.32 -5.35)"/><path class="cls-1" d="M37.51,52.92c-.36-.5-.14-.75.4-.72a19.78,19.78,0,0,0,3-.14,47,47,0,0,1,2.73-4.47c.33-.46.69-.43.87,0,.39,1,.39,2.2-.47,4.07a2.26,2.26,0,0,1,2.23,1.08c.25.43.11.69-.43.69a10.84,10.84,0,0,0-2.81.14c-1.4,2.41-3.46,5.9-4.82,8.93-1.19,2.62-.8,4.86.72,4.93s3.67-2.49,5-5.18c.22-.44.61-.51.76,0a3,3,0,0,1-.36,2c-.47,1-2.85,4.21-5.73,4.1-2.37-.07-4.28-2.73-2.55-6.87.75-1.8,2.26-4.83,3.81-7.67A3,3,0,0,1,37.51,52.92Z" transform="translate(-1.32 -5.35)"/><path class="cls-1" d="M61.31,68.4c-2.74-.14-3.82-2.59-2.92-5.51.76-2.41,2.92-5.07,4.46-6.8a8.35,8.35,0,0,1-4.32,1.37c-3,6.26-6.87,10.8-11.15,10.87-4.58.07-6.12-4.39-3.78-9s5.94-6.48,7.73-5.44a6.7,6.7,0,0,1,2.13,1.84c.61.86.25,3-1.19,4.82-1.69,2.2-4.1,3.1-6.62,1.08-1.15,3.28-.25,5.62,1.58,5.69,4,.18,7.92-5.51,9.9-10.08-2.77-1.15.76-5.94,2.27-6,1.11,0,.75,2.16-.15,4.5A9.75,9.75,0,0,0,63.18,54c.43-.29.75-.47,1-.11.72.79,1.61,2.52.54,3.71a19.93,19.93,0,0,0-4.14,6.26c-.62,2-.18,3.42.9,3.46,1.51.07,3.34-2.31,4.5-5,.14-.29.39-.36.54,0a3.2,3.2,0,0,1-.19,2.34C65.45,66.85,63.29,68.51,61.31,68.4ZM50.22,59.08c1.15-1.48,1.91-3.35,1.44-3.75-.79-.68-3.74,1.59-5.4,4.9-.11.18-.18.43-.29.61C47.74,61.92,49.14,60.45,50.22,59.08Z" transform="translate(-1.32 -5.35)"/><path class="cls-1" d="M78.62,48c-.18-.4-.11-.61.36-.65,3-.33,5.69-1.84,8.14-1.94a3.89,3.89,0,0,1,4.28,3,6.91,6.91,0,0,1-1.08,6.16c-1.8,2.81-5.69,5.5-10.4,6.41a3.25,3.25,0,0,1-2.23-.37c-1,2-2.09,4.36-3.35,7.35-.14.36-.32.36-.58.11-.5-.54-.86-1.62-.32-3.57.94-3.27,4.32-10,7.45-15A2.7,2.7,0,0,1,78.62,48Zm11.23.72c-.75-2-4.35-.11-6.73.57a8.14,8.14,0,0,1-1.37,4c-.93,1.66-1.94,3.31-3,5.33C86.79,57.1,90.83,51.27,89.85,48.75Z" transform="translate(-1.32 -5.35)"/><path class="cls-1" d="M98.06,54.83c.43-.29.72-.36,1-.07.69.75,1.55,2.34.51,3.53-1.62,1.83-3.39,4.1-4,6s-.15,3.28.9,3.31c1.4.07,3.13-2.16,4.28-4.75.15-.29.36-.32.51,0a3.17,3.17,0,0,1-.18,2.23,5.44,5.44,0,0,1-4.83,3.52c-2.59-.1-3.63-2.48-2.73-5.18.79-2.37,2.88-4.93,4.32-6.59a7.82,7.82,0,0,1-4.22,1.37c-1.36,2.52-4.82,7.63-5.5,10.91-.08.32-.29.5-.61.18-1-1.08-1-2.74-.08-4.57.83-1.59,3.24-5,4.57-6.88-2.05-1.33,1.08-5.58,2.42-5.61,1.11,0,.82,2-.08,4.32A8.51,8.51,0,0,0,98.06,54.83Z" transform="translate(-1.32 -5.35)"/><path class="cls-1" d="M120.56,64.55c-1.44,2.48-4.28,4.21-7.52,5.51-2,4.82-4.68,10.65-7.53,11.73a1.52,1.52,0,0,1-2.05-.65,4.78,4.78,0,0,1-.83-4.5c1.05-3.31,4.22-5.61,7.85-6.87,1.44-3.49,3.13-7.27,4.72-10.37a5.38,5.38,0,0,1-3.6,1.08c-.72,3.06-2.95,6.77-5.65,7.63a3.88,3.88,0,0,1-4.57-1.51c-1.55-2.12-1-5.29.61-8.1,1.44-2.45,3.52-4.57,5.68-4.68A2.4,2.4,0,0,1,110.16,55c.83,1.15,1.91,1.33,1.73,4a4.34,4.34,0,0,1-.11.61c2.19,0,4.35-2.41,6.22-5.18.33-.47.62-.65.9-.29.54.61.72,2.16-.1,4-.94,2-3.57,6.95-5.11,10.55a18.51,18.51,0,0,0,6.83-6.23c.18-.25.47-.29.58.07A3.25,3.25,0,0,1,120.56,64.55Zm-13.64-8.1a13.51,13.51,0,0,0-2.77,3.42c-1.55,2.7-2.06,6.05-1.16,6.8s3.21-.43,5-3.67a16.5,16.5,0,0,0,1.33-3.13A4.22,4.22,0,0,1,106.92,56.45Zm-2.74,23.36c.54.69,3.42-3.17,5.65-8.49C105.15,74,103.53,79,104.18,79.81Zm5.58-23.36c-.14-1.15-.9-1-1.08.11a2.79,2.79,0,0,0,.87,2.41A7.33,7.33,0,0,0,109.76,56.45Zm11.7-2.77c-.5.54-1.44.36-2-.54a2.15,2.15,0,0,1,.18-2.67c.58-.54,1.62-.21,2.06.83A2.45,2.45,0,0,1,121.46,53.68Z" transform="translate(-1.32 -5.35)"/><path class="cls-1" d="M124.7,67.39c3,.15,5.62-2.73,7.17-5.11.17-.29.46-.29.61,0a3,3,0,0,1-.61,2.23,9.18,9.18,0,0,1-7.06,3.89c-4.57.07-6.16-4.43-3.82-9.07s6-6.52,7.82-5.48a6.65,6.65,0,0,1,2.12,1.88c.65.86.36,3.06-1.15,4.89-1.77,2.16-4.18,3.1-6.7,1.05C121.93,65,122.79,67.28,124.7,67.39Zm3-8.28c1.15-1.51,1.94-3.38,1.44-3.78-.76-.61-3.74,1.55-5.44,5-.1.22-.21.43-.28.61C125.17,62,126.65,60.48,127.69,59.11Z" transform="translate(-1.32 -5.35)"/><path class="cls-1" d="M142.16,56c.76,1.51-.68,3.42-1.4,5.36-.15.43-.29.54-.76.29-.86-.43-1.37-1.52-.86-3.13.39-1.3,1.47-2.85,1-3.24s-3.31,1.8-4.93,5.07c-2,4.07-1.23,7.06.9,7.09,3,0,5.61-2.84,7.09-5.11.18-.29.5-.32.65,0a3.34,3.34,0,0,1-.65,2.16,9,9,0,0,1-6.95,3.92c-4.57.07-6.12-4.39-3.78-9s5.94-6.48,7.74-5.4A4.71,4.71,0,0,1,142.16,56Z" transform="translate(-1.32 -5.35)"/><path class="cls-1" d="M144.65,52.92c-.36-.5-.15-.75.39-.72a19.71,19.71,0,0,0,3-.14,47,47,0,0,1,2.73-4.47c.33-.46.69-.43.87,0,.39,1,.39,2.2-.47,4.07a2.26,2.26,0,0,1,2.23,1.08c.25.43.11.69-.43.69a10.84,10.84,0,0,0-2.81.14c-1.4,2.41-3.45,5.9-4.82,8.93-1.19,2.62-.79,4.86.72,4.93s3.67-2.49,5-5.18c.22-.44.61-.51.76,0a3,3,0,0,1-.36,2c-.47,1-2.85,4.21-5.73,4.1-2.37-.07-4.28-2.73-2.55-6.87.75-1.8,2.27-4.83,3.81-7.67A2.92,2.92,0,0,1,144.65,52.92Z" transform="translate(-1.32 -5.35)"/><path class="cls-1" d="M1.55,88.53H4.82a8.22,8.22,0,0,1,1.29.11,3.09,3.09,0,0,1,1.18.43,2.57,2.57,0,0,1,.85.91,3.23,3.23,0,0,1,.32,1.54A2.36,2.36,0,0,1,8,93a2.51,2.51,0,0,1-1.52.85v0a3.06,3.06,0,0,1,1,.26,2.74,2.74,0,0,1,.8.58,2.7,2.7,0,0,1,.52.85A3.24,3.24,0,0,1,9,96.69a3,3,0,0,1-.38,1.59,2.74,2.74,0,0,1-.94,1,3.43,3.43,0,0,1-1.23.48,6.3,6.3,0,0,1-1.24.13H1.55Zm1.06,4.9H4.8a3.8,3.8,0,0,0,1.33-.2,2.43,2.43,0,0,0,.8-.49,1.41,1.41,0,0,0,.38-.62,1.89,1.89,0,0,0,.1-.6,2.19,2.19,0,0,0-.2-1,1.63,1.63,0,0,0-.54-.62,2,2,0,0,0-.78-.33,4.19,4.19,0,0,0-.95-.1H2.61Zm0,5.47H5a4.17,4.17,0,0,0,1.5-.22,2.3,2.3,0,0,0,.87-.56,1.81,1.81,0,0,0,.41-.72,2.49,2.49,0,0,0,.1-.68,2.25,2.25,0,0,0-.24-1.07A2.1,2.1,0,0,0,7,94.92a2.66,2.66,0,0,0-.87-.4,3.74,3.74,0,0,0-1-.13H2.61Z" transform="translate(-1.32 -5.35)"/><path class="cls-1" d="M10.94,96.16a4.2,4.2,0,0,1,.29-1.56,3.6,3.6,0,0,1,2-2,4.25,4.25,0,0,1,1.57-.28,4.13,4.13,0,0,1,1.56.28,3.76,3.76,0,0,1,1.23.81,3.66,3.66,0,0,1,.81,1.23,4.2,4.2,0,0,1,.29,1.56,4.13,4.13,0,0,1-.29,1.56,3.57,3.57,0,0,1-2,2,3.94,3.94,0,0,1-1.56.29,4.06,4.06,0,0,1-1.57-.29A3.59,3.59,0,0,1,12,99a3.73,3.73,0,0,1-.8-1.24A4.13,4.13,0,0,1,10.94,96.16Zm1,0a3.52,3.52,0,0,0,.2,1.18,2.77,2.77,0,0,0,.59,1,2.73,2.73,0,0,0,.93.65,2.94,2.94,0,0,0,1.21.24A3,3,0,0,0,16.05,99,2.94,2.94,0,0,0,17,98.3a2.74,2.74,0,0,0,.58-1,3.55,3.55,0,0,0,0-2.35A2.74,2.74,0,0,0,17,94a2.94,2.94,0,0,0-.93-.65,3,3,0,0,0-1.22-.24,2.94,2.94,0,0,0-1.21.24,2.73,2.73,0,0,0-.93.65,2.77,2.77,0,0,0-.59,1A3.51,3.51,0,0,0,11.9,96.16Z" transform="translate(-1.32 -5.35)"/><path class="cls-1" d="M27.33,98.56h0a2.6,2.6,0,0,1-.56.67,3.31,3.31,0,0,1-.73.46,3,3,0,0,1-.83.27,4.07,4.07,0,0,1-.84.09,4,4,0,0,1-1.57-.29,3.52,3.52,0,0,1-2-2,3.94,3.94,0,0,1-.29-1.56,4,4,0,0,1,.29-1.56,3.63,3.63,0,0,1,.8-1.23,3.76,3.76,0,0,1,1.23-.81,4.21,4.21,0,0,1,1.57-.28,4.87,4.87,0,0,1,.84.08,3.38,3.38,0,0,1,.83.28,3.31,3.31,0,0,1,.73.46,2.73,2.73,0,0,1,.56.66h0v-6h1v12.1h-1Zm.09-2.4A3,3,0,0,0,26.53,94a3.29,3.29,0,0,0-1-.65,3,3,0,0,0-1.21-.24,3,3,0,0,0-1.22.24,2.94,2.94,0,0,0-.93.65,2.74,2.74,0,0,0-.58,1,3.55,3.55,0,0,0,0,2.35,2.74,2.74,0,0,0,.58,1,2.94,2.94,0,0,0,.93.65,3,3,0,0,0,1.22.24A3,3,0,0,0,25.55,99a3.29,3.29,0,0,0,1-.65,3,3,0,0,0,.89-2.14Z" transform="translate(-1.32 -5.35)"/><path class="cls-1" d="M32.72,102.15a2.67,2.67,0,0,1-.75,1.13,1.88,1.88,0,0,1-1.28.42,2.59,2.59,0,0,1-.48,0l-.47-.1.1-.9.42.12a1.67,1.67,0,0,0,.44.06.88.88,0,0,0,.46-.12,1.16,1.16,0,0,0,.34-.28,1.8,1.8,0,0,0,.25-.4c.07-.14.13-.29.19-.44l.67-1.71-3-7.42h1.07l2.45,6.22,2.38-6.22h1Z" transform="translate(-1.32 -5.35)"/><path class="cls-1" d="M48.4,98.77a3.42,3.42,0,0,1-1.23,1,3.55,3.55,0,0,1-1.49.31,4,4,0,0,1-1.57-.29,3.59,3.59,0,0,1-1.23-.8,3.73,3.73,0,0,1-.8-1.24,4.13,4.13,0,0,1-.29-1.56,4.2,4.2,0,0,1,.29-1.56,3.6,3.6,0,0,1,2-2,4.21,4.21,0,0,1,1.57-.28,3.48,3.48,0,0,1,1.51.33,3.92,3.92,0,0,1,1.24,1l-.77.57a3.29,3.29,0,0,0-.91-.73,2.32,2.32,0,0,0-1.07-.26,3,3,0,0,0-1.22.24,2.79,2.79,0,0,0-.92.65A2.62,2.62,0,0,0,43,95a3.55,3.55,0,0,0,0,2.35,2.62,2.62,0,0,0,.59,1,2.79,2.79,0,0,0,.92.65,3,3,0,0,0,1.22.24,2.31,2.31,0,0,0,1.11-.28,2.85,2.85,0,0,0,.87-.75Z" transform="translate(-1.32 -5.35)"/><path class="cls-1" d="M49.49,96.16a4,4,0,0,1,.29-1.56,3.63,3.63,0,0,1,.8-1.23,3.76,3.76,0,0,1,1.23-.81,4.21,4.21,0,0,1,1.57-.28,4.11,4.11,0,0,1,1.55.28,3.92,3.92,0,0,1,1.24.81A3.79,3.79,0,0,1,57,94.6a4,4,0,0,1,.29,1.56A3.94,3.94,0,0,1,57,97.72a3.5,3.5,0,0,1-2,2,3.93,3.93,0,0,1-1.55.29,4,4,0,0,1-1.57-.29,3.52,3.52,0,0,1-2-2A3.94,3.94,0,0,1,49.49,96.16Zm1,0a3.29,3.29,0,0,0,.2,1.18,2.6,2.6,0,0,0,.58,1,2.94,2.94,0,0,0,.93.65,3.2,3.2,0,0,0,2.43,0,2.94,2.94,0,0,0,.93-.65,2.6,2.6,0,0,0,.58-1,3.55,3.55,0,0,0,0-2.35,2.6,2.6,0,0,0-.58-1,2.94,2.94,0,0,0-.93-.65,3.2,3.2,0,0,0-2.43,0,2.94,2.94,0,0,0-.93.65,2.6,2.6,0,0,0-.58,1A3.27,3.27,0,0,0,50.45,96.16Z" transform="translate(-1.32 -5.35)"/><path class="cls-1" d="M59.2,92.47h1v1.29h0a2.73,2.73,0,0,1,.56-.66,3.1,3.1,0,0,1,.73-.46,3.31,3.31,0,0,1,.82-.28,5,5,0,0,1,.85-.08,4.13,4.13,0,0,1,1.56.28,3.76,3.76,0,0,1,1.23.81,3.66,3.66,0,0,1,.81,1.23A4.2,4.2,0,0,1,67,96.16a4.13,4.13,0,0,1-.29,1.56,3.57,3.57,0,0,1-2,2,3.94,3.94,0,0,1-1.56.29,4.17,4.17,0,0,1-.85-.09,2.93,2.93,0,0,1-.82-.27,3.1,3.1,0,0,1-.73-.46,2.6,2.6,0,0,1-.56-.67h0v5h-1Zm.86,3.69A3,3,0,0,0,61,98.3a3.24,3.24,0,0,0,1,.65,3.09,3.09,0,0,0,1.22.24A3,3,0,0,0,64.37,99a2.79,2.79,0,0,0,.92-.65,2.62,2.62,0,0,0,.59-1,3.55,3.55,0,0,0,0-2.35,2.62,2.62,0,0,0-.59-1,2.79,2.79,0,0,0-.92-.65,3,3,0,0,0-1.22-.24,3.09,3.09,0,0,0-1.22.24A3.24,3.24,0,0,0,61,94a3,3,0,0,0-.9,2.13Z" transform="translate(-1.32 -5.35)"/><path class="cls-1" d="M71.26,102.15a2.67,2.67,0,0,1-.75,1.13,1.88,1.88,0,0,1-1.28.42,2.59,2.59,0,0,1-.48,0l-.46-.1.09-.9.43.12a1.61,1.61,0,0,0,.44.06.84.84,0,0,0,.45-.12,1.2,1.2,0,0,0,.35-.28,2.23,2.23,0,0,0,.24-.4c.07-.14.13-.29.19-.44l.67-1.71-3-7.42h1.07l2.45,6.22,2.39-6.22h1Z" transform="translate(-1.32 -5.35)"/></g></g></svg>